<ttFont>
    <TTGlyph name=".notdef" xMin="76" yMin="0" xMax="628" yMax="660">
      <contour>
        <pt x="76" y="660" on="1"/>
        <pt x="628" y="660" on="1"/>
        <pt x="628" y="0" on="1"/>
        <pt x="76" y="0" on="1"/>
      </contour>
      <contour>
        <pt x="354" y="424" on="1"/>
        <pt x="394" y="520" on="1"/>
        <pt x="412" y="556" on="1"/>
        <pt x="292" y="556" on="1"/>
        <pt x="310" y="520" on="1"/>
        <pt x="350" y="424" on="1"/>
      </contour>
      <contour>
        <pt x="270" y="340" on="1"/>
        <pt x="188" y="508" on="1"/>
        <pt x="188" y="172" on="1"/>
      </contour>
      <contour>
        <pt x="516" y="508" on="1"/>
        <pt x="434" y="340" on="1"/>
        <pt x="516" y="172" on="1"/>
      </contour>
      <contour>
        <pt x="416" y="104" on="1"/>
        <pt x="390" y="160" on="1"/>
        <pt x="354" y="256" on="1"/>
        <pt x="350" y="256" on="1"/>
        <pt x="314" y="160" on="1"/>
        <pt x="288" y="104" on="1"/>
      </contour>
    </TTGlyph>
    <TTGlyph name="A" xMin="-10" yMin="0" xMax="594" yMax="650">
      <contour>
        <pt x="380" y="138" on="1"/>
        <pt x="198" y="138" on="1"/>
        <pt x="166" y="0" on="1"/>
        <pt x="-10" y="0" on="1"/>
        <pt x="188" y="650" on="1"/>
        <pt x="396" y="650" on="1"/>
        <pt x="594" y="0" on="1"/>
        <pt x="412" y="0" on="1"/>
      </contour>
      <contour>
        <pt x="349" y="271" on="1"/>
        <pt x="338" y="316" on="1"/>
        <pt x="325" y="367" on="0"/>
        <pt x="312" y="428" on="1"/>
        <pt x="290" y="522" on="1"/>
        <pt x="286" y="522" on="1"/>
        <pt x="280" y="494" on="1"/>
        <pt x="258" y="384" on="0"/>
        <pt x="240" y="316" on="1"/>
        <pt x="229" y="271" on="1"/>
      </contour>
    </TTGlyph>
    <TTGlyph name="AE" xMin="-22" yMin="0" xMax="800" yMax="650">
      <contour>
        <pt x="800" y="144" on="1"/>
        <pt x="800" y="0" on="1"/>
        <pt x="380" y="0" on="1"/>
        <pt x="380" y="132" on="1"/>
        <pt x="215" y="132" on="1"/>
        <pt x="158" y="0" on="1"/>
        <pt x="-22" y="0" on="1"/>
        <pt x="274" y="650" on="1"/>
        <pt x="790" y="650" on="1"/>
        <pt x="790" y="506" on="1"/>
        <pt x="552" y="506" on="1"/>
        <pt x="552" y="404" on="1"/>
        <pt x="754" y="404" on="1"/>
        <pt x="754" y="260" on="1"/>
        <pt x="552" y="260" on="1"/>
        <pt x="552" y="144" on="1"/>
      </contour>
      <contour>
        <pt x="380" y="265" on="1"/>
        <pt x="380" y="522" on="1"/>
        <pt x="376" y="522" on="1"/>
        <pt x="356" y="469" on="1"/>
        <pt x="348" y="448" on="0"/>
        <pt x="319" y="373" on="0"/>
        <pt x="308" y="348" on="1"/>
        <pt x="272" y="265" on="1"/>
      </contour>
    </TTGlyph>
    <TTGlyph name="Aacute" xMin="-10" yMin="0" xMax="594" yMax="904">
      <component glyphName="A" x="0" y="0" flags="0x0"/>
      <component glyphName="acutecomb.cap" x="288" y="0" flags="0x0"/>
    </TTGlyph>
    <TTGlyph name="Abreve" xMin="-10" yMin="0" xMax="594" yMax="850">
      <component glyphName="A" x="0" y="0" flags="0x0"/>
      <component glyphName="uni0306.cap" x="288" y="0" flags="0x0"/>
    </TTGlyph>
    <TTGlyph name="Acircumflex" xMin="-10" yMin="0" xMax="594" yMax="834">
      <component glyphName="A" x="0" y="0" flags="0x0"/>
      <component glyphName="uni0302.cap" x="288" y="0" flags="0x0"/>
    </TTGlyph>
    <TTGlyph name="Adieresis" xMin="-10" yMin="0" xMax="594" yMax="850">
      <component glyphName="A" x="0" y="0" flags="0x0"/>
      <component glyphName="uni0308.cap" x="288" y="0" flags="0x0"/>
    </TTGlyph>
    <TTGlyph name="Agrave" xMin="-10" yMin="0" xMax="594" yMax="904">
      <component glyphName="A" x="0" y="0" flags="0x0"/>
      <component glyphName="gravecomb.cap" x="288" y="0" flags="0x0"/>
    </TTGlyph>
    <TTGlyph name="Amacron" xMin="-10" yMin="0" xMax="594" yMax="824">
      <component glyphName="A" x="0" y="0" flags="0x0"/>
      <component glyphName="uni0304.cap" x="288" y="0" flags="0x0"/>
    </TTGlyph>
    <TTGlyph name="Aring" xMin="-10" yMin="0" xMax="594" yMax="900">
      <component glyphName="A" x="0" y="0" flags="0x0"/>
      <component glyphName="uni030A.cap" x="288" y="0" flags="0x0"/>
    </TTGlyph>
    <TTGlyph name="Atilde" xMin="-10" yMin="0" xMax="594" yMax="856">
      <component glyphName="A" x="0" y="0" flags="0x0"/>
      <component glyphName="tildecomb.cap" x="288" y="0" flags="0x0"/>
    </TTGlyph>
    <TTGlyph name="B" xMin="72" yMin="0" xMax="582" yMax="650">
      <contour>
        <pt x="72" y="650" on="1"/>
        <pt x="306" y="650" on="1"/>
        <pt x="420" y="650" on="0"/>
        <pt x="552" y="577" on="0"/>
        <pt x="552" y="488" on="1"/>
        <pt x="552" y="444" on="0"/>
        <pt x="506" y="363" on="0"/>
        <pt x="470" y="348" on="1"/>
        <pt x="470" y="344" on="1"/>
        <pt x="520" y="329" on="0"/>
        <pt x="582" y="253" on="0"/>
        <pt x="582" y="192" on="1"/>
        <pt x="582" y="96" on="0"/>
        <pt x="438" y="0" on="0"/>
        <pt x="326" y="0" on="1"/>
        <pt x="72" y="0" on="1"/>
      </contour>
      <contour>
        <pt x="302" y="396" on="1"/>
        <pt x="343" y="396" on="0"/>
        <pt x="384" y="431" on="0"/>
        <pt x="384" y="462" on="1"/>
        <pt x="384" y="492" on="0"/>
        <pt x="344" y="518" on="0"/>
        <pt x="302" y="518" on="1"/>
        <pt x="244" y="518" on="1"/>
        <pt x="244" y="396" on="1"/>
      </contour>
      <contour>
        <pt x="314" y="132" on="1"/>
        <pt x="414" y="132" on="0"/>
        <pt x="414" y="204" on="1"/>
        <pt x="414" y="239" on="0"/>
        <pt x="366" y="270" on="0"/>
        <pt x="314" y="270" on="1"/>
        <pt x="244" y="270" on="1"/>
        <pt x="244" y="132" on="1"/>
      </contour>
    </TTGlyph>
    <TTGlyph name="C" xMin="44" yMin="-12" xMax="568" yMax="662">
      <contour>
        <pt x="269" y="-12" on="0"/>
        <pt x="128" y="63" on="0"/>
        <pt x="44" y="213" on="0"/>
        <pt x="44" y="320" on="1"/>
        <pt x="44" y="425" on="0"/>
        <pt x="131" y="580" on="0"/>
        <pt x="274" y="662" on="0"/>
        <pt x="358" y="662" on="1"/>
        <pt x="418" y="662" on="0"/>
        <pt x="522" y="614" on="0"/>
        <pt x="560" y="576" on="1"/>
        <pt x="470" y="466" on="1"/>
        <pt x="443" y="490" on="0"/>
        <pt x="393" y="514" on="0"/>
        <pt x="362" y="514" on="1"/>
        <pt x="324" y="514" on="0"/>
        <pt x="259" y="468" on="0"/>
        <pt x="220" y="383" on="0"/>
        <pt x="220" y="326" on="1"/>
        <pt x="220" y="236" on="0"/>
        <pt x="296" y="136" on="0"/>
        <pt x="360" y="136" on="1"/>
        <pt x="426" y="136" on="0"/>
        <pt x="478" y="192" on="1"/>
        <pt x="568" y="84" on="1"/>
        <pt x="527" y="36" on="0"/>
        <pt x="418" y="-12" on="0"/>
        <pt x="354" y="-12" on="1"/>
      </contour>
    </TTGlyph>
    <TTGlyph name="Ccaron" xMin="44" yMin="-12" xMax="568" yMax="854">
      <component glyphName="C" x="0" y="0" flags="0x0"/>
      <component glyphName="uni030C.cap" x="348" y="0" flags="0x0"/>
    </TTGlyph>
    <TTGlyph name="Ccedilla" xMin="44" yMin="-12" xMax="568" yMax="662">
      <contour>
        <pt x="269" y="-12" on="0"/>
        <pt x="128" y="63" on="0"/>
        <pt x="44" y="213" on="0"/>
        <pt x="44" y="320" on="1"/>
        <pt x="44" y="425" on="0"/>
        <pt x="131" y="580" on="0"/>
        <pt x="274" y="662" on="0"/>
        <pt x="358" y="662" on="1"/>
        <pt x="418" y="662" on="0"/>
        <pt x="522" y="614" on="0"/>
        <pt x="560" y="576" on="1"/>
        <pt x="470" y="466" on="1"/>
        <pt x="443" y="490" on="0"/>
        <pt x="393" y="514" on="0"/>
        <pt x="362" y="514" on="1"/>
        <pt x="324" y="514" on="0"/>
        <pt x="259" y="468" on="0"/>
        <pt x="220" y="383" on="0"/>
        <pt x="220" y="326" on="1"/>
        <pt x="220" y="236" on="0"/>
        <pt x="296" y="136" on="0"/>
        <pt x="360" y="136" on="1"/>
        <pt x="426" y="136" on="0"/>
        <pt x="478" y="192" on="1"/>
        <pt x="568" y="84" on="1"/>
        <pt x="527" y="36" on="0"/>
        <pt x="418" y="-12" on="0"/>
        <pt x="354" y="-12" on="1"/>
      </contour>
    </TTGlyph>
    <TTGlyph name="D" xMin="72" yMin="0" xMax="598" yMax="650">
      <contour>
        <pt x="72" y="650" on="1"/>
        <pt x="264" y="650" on="1"/>
        <pt x="420" y="650" on="0"/>
        <pt x="598" y="494" on="0"/>
        <pt x="598" y="328" on="1"/>
        <pt x="598" y="162" on="0"/>
        <pt x="423" y="0" on="0"/>
        <pt x="274" y="0" on="1"/>
        <pt x="72" y="0" on="1"/>
      </contour>
      <contour>
        <pt x="254" y="138" on="1"/>
        <pt x="333" y="138" on="0"/>
        <pt x="422" y="222" on="0"/>
        <pt x="422" y="328" on="1"/>
        <pt x="422" y="433" on="0"/>
        <pt x="334" y="512" on="0"/>
        <pt x="254" y="512" on="1"/>
        <pt x="244" y="512" on="1"/>
        <pt x="244" y="138" on="1"/>
      </contour>
    </TTGlyph>
    <TTGlyph name="E" xMin="72" yMin="0" xMax="502" yMax="650">
      <contour>
        <pt x="72" y="650" on="1"/>
        <pt x="492" y="650" on="1"/>
        <pt x="492" y="506" on="1"/>
        <pt x="244" y="506" on="1"/>
        <pt x="244" y="404" on="1"/>
        <pt x="456" y="404" on="1"/>
        <pt x="456" y="260" on="1"/>
        <pt x="244" y="260" on="1"/>
        <pt x="244" y="144" on="1"/>
        <pt x="502" y="144" on="1"/>
        <pt x="502" y="0" on="1"/>
        <pt x="72" y="0" on="1"/>
      </contour>
    </TTGlyph>
    <TTGlyph name="Eacute" xMin="72" yMin="0" xMax="502" yMax="904">
      <component glyphName="E" x="0" y="0" flags="0x0"/>
      <component glyphName="acutecomb.cap" x="290" y="0" flags="0x0"/>
    </TTGlyph>
    <TTGlyph name="Ebreve" xMin="72" yMin="0" xMax="502" yMax="850">
      <component glyphName="E" x="0" y="0" flags="0x0"/>
      <component glyphName="uni0306.cap" x="290" y="0" flags="0x0"/>
    </TTGlyph>
    <TTGlyph name="Ecircumflex" xMin="72" yMin="0" xMax="502" yMax="834">
      <component glyphName="E" x="0" y="0" flags="0x0"/>
      <component glyphName="uni0302.cap" x="290" y="0" flags="0x0"/>
    </TTGlyph>
    <TTGlyph name="Edieresis" xMin="72" yMin="0" xMax="502" yMax="850">
      <component glyphName="E" x="0" y="0" flags="0x0"/>
      <component glyphName="uni0308.cap" x="290" y="0" flags="0x0"/>
    </TTGlyph>
    <TTGlyph name="Egrave" xMin="72" yMin="0" xMax="502" yMax="904">
      <component glyphName="E" x="0" y="0" flags="0x0"/>
      <component glyphName="gravecomb.cap" x="290" y="0" flags="0x0"/>
    </TTGlyph>
    <TTGlyph name="Emacron" xMin="72" yMin="0" xMax="502" yMax="824">
      <component glyphName="E" x="0" y="0" flags="0x0"/>
      <component glyphName="uni0304.cap" x="290" y="0" flags="0x0"/>
    </TTGlyph>
    <TTGlyph name="Eogonek" xMin="72" yMin="-228" xMax="524" yMax="650">
      <contour>
        <pt x="357" y="-228" on="0"/>
        <pt x="288" y="-175" on="0"/>
        <pt x="288" y="-130" on="1"/>
        <pt x="288" y="-87" on="0"/>
        <pt x="337" y="-19" on="0"/>
        <pt x="368" y="0" on="1"/>
        <pt x="72" y="0" on="1"/>
        <pt x="72" y="650" on="1"/>
        <pt x="492" y="650" on="1"/>
        <pt x="492" y="506" on="1"/>
        <pt x="244" y="506" on="1"/>
        <pt x="244" y="404" on="1"/>
        <pt x="456" y="404" on="1"/>
        <pt x="456" y="260" on="1"/>
        <pt x="244" y="260" on="1"/>
        <pt x="244" y="144" on="1"/>
        <pt x="502" y="144" on="1"/>
        <pt x="502" y="0" on="1"/>
        <pt x="496" y="0" on="1"/>
        <pt x="462" y="0" on="0"/>
        <pt x="412" y="-52" on="0"/>
        <pt x="412" y="-84" on="1"/>
        <pt x="412" y="-101" on="0"/>
        <pt x="435" y="-118" on="0"/>
        <pt x="452" y="-118" on="1"/>
        <pt x="465" y="-118" on="0"/>
        <pt x="486" y="-104" on="1"/>
        <pt x="524" y="-190" on="1"/>
        <pt x="503" y="-206" on="0"/>
        <pt x="438" y="-228" on="0"/>
        <pt x="410" y="-228" on="1"/>
      </contour>
    </TTGlyph>
    <TTGlyph name="Eth" xMin="24" yMin="0" xMax="624" yMax="650">
      <contour>
        <pt x="446" y="650" on="0"/>
        <pt x="624" y="494" on="0"/>
        <pt x="624" y="328" on="1"/>
        <pt x="624" y="162" on="0"/>
        <pt x="449" y="0" on="0"/>
        <pt x="300" y="0" on="1"/>
        <pt x="98" y="0" on="1"/>
        <pt x="98" y="294" on="1"/>
        <pt x="24" y="294" on="1"/>
        <pt x="24" y="368" on="1"/>
        <pt x="98" y="374" on="1"/>
        <pt x="98" y="650" on="1"/>
        <pt x="290" y="650" on="1"/>
      </contour>
      <contour>
        <pt x="359" y="138" on="0"/>
        <pt x="448" y="222" on="0"/>
        <pt x="448" y="328" on="1"/>
        <pt x="448" y="433" on="0"/>
        <pt x="360" y="512" on="0"/>
        <pt x="280" y="512" on="1"/>
        <pt x="270" y="512" on="1"/>
        <pt x="270" y="374" on="1"/>
        <pt x="386" y="374" on="1"/>
        <pt x="386" y="294" on="1"/>
        <pt x="270" y="294" on="1"/>
        <pt x="270" y="138" on="1"/>
        <pt x="280" y="138" on="1"/>
      </contour>
    </TTGlyph>
    <TTGlyph name="Euro" xMin="20" yMin="-12" xMax="530" yMax="646">
      <contour>
        <pt x="530" y="80" on="1"/>
        <pt x="492" y="35" on="0"/>
        <pt x="398" y="-12" on="0"/>
        <pt x="344" y="-12" on="1"/>
        <pt x="246" y="-12" on="0"/>
        <pt x="106" y="101" on="0"/>
        <pt x="83" y="208" on="1"/>
        <pt x="20" y="208" on="1"/>
        <pt x="20" y="286" on="1"/>
        <pt x="72" y="290" on="1"/>
        <pt x="72" y="312" on="1"/>
        <pt x="72" y="328" on="0"/>
        <pt x="73" y="336" on="1"/>
        <pt x="20" y="336" on="1"/>
        <pt x="20" y="414" on="1"/>
        <pt x="83" y="419" on="1"/>
        <pt x="108" y="527" on="0"/>
        <pt x="252" y="646" on="0"/>
        <pt x="354" y="646" on="1"/>
        <pt x="400" y="646" on="0"/>
        <pt x="488" y="606" on="0"/>
        <pt x="522" y="568" on="1"/>
        <pt x="428" y="476" on="1"/>
        <pt x="408" y="495" on="0"/>
        <pt x="370" y="514" on="0"/>
        <pt x="348" y="514" on="1"/>
        <pt x="314" y="514" on="0"/>
        <pt x="266" y="466" on="0"/>
        <pt x="255" y="420" on="1"/>
        <pt x="452" y="420" on="1"/>
        <pt x="452" y="336" on="1"/>
        <pt x="244" y="336" on="1"/>
        <pt x="244" y="318" on="1"/>
        <pt x="244" y="300" on="0"/>
        <pt x="245" y="292" on="1"/>
        <pt x="412" y="292" on="1"/>
        <pt x="412" y="208" on="1"/>
        <pt x="257" y="208" on="1"/>
        <pt x="284" y="120" on="0"/>
        <pt x="354" y="120" on="1"/>
        <pt x="401" y="120" on="0"/>
        <pt x="436" y="168" on="1"/>
      </contour>
    </TTGlyph>
    <TTGlyph name="Euro.001" xMin="20" yMin="-12" xMax="530" yMax="646">
      <contour>
        <pt x="530" y="80" on="1"/>
        <pt x="492" y="35" on="0"/>
        <pt x="398" y="-12" on="0"/>
        <pt x="344" y="-12" on="1"/>
        <pt x="246" y="-12" on="0"/>
        <pt x="106" y="101" on="0"/>
        <pt x="83" y="208" on="1"/>
        <pt x="20" y="208" on="1"/>
        <pt x="20" y="286" on="1"/>
        <pt x="72" y="290" on="1"/>
        <pt x="72" y="312" on="1"/>
        <pt x="72" y="328" on="0"/>
        <pt x="73" y="336" on="1"/>
        <pt x="20" y="336" on="1"/>
        <pt x="20" y="414" on="1"/>
        <pt x="83" y="419" on="1"/>
        <pt x="108" y="527" on="0"/>
        <pt x="252" y="646" on="0"/>
        <pt x="354" y="646" on="1"/>
        <pt x="400" y="646" on="0"/>
        <pt x="488" y="606" on="0"/>
        <pt x="522" y="568" on="1"/>
        <pt x="428" y="476" on="1"/>
        <pt x="408" y="495" on="0"/>
        <pt x="370" y="514" on="0"/>
        <pt x="348" y="514" on="1"/>
        <pt x="314" y="514" on="0"/>
        <pt x="266" y="466" on="0"/>
        <pt x="255" y="420" on="1"/>
        <pt x="452" y="420" on="1"/>
        <pt x="452" y="336" on="1"/>
        <pt x="244" y="336" on="1"/>
        <pt x="244" y="318" on="1"/>
        <pt x="244" y="300" on="0"/>
        <pt x="245" y="292" on="1"/>
        <pt x="412" y="292" on="1"/>
        <pt x="412" y="208" on="1"/>
        <pt x="257" y="208" on="1"/>
        <pt x="284" y="120" on="0"/>
        <pt x="354" y="120" on="1"/>
        <pt x="401" y="120" on="0"/>
        <pt x="436" y="168" on="1"/>
      </contour>
    </TTGlyph>
    <TTGlyph name="Euro.lat" xMin="20" yMin="-12" xMax="530" yMax="646">
      <contour>
        <pt x="530" y="80" on="1"/>
        <pt x="492" y="35" on="0"/>
        <pt x="398" y="-12" on="0"/>
        <pt x="344" y="-12" on="1"/>
        <pt x="246" y="-12" on="0"/>
        <pt x="106" y="101" on="0"/>
        <pt x="83" y="208" on="1"/>
        <pt x="20" y="208" on="1"/>
        <pt x="20" y="286" on="1"/>
        <pt x="72" y="290" on="1"/>
        <pt x="72" y="312" on="1"/>
        <pt x="72" y="328" on="0"/>
        <pt x="73" y="336" on="1"/>
        <pt x="20" y="336" on="1"/>
        <pt x="20" y="414" on="1"/>
        <pt x="83" y="419" on="1"/>
        <pt x="108" y="527" on="0"/>
        <pt x="252" y="646" on="0"/>
        <pt x="354" y="646" on="1"/>
        <pt x="400" y="646" on="0"/>
        <pt x="488" y="606" on="0"/>
        <pt x="522" y="568" on="1"/>
        <pt x="428" y="476" on="1"/>
        <pt x="408" y="495" on="0"/>
        <pt x="370" y="514" on="0"/>
        <pt x="348" y="514" on="1"/>
        <pt x="314" y="514" on="0"/>
        <pt x="266" y="466" on="0"/>
        <pt x="255" y="420" on="1"/>
        <pt x="452" y="420" on="1"/>
        <pt x="452" y="336" on="1"/>
        <pt x="244" y="336" on="1"/>
        <pt x="244" y="318" on="1"/>
        <pt x="244" y="300" on="0"/>
        <pt x="245" y="292" on="1"/>
        <pt x="412" y="292" on="1"/>
        <pt x="412" y="208" on="1"/>
        <pt x="257" y="208" on="1"/>
        <pt x="284" y="120" on="0"/>
        <pt x="354" y="120" on="1"/>
        <pt x="401" y="120" on="0"/>
        <pt x="436" y="168" on="1"/>
      </contour>
    </TTGlyph>
    <TTGlyph name="Euro.lat.001" xMin="20" yMin="-12" xMax="530" yMax="646">
      <contour>
        <pt x="530" y="80" on="1"/>
        <pt x="492" y="35" on="0"/>
        <pt x="398" y="-12" on="0"/>
        <pt x="344" y="-12" on="1"/>
        <pt x="246" y="-12" on="0"/>
        <pt x="106" y="101" on="0"/>
        <pt x="83" y="208" on="1"/>
        <pt x="20" y="208" on="1"/>
        <pt x="20" y="286" on="1"/>
        <pt x="72" y="290" on="1"/>
        <pt x="72" y="312" on="1"/>
        <pt x="72" y="328" on="0"/>
        <pt x="73" y="336" on="1"/>
        <pt x="20" y="336" on="1"/>
        <pt x="20" y="414" on="1"/>
        <pt x="83" y="419" on="1"/>
        <pt x="108" y="527" on="0"/>
        <pt x="252" y="646" on="0"/>
        <pt x="354" y="646" on="1"/>
        <pt x="400" y="646" on="0"/>
        <pt x="488" y="606" on="0"/>
        <pt x="522" y="568" on="1"/>
        <pt x="428" y="476" on="1"/>
        <pt x="408" y="495" on="0"/>
        <pt x="370" y="514" on="0"/>
        <pt x="348" y="514" on="1"/>
        <pt x="314" y="514" on="0"/>
        <pt x="266" y="466" on="0"/>
        <pt x="255" y="420" on="1"/>
        <pt x="452" y="420" on="1"/>
        <pt x="452" y="336" on="1"/>
        <pt x="244" y="336" on="1"/>
        <pt x="244" y="318" on="1"/>
        <pt x="244" y="300" on="0"/>
        <pt x="245" y="292" on="1"/>
        <pt x="412" y="292" on="1"/>
        <pt x="412" y="208" on="1"/>
        <pt x="257" y="208" on="1"/>
        <pt x="284" y="120" on="0"/>
        <pt x="354" y="120" on="1"/>
        <pt x="401" y="120" on="0"/>
        <pt x="436" y="168" on="1"/>
      </contour>
    </TTGlyph>
    <TTGlyph name="F" xMin="72" yMin="0" xMax="496" yMax="650">
      <contour>
        <pt x="72" y="650" on="1"/>
        <pt x="496" y="650" on="1"/>
        <pt x="496" y="506" on="1"/>
        <pt x="244" y="506" on="1"/>
        <pt x="244" y="382" on="1"/>
        <pt x="460" y="382" on="1"/>
        <pt x="460" y="238" on="1"/>
        <pt x="244" y="238" on="1"/>
        <pt x="244" y="0" on="1"/>
        <pt x="72" y="0" on="1"/>
      </contour>
    </TTGlyph>
    <TTGlyph name="G" xMin="44" yMin="-12" xMax="592" yMax="662">
      <contour>
        <pt x="279" y="-12" on="0"/>
        <pt x="130" y="63" on="0"/>
        <pt x="44" y="213" on="0"/>
        <pt x="44" y="320" on="1"/>
        <pt x="44" y="425" on="0"/>
        <pt x="132" y="580" on="0"/>
        <pt x="280" y="662" on="0"/>
        <pt x="368" y="662" on="1"/>
        <pt x="435" y="662" on="0"/>
        <pt x="542" y="614" on="0"/>
        <pt x="580" y="576" on="1"/>
        <pt x="490" y="466" on="1"/>
        <pt x="463" y="490" on="0"/>
        <pt x="410" y="514" on="0"/>
        <pt x="374" y="514" on="1"/>
        <pt x="306" y="514" on="0"/>
        <pt x="220" y="413" on="0"/>
        <pt x="220" y="326" on="1"/>
        <pt x="220" y="233" on="0"/>
        <pt x="304" y="136" on="0"/>
        <pt x="390" y="136" on="1"/>
        <pt x="422" y="136" on="0"/>
        <pt x="440" y="148" on="1"/>
        <pt x="440" y="238" on="1"/>
        <pt x="344" y="238" on="1"/>
        <pt x="344" y="378" on="1"/>
        <pt x="592" y="378" on="1"/>
        <pt x="592" y="68" on="1"/>
        <pt x="556" y="33" on="0"/>
        <pt x="438" y="-12" on="0"/>
        <pt x="372" y="-12" on="1"/>
      </contour>
    </TTGlyph>
    <TTGlyph name="Gcaron" xMin="44" yMin="-12" xMax="592" yMax="854">
      <component glyphName="G" x="0" y="0" flags="0x0"/>
      <component glyphName="uni030C.cap" x="372" y="0" flags="0x0"/>
    </TTGlyph>
    <TTGlyph name="Gdotaccent" xMin="44" yMin="-12" xMax="592" yMax="868">
      <component glyphName="G" x="0" y="0" flags="0x0"/>
      <component glyphName="uni0307.cap" x="372" y="0" flags="0x0"/>
    </TTGlyph>
    <TTGlyph name="H" xMin="72" yMin="0" xMax="610" yMax="650">
      <contour>
        <pt x="72" y="650" on="1"/>
        <pt x="244" y="650" on="1"/>
        <pt x="244" y="408" on="1"/>
        <pt x="438" y="408" on="1"/>
        <pt x="438" y="650" on="1"/>
        <pt x="610" y="650" on="1"/>
        <pt x="610" y="0" on="1"/>
        <pt x="438" y="0" on="1"/>
        <pt x="438" y="258" on="1"/>
        <pt x="244" y="258" on="1"/>
        <pt x="244" y="0" on="1"/>
        <pt x="72" y="0" on="1"/>
      </contour>
    </TTGlyph>
    <TTGlyph name="Hbar" xMin="22" yMin="0" xMax="700" yMax="650">
      <contour>
        <pt x="700" y="484" on="1"/>
        <pt x="630" y="484" on="1"/>
        <pt x="630" y="0" on="1"/>
        <pt x="458" y="0" on="1"/>
        <pt x="458" y="258" on="1"/>
        <pt x="264" y="258" on="1"/>
        <pt x="264" y="0" on="1"/>
        <pt x="92" y="0" on="1"/>
        <pt x="92" y="484" on="1"/>
        <pt x="22" y="484" on="1"/>
        <pt x="22" y="558" on="1"/>
        <pt x="92" y="564" on="1"/>
        <pt x="92" y="650" on="1"/>
        <pt x="264" y="650" on="1"/>
        <pt x="264" y="564" on="1"/>
        <pt x="458" y="564" on="1"/>
        <pt x="458" y="650" on="1"/>
        <pt x="630" y="650" on="1"/>
        <pt x="630" y="564" on="1"/>
        <pt x="700" y="564" on="1"/>
      </contour>
      <contour>
        <pt x="458" y="484" on="1"/>
        <pt x="264" y="484" on="1"/>
        <pt x="264" y="408" on="1"/>
        <pt x="458" y="408" on="1"/>
      </contour>
    </TTGlyph>
    <TTGlyph name="I" xMin="72" yMin="0" xMax="244" yMax="650">
      <contour>
        <pt x="72" y="650" on="1"/>
        <pt x="244" y="650" on="1"/>
        <pt x="244" y="0" on="1"/>
        <pt x="72" y="0" on="1"/>
      </contour>
    </TTGlyph>
    <TTGlyph name="Iacute" xMin="72" yMin="0" xMax="346" yMax="904">
      <component glyphName="I" x="0" y="0" flags="0x0"/>
      <component glyphName="acutecomb.cap" x="158" y="0" flags="0x0"/>
    </TTGlyph>
    <TTGlyph name="Icircumflex" xMin="-20" yMin="0" xMax="336" yMax="834">
      <component glyphName="I" x="0" y="0" flags="0x0"/>
      <component glyphName="uni0302.cap" x="158" y="0" flags="0x0"/>
    </TTGlyph>
    <TTGlyph name="Idieresis" xMin="-34" yMin="0" xMax="350" yMax="850">
      <component glyphName="I" x="0" y="0" flags="0x0"/>
      <component glyphName="uni0308.cap" x="158" y="0" flags="0x0"/>
    </TTGlyph>
    <TTGlyph name="Igrave" xMin="-30" yMin="0" xMax="244" yMax="904">
      <component glyphName="I" x="0" y="0" flags="0x0"/>
      <component glyphName="gravecomb.cap" x="158" y="0" flags="0x0"/>
    </TTGlyph>
    <TTGlyph name="Imacron" xMin="0" yMin="0" xMax="316" yMax="824">
      <component glyphName="I" x="0" y="0" flags="0x0"/>
      <component glyphName="uni0304.cap" x="158" y="0" flags="0x0"/>
    </TTGlyph>
    <TTGlyph name="J" xMin="10" yMin="-12" xMax="452" yMax="650">
      <contour>
        <pt x="153" y="-12" on="0"/>
        <pt x="46" y="48" on="0"/>
        <pt x="10" y="111" on="1"/>
        <pt x="126" y="198" on="1"/>
        <pt x="142" y="168" on="0"/>
        <pt x="186" y="136" on="0"/>
        <pt x="208" y="136" on="1"/>
        <pt x="245" y="136" on="0"/>
        <pt x="280" y="181" on="0"/>
        <pt x="280" y="240" on="1"/>
        <pt x="280" y="650" on="1"/>
        <pt x="452" y="650" on="1"/>
        <pt x="452" y="226" on="1"/>
        <pt x="452" y="159" on="0"/>
        <pt x="403" y="51" on="0"/>
        <pt x="304" y="-12" on="0"/>
        <pt x="232" y="-12" on="1"/>
      </contour>
    </TTGlyph>
    <TTGlyph name="K" xMin="72" yMin="0" xMax="638" yMax="650">
      <contour>
        <pt x="72" y="650" on="1"/>
        <pt x="244" y="650" on="1"/>
        <pt x="244" y="408" on="1"/>
        <pt x="248" y="408" on="1"/>
        <pt x="412" y="650" on="1"/>
        <pt x="600" y="650" on="1"/>
        <pt x="406" y="386" on="1"/>
        <pt x="638" y="0" on="1"/>
        <pt x="450" y="0" on="1"/>
        <pt x="306" y="250" on="1"/>
        <pt x="244" y="162" on="1"/>
        <pt x="244" y="0" on="1"/>
        <pt x="72" y="0" on="1"/>
      </contour>
    </TTGlyph>
    <TTGlyph name="L" xMin="72" yMin="0" xMax="490" yMax="650">
      <contour>
        <pt x="72" y="650" on="1"/>
        <pt x="244" y="650" on="1"/>
        <pt x="244" y="144" on="1"/>
        <pt x="490" y="144" on="1"/>
        <pt x="490" y="0" on="1"/>
        <pt x="72" y="0" on="1"/>
      </contour>
    </TTGlyph>
    <TTGlyph name="Lslash" xMin="-30" yMin="0" xMax="498" yMax="650">
      <contour>
        <pt x="498" y="144" on="1"/>
        <pt x="498" y="0" on="1"/>
        <pt x="80" y="0" on="1"/>
        <pt x="80" y="198" on="1"/>
        <pt x="28" y="166" on="1"/>
        <pt x="-30" y="268" on="1"/>
        <pt x="80" y="331" on="1"/>
        <pt x="80" y="650" on="1"/>
        <pt x="252" y="650" on="1"/>
        <pt x="252" y="410" on="1"/>
        <pt x="402" y="494" on="1"/>
        <pt x="460" y="392" on="1"/>
        <pt x="252" y="277" on="1"/>
        <pt x="252" y="144" on="1"/>
      </contour>
    </TTGlyph>
    <TTGlyph name="M" xMin="72" yMin="0" xMax="704" yMax="650">
      <contour>
        <pt x="72" y="650" on="1"/>
        <pt x="256" y="650" on="1"/>
        <pt x="354" y="384" on="1"/>
        <pt x="361" y="364" on="0"/>
        <pt x="373" y="322" on="1"/>
        <pt x="388" y="270" on="1"/>
        <pt x="392" y="270" on="1"/>
        <pt x="407" y="322" on="1"/>
        <pt x="419" y="364" on="0"/>
        <pt x="426" y="384" on="1"/>
        <pt x="520" y="650" on="1"/>
        <pt x="704" y="650" on="1"/>
        <pt x="704" y="0" on="1"/>
        <pt x="548" y="0" on="1"/>
        <pt x="548" y="192" on="1"/>
        <pt x="548" y="229" on="0"/>
        <pt x="560" y="346" on="0"/>
        <pt x="567" y="396" on="1"/>
        <pt x="570" y="424" on="1"/>
        <pt x="566" y="424" on="1"/>
        <pt x="512" y="268" on="1"/>
        <pt x="432" y="53" on="1"/>
        <pt x="340" y="53" on="1"/>
        <pt x="260" y="268" on="1"/>
        <pt x="208" y="424" on="1"/>
        <pt x="204" y="424" on="1"/>
        <pt x="207" y="396" on="1"/>
        <pt x="214" y="346" on="0"/>
        <pt x="226" y="229" on="0"/>
        <pt x="226" y="192" on="1"/>
        <pt x="226" y="0" on="1"/>
        <pt x="72" y="0" on="1"/>
      </contour>
    </TTGlyph>
    <TTGlyph name="N" xMin="72" yMin="0" xMax="600" yMax="650">
      <contour>
        <pt x="72" y="650" on="1"/>
        <pt x="248" y="650" on="1"/>
        <pt x="392" y="360" on="1"/>
        <pt x="454" y="214" on="1"/>
        <pt x="458" y="214" on="1"/>
        <pt x="457" y="225" on="0"/>
        <pt x="453" y="254" on="1"/>
        <pt x="436" y="392" on="0"/>
        <pt x="436" y="462" on="1"/>
        <pt x="436" y="650" on="1"/>
        <pt x="600" y="650" on="1"/>
        <pt x="600" y="0" on="1"/>
        <pt x="424" y="0" on="1"/>
        <pt x="280" y="291" on="1"/>
        <pt x="218" y="436" on="1"/>
        <pt x="214" y="436" on="1"/>
        <pt x="220" y="383" on="1"/>
        <pt x="236" y="257" on="0"/>
        <pt x="236" y="188" on="1"/>
        <pt x="236" y="0" on="1"/>
        <pt x="72" y="0" on="1"/>
      </contour>
    </TTGlyph>
    <TTGlyph name="Ntilde" xMin="72" yMin="0" xMax="600" yMax="856">
      <component glyphName="N" x="0" y="0" flags="0x0"/>
      <component glyphName="tildecomb.cap" x="336" y="0" flags="0x0"/>
    </TTGlyph>
    <TTGlyph name="O" xMin="44" yMin="-12" xMax="648" yMax="662">
      <contour>
        <pt x="256" y="-12" on="0"/>
        <pt x="119" y="69" on="0"/>
        <pt x="44" y="223" on="0"/>
        <pt x="44" y="328" on="1"/>
        <pt x="44" y="433" on="0"/>
        <pt x="119" y="584" on="0"/>
        <pt x="256" y="662" on="0"/>
        <pt x="346" y="662" on="1"/>
        <pt x="436" y="662" on="0"/>
        <pt x="573" y="583" on="0"/>
        <pt x="648" y="433" on="0"/>
        <pt x="648" y="328" on="1"/>
        <pt x="648" y="223" on="0"/>
        <pt x="573" y="69" on="0"/>
        <pt x="436" y="-12" on="0"/>
        <pt x="346" y="-12" on="1"/>
      </contour>
      <contour>
        <pt x="404" y="136" on="0"/>
        <pt x="472" y="239" on="0"/>
        <pt x="472" y="328" on="1"/>
        <pt x="472" y="416" on="0"/>
        <pt x="405" y="514" on="0"/>
        <pt x="346" y="514" on="1"/>
        <pt x="287" y="514" on="0"/>
        <pt x="220" y="416" on="0"/>
        <pt x="220" y="328" on="1"/>
        <pt x="220" y="239" on="0"/>
        <pt x="288" y="136" on="0"/>
        <pt x="346" y="136" on="1"/>
      </contour>
    </TTGlyph>
    <TTGlyph name="OE" xMin="44" yMin="0" xMax="826" yMax="650">
      <contour>
        <pt x="280" y="0" on="0"/>
        <pt x="132" y="70" on="0"/>
        <pt x="44" y="217" on="0"/>
        <pt x="44" y="328" on="1"/>
        <pt x="44" y="492" on="0"/>
        <pt x="231" y="650" on="0"/>
        <pt x="384" y="650" on="1"/>
        <pt x="816" y="650" on="1"/>
        <pt x="816" y="506" on="1"/>
        <pt x="580" y="506" on="1"/>
        <pt x="580" y="404" on="1"/>
        <pt x="780" y="404" on="1"/>
        <pt x="780" y="260" on="1"/>
        <pt x="580" y="260" on="1"/>
        <pt x="580" y="144" on="1"/>
        <pt x="826" y="144" on="1"/>
        <pt x="826" y="0" on="1"/>
        <pt x="374" y="0" on="1"/>
      </contour>
      <contour>
        <pt x="408" y="138" on="1"/>
        <pt x="408" y="512" on="1"/>
        <pt x="394" y="512" on="1"/>
        <pt x="311" y="512" on="0"/>
        <pt x="220" y="435" on="0"/>
        <pt x="220" y="328" on="1"/>
        <pt x="220" y="221" on="0"/>
        <pt x="312" y="138" on="0"/>
        <pt x="394" y="138" on="1"/>
      </contour>
    </TTGlyph>
    <TTGlyph name="Oacute" xMin="44" yMin="-12" xMax="648" yMax="904">
      <component glyphName="O" x="0" y="0" flags="0x0"/>
      <component glyphName="acutecomb.cap" x="346" y="0" flags="0x0"/>
    </TTGlyph>
    <TTGlyph name="Obreve" xMin="44" yMin="-12" xMax="648" yMax="850">
      <component glyphName="O" x="0" y="0" flags="0x0"/>
      <component glyphName="uni0306.cap" x="346" y="0" flags="0x0"/>
    </TTGlyph>
    <TTGlyph name="Ocircumflex" xMin="44" yMin="-12" xMax="648" yMax="834">
      <component glyphName="O" x="0" y="0" flags="0x0"/>
      <component glyphName="uni0302.cap" x="346" y="0" flags="0x0"/>
    </TTGlyph>
    <TTGlyph name="Odieresis" xMin="44" yMin="-12" xMax="648" yMax="850">
      <component glyphName="O" x="0" y="0" flags="0x0"/>
      <component glyphName="uni0308.cap" x="346" y="0" flags="0x0"/>
    </TTGlyph>
    <TTGlyph name="Ograve" xMin="44" yMin="-12" xMax="648" yMax="904">
      <component glyphName="O" x="0" y="0" flags="0x0"/>
      <component glyphName="gravecomb.cap" x="346" y="0" flags="0x0"/>
    </TTGlyph>
    <TTGlyph name="Omacron" xMin="44" yMin="-12" xMax="648" yMax="824">
      <component glyphName="O" x="0" y="0" flags="0x0"/>
      <component glyphName="uni0304.cap" x="346" y="0" flags="0x0"/>
    </TTGlyph>
    <TTGlyph name="Oslash" xMin="36" yMin="-46" xMax="676" yMax="696">
      <contour>
        <pt x="597" y="532" on="1"/>
        <pt x="648" y="450" on="0"/>
        <pt x="648" y="328" on="1"/>
        <pt x="648" y="223" on="0"/>
        <pt x="573" y="69" on="0"/>
        <pt x="436" y="-12" on="0"/>
        <pt x="346" y="-12" on="1"/>
        <pt x="254" y="-12" on="0"/>
        <pt x="186" y="30" on="1"/>
        <pt x="124" y="-46" on="1"/>
        <pt x="36" y="22" on="1"/>
        <pt x="105" y="106" on="1"/>
        <pt x="44" y="194" on="0"/>
        <pt x="44" y="328" on="1"/>
        <pt x="44" y="433" on="0"/>
        <pt x="119" y="584" on="0"/>
        <pt x="256" y="662" on="0"/>
        <pt x="346" y="662" on="1"/>
        <pt x="446" y="662" on="0"/>
        <pt x="520" y="613" on="1"/>
        <pt x="588" y="696" on="1"/>
        <pt x="676" y="628" on="1"/>
      </contour>
      <contour>
        <pt x="220" y="286" on="0"/>
        <pt x="227" y="255" on="1"/>
        <pt x="418" y="488" on="1"/>
        <pt x="387" y="514" on="0"/>
        <pt x="346" y="514" on="1"/>
        <pt x="287" y="514" on="0"/>
        <pt x="220" y="416" on="0"/>
        <pt x="220" y="328" on="1"/>
      </contour>
      <contour>
        <pt x="472" y="354" on="0"/>
        <pt x="469" y="375" on="1"/>
        <pt x="287" y="153" on="1"/>
        <pt x="313" y="136" on="0"/>
        <pt x="346" y="136" on="1"/>
        <pt x="404" y="136" on="0"/>
        <pt x="472" y="239" on="0"/>
        <pt x="472" y="328" on="1"/>
      </contour>
    </TTGlyph>
    <TTGlyph name="Otilde" xMin="44" yMin="-12" xMax="648" yMax="856">
      <component glyphName="O" x="0" y="0" flags="0x0"/>
      <component glyphName="tildecomb.cap" x="346" y="0" flags="0x0"/>
    </TTGlyph>
    <TTGlyph name="P" xMin="72" yMin="0" xMax="574" yMax="650">
      <contour>
        <pt x="72" y="650" on="1"/>
        <pt x="310" y="650" on="1"/>
        <pt x="428" y="650" on="0"/>
        <pt x="574" y="549" on="0"/>
        <pt x="574" y="434" on="1"/>
        <pt x="574" y="358" on="0"/>
        <pt x="503" y="255" on="0"/>
        <pt x="385" y="206" on="0"/>
        <pt x="314" y="206" on="1"/>
        <pt x="244" y="206" on="1"/>
        <pt x="244" y="0" on="1"/>
        <pt x="72" y="0" on="1"/>
      </contour>
      <contour>
        <pt x="306" y="342" on="1"/>
        <pt x="356" y="342" on="0"/>
        <pt x="406" y="390" on="0"/>
        <pt x="406" y="434" on="1"/>
        <pt x="406" y="476" on="0"/>
        <pt x="353" y="514" on="0"/>
        <pt x="302" y="514" on="1"/>
        <pt x="244" y="514" on="1"/>
        <pt x="244" y="342" on="1"/>
      </contour>
    </TTGlyph>
    <TTGlyph name="Q" xMin="44" yMin="-188" xMax="690" yMax="662">
      <contour>
        <pt x="690" y="-164" on="1"/>
        <pt x="645" y="-188" on="0"/>
        <pt x="566" y="-188" on="1"/>
        <pt x="460" y="-188" on="0"/>
        <pt x="307" y="-88" on="0"/>
        <pt x="268" y="-3" on="1"/>
        <pt x="164" y="21" on="0"/>
        <pt x="44" y="194" on="0"/>
        <pt x="44" y="328" on="1"/>
        <pt x="44" y="433" on="0"/>
        <pt x="119" y="584" on="0"/>
        <pt x="256" y="662" on="0"/>
        <pt x="346" y="662" on="1"/>
        <pt x="436" y="662" on="0"/>
        <pt x="573" y="583" on="0"/>
        <pt x="648" y="433" on="0"/>
        <pt x="648" y="328" on="1"/>
        <pt x="648" y="203" on="0"/>
        <pt x="542" y="35" on="0"/>
        <pt x="449" y="4" on="1"/>
        <pt x="470" y="-25" on="0"/>
        <pt x="545" y="-52" on="0"/>
        <pt x="586" y="-52" on="1"/>
        <pt x="626" y="-52" on="0"/>
        <pt x="660" y="-40" on="1"/>
      </contour>
      <contour>
        <pt x="287" y="514" on="0"/>
        <pt x="220" y="416" on="0"/>
        <pt x="220" y="328" on="1"/>
        <pt x="220" y="233" on="0"/>
        <pt x="287" y="128" on="0"/>
        <pt x="346" y="128" on="1"/>
        <pt x="405" y="128" on="0"/>
        <pt x="472" y="233" on="0"/>
        <pt x="472" y="328" on="1"/>
        <pt x="472" y="416" on="0"/>
        <pt x="405" y="514" on="0"/>
        <pt x="346" y="514" on="1"/>
      </contour>
    </TTGlyph>
    <TTGlyph name="R" xMin="72" yMin="0" xMax="614" yMax="650">
      <contour>
        <pt x="422" y="0" on="1"/>
        <pt x="310" y="218" on="1"/>
        <pt x="244" y="218" on="1"/>
        <pt x="244" y="0" on="1"/>
        <pt x="72" y="0" on="1"/>
        <pt x="72" y="650" on="1"/>
        <pt x="318" y="650" on="1"/>
        <pt x="435" y="650" on="0"/>
        <pt x="578" y="553" on="0"/>
        <pt x="578" y="440" on="1"/>
        <pt x="578" y="373" on="0"/>
        <pt x="522" y="279" on="0"/>
        <pt x="473" y="252" on="1"/>
        <pt x="614" y="0" on="1"/>
      </contour>
      <contour>
        <pt x="244" y="354" on="1"/>
        <pt x="306" y="354" on="1"/>
        <pt x="357" y="354" on="0"/>
        <pt x="410" y="398" on="0"/>
        <pt x="410" y="440" on="1"/>
        <pt x="410" y="481" on="0"/>
        <pt x="359" y="514" on="0"/>
        <pt x="306" y="514" on="1"/>
        <pt x="244" y="514" on="1"/>
      </contour>
    </TTGlyph>
    <TTGlyph name="S" xMin="32" yMin="-12" xMax="532" yMax="662">
      <contour>
        <pt x="214" y="-12" on="0"/>
        <pt x="83" y="35" on="0"/>
        <pt x="32" y="81" on="1"/>
        <pt x="130" y="199" on="1"/>
        <pt x="165" y="171" on="0"/>
        <pt x="247" y="136" on="0"/>
        <pt x="282" y="136" on="1"/>
        <pt x="356" y="136" on="0"/>
        <pt x="356" y="182" on="1"/>
        <pt x="356" y="197" on="0"/>
        <pt x="336" y="216" on="0"/>
        <pt x="294" y="235" on="0"/>
        <pt x="268" y="245" on="1"/>
        <pt x="187" y="279" on="1"/>
        <pt x="129" y="302" on="0"/>
        <pt x="56" y="394" on="0"/>
        <pt x="56" y="460" on="1"/>
        <pt x="56" y="515" on="0"/>
        <pt x="118" y="608" on="0"/>
        <pt x="229" y="662" on="0"/>
        <pt x="298" y="662" on="1"/>
        <pt x="356" y="662" on="0"/>
        <pt x="471" y="618" on="0"/>
        <pt x="514" y="575" on="1"/>
        <pt x="428" y="467" on="1"/>
        <pt x="394" y="491" on="0"/>
        <pt x="333" y="514" on="0"/>
        <pt x="298" y="514" on="1"/>
        <pt x="266" y="514" on="0"/>
        <pt x="230" y="491" on="0"/>
        <pt x="230" y="470" on="1"/>
        <pt x="230" y="455" on="0"/>
        <pt x="252" y="435" on="0"/>
        <pt x="298" y="415" on="0"/>
        <pt x="326" y="405" on="1"/>
        <pt x="405" y="374" on="1"/>
        <pt x="532" y="324" on="0"/>
        <pt x="532" y="196" on="1"/>
        <pt x="532" y="140" on="0"/>
        <pt x="471" y="45" on="0"/>
        <pt x="356" y="-12" on="0"/>
        <pt x="278" y="-12" on="1"/>
      </contour>
    </TTGlyph>
    <TTGlyph name="Sacute" xMin="32" yMin="-12" xMax="532" yMax="904">
      <component glyphName="S" x="0" y="0" flags="0x0"/>
      <component glyphName="acutecomb.cap" x="296" y="0" flags="0x0"/>
    </TTGlyph>
    <TTGlyph name="Scaron" xMin="32" yMin="-12" xMax="532" yMax="854">
      <component glyphName="S" x="0" y="0" flags="0x0"/>
      <component glyphName="uni030C.cap" x="296" y="0" flags="0x0"/>
    </TTGlyph>
    <TTGlyph name="T" xMin="24" yMin="0" xMax="540" yMax="650">
      <contour>
        <pt x="196" y="506" on="1"/>
        <pt x="24" y="506" on="1"/>
        <pt x="24" y="650" on="1"/>
        <pt x="540" y="650" on="1"/>
        <pt x="540" y="506" on="1"/>
        <pt x="368" y="506" on="1"/>
        <pt x="368" y="0" on="1"/>
        <pt x="196" y="0" on="1"/>
      </contour>
    </TTGlyph>
    <TTGlyph name="Thorn" xMin="72" yMin="0" xMax="584" yMax="650">
      <contour>
        <pt x="72" y="650" on="1"/>
        <pt x="244" y="650" on="1"/>
        <pt x="244" y="556" on="1"/>
        <pt x="324" y="556" on="1"/>
        <pt x="441" y="556" on="0"/>
        <pt x="584" y="455" on="0"/>
        <pt x="584" y="340" on="1"/>
        <pt x="584" y="264" on="0"/>
        <pt x="513" y="161" on="0"/>
        <pt x="395" y="112" on="0"/>
        <pt x="324" y="112" on="1"/>
        <pt x="244" y="112" on="1"/>
        <pt x="244" y="0" on="1"/>
        <pt x="72" y="0" on="1"/>
      </contour>
      <contour>
        <pt x="316" y="248" on="1"/>
        <pt x="366" y="248" on="0"/>
        <pt x="416" y="296" on="0"/>
        <pt x="416" y="340" on="1"/>
        <pt x="416" y="382" on="0"/>
        <pt x="366" y="420" on="0"/>
        <pt x="316" y="420" on="1"/>
        <pt x="244" y="420" on="1"/>
        <pt x="244" y="248" on="1"/>
      </contour>
    </TTGlyph>
    <TTGlyph name="U" xMin="68" yMin="-12" xMax="604" yMax="650">
      <contour>
        <pt x="201" y="-12" on="0"/>
        <pt x="68" y="148" on="0"/>
        <pt x="68" y="314" on="1"/>
        <pt x="68" y="650" on="1"/>
        <pt x="240" y="650" on="1"/>
        <pt x="240" y="294" on="1"/>
        <pt x="240" y="208" on="0"/>
        <pt x="286" y="136" on="0"/>
        <pt x="338" y="136" on="1"/>
        <pt x="390" y="136" on="0"/>
        <pt x="438" y="209" on="0"/>
        <pt x="438" y="294" on="1"/>
        <pt x="438" y="650" on="1"/>
        <pt x="604" y="650" on="1"/>
        <pt x="604" y="314" on="1"/>
        <pt x="604" y="147" on="0"/>
        <pt x="474" y="-12" on="0"/>
        <pt x="338" y="-12" on="1"/>
      </contour>
    </TTGlyph>
    <TTGlyph name="Uacute" xMin="68" yMin="-12" xMax="604" yMax="904">
      <component glyphName="U" x="0" y="0" flags="0x0"/>
      <component glyphName="acutecomb.cap" x="336" y="0" flags="0x0"/>
    </TTGlyph>
    <TTGlyph name="Ucircumflex" xMin="68" yMin="-12" xMax="604" yMax="834">
      <component glyphName="U" x="0" y="0" flags="0x0"/>
      <component glyphName="uni0302.cap" x="336" y="0" flags="0x0"/>
    </TTGlyph>
    <TTGlyph name="Udieresis" xMin="68" yMin="-12" xMax="604" yMax="850">
      <component glyphName="U" x="0" y="0" flags="0x0"/>
      <component glyphName="uni0308.cap" x="336" y="0" flags="0x0"/>
    </TTGlyph>
    <TTGlyph name="Ugrave" xMin="68" yMin="-12" xMax="604" yMax="904">
      <component glyphName="U" x="0" y="0" flags="0x0"/>
      <component glyphName="gravecomb.cap" x="336" y="0" flags="0x0"/>
    </TTGlyph>
    <TTGlyph name="Umacron" xMin="68" yMin="-12" xMax="604" yMax="824">
      <component glyphName="U" x="0" y="0" flags="0x0"/>
      <component glyphName="uni0304.cap" x="336" y="0" flags="0x0"/>
    </TTGlyph>
    <TTGlyph name="V" xMin="-10" yMin="0" xMax="582" yMax="650">
      <contour>
        <pt x="-10" y="650" on="1"/>
        <pt x="172" y="650" on="1"/>
        <pt x="240" y="366" on="1"/>
        <pt x="253" y="314" on="0"/>
        <pt x="264" y="261" on="1"/>
        <pt x="269" y="242" on="0"/>
        <pt x="280" y="192" on="0"/>
        <pt x="288" y="160" on="1"/>
        <pt x="292" y="160" on="1"/>
        <pt x="301" y="195" on="0"/>
        <pt x="314" y="252" on="0"/>
        <pt x="319" y="273" on="1"/>
        <pt x="328" y="319" on="0"/>
        <pt x="340" y="366" on="1"/>
        <pt x="406" y="650" on="1"/>
        <pt x="582" y="650" on="1"/>
        <pt x="390" y="0" on="1"/>
        <pt x="182" y="0" on="1"/>
      </contour>
    </TTGlyph>
    <TTGlyph name="W" xMin="10" yMin="0" xMax="814" yMax="650">
      <contour>
        <pt x="10" y="650" on="1"/>
        <pt x="186" y="650" on="1"/>
        <pt x="222" y="366" on="1"/>
        <pt x="244" y="162" on="1"/>
        <pt x="248" y="162" on="1"/>
        <pt x="284" y="366" on="1"/>
        <pt x="346" y="650" on="1"/>
        <pt x="490" y="650" on="1"/>
        <pt x="552" y="366" on="1"/>
        <pt x="582" y="197" on="1"/>
        <pt x="588" y="162" on="1"/>
        <pt x="592" y="162" on="1"/>
        <pt x="614" y="366" on="1"/>
        <pt x="650" y="650" on="1"/>
        <pt x="814" y="650" on="1"/>
        <pt x="706" y="0" on="1"/>
        <pt x="488" y="0" on="1"/>
        <pt x="438" y="258" on="1"/>
        <pt x="425" y="325" on="0"/>
        <pt x="414" y="410" on="1"/>
        <pt x="410" y="410" on="1"/>
        <pt x="406" y="382" on="1"/>
        <pt x="393" y="293" on="0"/>
        <pt x="386" y="258" on="1"/>
        <pt x="338" y="0" on="1"/>
        <pt x="124" y="0" on="1"/>
      </contour>
    </TTGlyph>
    <TTGlyph name="X" xMin="10" yMin="0" xMax="578" yMax="650">
      <contour>
        <pt x="186" y="334" on="1"/>
        <pt x="20" y="650" on="1"/>
        <pt x="212" y="650" on="1"/>
        <pt x="256" y="544" on="1"/>
        <pt x="264" y="526" on="0"/>
        <pt x="277" y="494" on="0"/>
        <pt x="283" y="481" on="1"/>
        <pt x="302" y="436" on="1"/>
        <pt x="306" y="436" on="1"/>
        <pt x="322" y="484" on="0"/>
        <pt x="346" y="544" on="1"/>
        <pt x="384" y="650" on="1"/>
        <pt x="568" y="650" on="1"/>
        <pt x="402" y="326" on="1"/>
        <pt x="578" y="0" on="1"/>
        <pt x="386" y="0" on="1"/>
        <pt x="334" y="116" on="1"/>
        <pt x="315" y="156" on="0"/>
        <pt x="288" y="224" on="1"/>
        <pt x="284" y="224" on="1"/>
        <pt x="270" y="184" on="0"/>
        <pt x="242" y="116" on="1"/>
        <pt x="194" y="0" on="1"/>
        <pt x="10" y="0" on="1"/>
      </contour>
    </TTGlyph>
    <TTGlyph name="Y" xMin="-10" yMin="0" xMax="554" yMax="650">
      <contour>
        <pt x="186" y="224" on="1"/>
        <pt x="-10" y="650" on="1"/>
        <pt x="174" y="650" on="1"/>
        <pt x="222" y="514" on="1"/>
        <pt x="249" y="433" on="1"/>
        <pt x="254" y="420" on="0"/>
        <pt x="265" y="388" on="0"/>
        <pt x="271" y="369" on="1"/>
        <pt x="275" y="369" on="1"/>
        <pt x="290" y="414" on="0"/>
        <pt x="306" y="456" on="1"/>
        <pt x="309" y="465" on="0"/>
        <pt x="326" y="514" on="1"/>
        <pt x="374" y="650" on="1"/>
        <pt x="554" y="650" on="1"/>
        <pt x="358" y="224" on="1"/>
        <pt x="358" y="0" on="1"/>
        <pt x="186" y="0" on="1"/>
      </contour>
    </TTGlyph>
    <TTGlyph name="Yacute" xMin="-10" yMin="0" xMax="554" yMax="904">
      <component glyphName="Y" x="0" y="0" flags="0x0"/>
      <component glyphName="acutecomb.cap" x="272" y="0" flags="0x0"/>
    </TTGlyph>
    <TTGlyph name="Ydieresis" xMin="-10" yMin="0" xMax="554" yMax="850">
      <component glyphName="Y" x="0" y="0" flags="0x0"/>
      <component glyphName="uni0308.cap" x="272" y="0" flags="0x0"/>
    </TTGlyph>
    <TTGlyph name="Z" xMin="32" yMin="0" xMax="512" yMax="650">
      <contour>
        <pt x="32" y="104" on="1"/>
        <pt x="298" y="506" on="1"/>
        <pt x="58" y="506" on="1"/>
        <pt x="58" y="650" on="1"/>
        <pt x="510" y="650" on="1"/>
        <pt x="510" y="546" on="1"/>
        <pt x="244" y="144" on="1"/>
        <pt x="512" y="144" on="1"/>
        <pt x="512" y="0" on="1"/>
        <pt x="32" y="0" on="1"/>
      </contour>
    </TTGlyph>
    <TTGlyph name="ZWJ" xMin="-150" yMin="785" xMax="151" yMax="894">
      <contour>
        <pt x="-150" y="894" on="1"/>
        <pt x="151" y="894" on="1"/>
        <pt x="151" y="785" on="1"/>
        <pt x="117" y="785" on="1"/>
        <pt x="117" y="858" on="1"/>
        <pt x="-116" y="858" on="1"/>
        <pt x="-116" y="785" on="1"/>
        <pt x="-150" y="785" on="1"/>
      </contour>
    </TTGlyph>
    <TTGlyph name="ZWNJ" xMin="-104" yMin="767" xMax="103" yMax="984">
      <contour>
        <pt x="-104" y="792" on="1"/>
        <pt x="-26" y="875" on="1"/>
        <pt x="-104" y="957" on="1"/>
        <pt x="-81" y="984" on="1"/>
        <pt x="0" y="900" on="1"/>
        <pt x="79" y="982" on="1"/>
        <pt x="103" y="957" on="1"/>
        <pt x="24" y="875" on="1"/>
        <pt x="103" y="792" on="1"/>
        <pt x="79" y="768" on="1"/>
        <pt x="0" y="848" on="1"/>
        <pt x="-81" y="767" on="1"/>
      </contour>
    </TTGlyph>
    <TTGlyph name="Zcaron" xMin="32" yMin="0" xMax="512" yMax="854">
      <component glyphName="Z" x="0" y="0" flags="0x0"/>
      <component glyphName="uni030C.cap" x="284" y="0" flags="0x0"/>
    </TTGlyph>
    <TTGlyph name="a" xMin="38" yMin="-12" xMax="482" yMax="512">
      <contour>
        <pt x="143" y="-12" on="0"/>
        <pt x="74" y="30" on="0"/>
        <pt x="38" y="100" on="0"/>
        <pt x="38" y="142" on="1"/>
        <pt x="38" y="221" on="0"/>
        <pt x="167" y="309" on="0"/>
        <pt x="310" y="324" on="1"/>
        <pt x="307" y="351" on="0"/>
        <pt x="273" y="376" on="0"/>
        <pt x="240" y="376" on="1"/>
        <pt x="214" y="376" on="0"/>
        <pt x="154" y="356" on="0"/>
        <pt x="114" y="334" on="1"/>
        <pt x="54" y="446" on="1"/>
        <pt x="164" y="512" on="0"/>
        <pt x="274" y="512" on="1"/>
        <pt x="482" y="512" on="0"/>
        <pt x="482" y="278" on="1"/>
        <pt x="482" y="0" on="1"/>
        <pt x="342" y="0" on="1"/>
        <pt x="330" y="48" on="1"/>
        <pt x="326" y="48" on="1"/>
        <pt x="259" y="-12" on="0"/>
        <pt x="188" y="-12" on="1"/>
      </contour>
      <contour>
        <pt x="267" y="120" on="0"/>
        <pt x="294" y="137" on="0"/>
        <pt x="310" y="154" on="1"/>
        <pt x="310" y="222" on="1"/>
        <pt x="202" y="206" on="0"/>
        <pt x="202" y="156" on="1"/>
        <pt x="202" y="139" on="0"/>
        <pt x="226" y="120" on="0"/>
        <pt x="248" y="120" on="1"/>
      </contour>
    </TTGlyph>
    <TTGlyph name="a.sups" xMin="26" yMin="360" xMax="328" yMax="708">
      <contour>
        <pt x="82" y="360" on="0"/>
        <pt x="26" y="420" on="0"/>
        <pt x="26" y="462" on="1"/>
        <pt x="26" y="515" on="0"/>
        <pt x="113" y="573" on="0"/>
        <pt x="208" y="582" on="1"/>
        <pt x="206" y="599" on="0"/>
        <pt x="185" y="614" on="0"/>
        <pt x="164" y="614" on="1"/>
        <pt x="132" y="614" on="0"/>
        <pt x="78" y="586" on="1"/>
        <pt x="36" y="664" on="1"/>
        <pt x="111" y="708" on="0"/>
        <pt x="186" y="708" on="1"/>
        <pt x="253" y="708" on="0"/>
        <pt x="328" y="631" on="0"/>
        <pt x="328" y="554" on="1"/>
        <pt x="328" y="368" on="1"/>
        <pt x="232" y="368" on="1"/>
        <pt x="222" y="400" on="1"/>
        <pt x="218" y="400" on="1"/>
        <pt x="178" y="360" on="0"/>
        <pt x="128" y="360" on="1"/>
      </contour>
      <contour>
        <pt x="181" y="450" on="0"/>
        <pt x="198" y="460" on="0"/>
        <pt x="208" y="470" on="1"/>
        <pt x="208" y="514" on="1"/>
        <pt x="140" y="506" on="0"/>
        <pt x="140" y="472" on="1"/>
        <pt x="140" y="450" on="0"/>
        <pt x="169" y="450" on="1"/>
      </contour>
    </TTGlyph>
    <TTGlyph name="aacute" xMin="38" yMin="-12" xMax="500" yMax="844">
      <component glyphName="a" x="0" y="0" flags="0x0"/>
      <component glyphName="acutecomb" x="290" y="0" flags="0x0"/>
    </TTGlyph>
    <TTGlyph name="abreve" xMin="38" yMin="-12" xMax="482" yMax="748">
      <component glyphName="a" x="0" y="0" flags="0x0"/>
      <component glyphName="uni0306" x="290" y="0" flags="0x0"/>
    </TTGlyph>
    <TTGlyph name="acircumflex" xMin="38" yMin="-12" xMax="484" yMax="746">
      <component glyphName="a" x="0" y="0" flags="0x0"/>
      <component glyphName="uni0302" x="290" y="0" flags="0x0"/>
    </TTGlyph>
    <TTGlyph name="acute" xMin="216" yMin="572" xMax="490" yMax="844">
      <component glyphName="acutecomb" x="280" y="0" flags="0x0"/>
    </TTGlyph>
    <TTGlyph name="acutecomb" xMin="-64" yMin="572" xMax="210" yMax="844">
      <contour>
        <pt x="-64" y="656" on="1"/>
        <pt x="94" y="844" on="1"/>
        <pt x="210" y="730" on="1"/>
        <pt x="20" y="572" on="1"/>
      </contour>
    </TTGlyph>
    <TTGlyph name="acutecomb.cap" xMin="-84" yMin="674" xMax="188" yMax="904">
      <contour>
        <pt x="-84" y="760" on="1"/>
        <pt x="98" y="904" on="1"/>
        <pt x="188" y="794" on="1"/>
        <pt x="-8" y="674" on="1"/>
      </contour>
    </TTGlyph>
    <TTGlyph name="adieresis" xMin="38" yMin="-12" xMax="484" yMax="722">
      <component glyphName="a" x="0" y="0" flags="0x0"/>
      <component glyphName="uni0308" x="290" y="0" flags="0x0"/>
    </TTGlyph>
    <TTGlyph name="ae" xMin="42" yMin="-12" xMax="750" yMax="512">
      <contour>
        <pt x="147" y="-12" on="0"/>
        <pt x="78" y="30" on="0"/>
        <pt x="42" y="100" on="0"/>
        <pt x="42" y="142" on="1"/>
        <pt x="42" y="221" on="0"/>
        <pt x="170" y="310" on="0"/>
        <pt x="312" y="325" on="1"/>
        <pt x="309" y="352" on="0"/>
        <pt x="277" y="376" on="0"/>
        <pt x="244" y="376" on="1"/>
        <pt x="218" y="376" on="0"/>
        <pt x="158" y="356" on="0"/>
        <pt x="118" y="334" on="1"/>
        <pt x="58" y="446" on="1"/>
        <pt x="168" y="512" on="0"/>
        <pt x="268" y="512" on="1"/>
        <pt x="311" y="512" on="0"/>
        <pt x="382" y="479" on="0"/>
        <pt x="406" y="448" on="1"/>
        <pt x="440" y="481" on="0"/>
        <pt x="507" y="512" on="0"/>
        <pt x="548" y="512" on="1"/>
        <pt x="614" y="512" on="0"/>
        <pt x="705" y="446" on="0"/>
        <pt x="750" y="335" on="0"/>
        <pt x="750" y="266" on="1"/>
        <pt x="750" y="226" on="0"/>
        <pt x="743" y="198" on="1"/>
        <pt x="468" y="198" on="1"/>
        <pt x="487" y="122" on="0"/>
        <pt x="574" y="122" on="1"/>
        <pt x="598" y="122" on="0"/>
        <pt x="643" y="139" on="0"/>
        <pt x="674" y="156" on="1"/>
        <pt x="732" y="46" on="1"/>
        <pt x="693" y="18" on="0"/>
        <pt x="594" y="-12" on="0"/>
        <pt x="550" y="-12" on="1"/>
        <pt x="449" y="-12" on="0"/>
        <pt x="380" y="60" on="1"/>
        <pt x="327" y="19" on="0"/>
        <pt x="243" y="-12" on="0"/>
        <pt x="192" y="-12" on="1"/>
      </contour>
      <contour>
        <pt x="604" y="302" on="1"/>
        <pt x="604" y="338" on="0"/>
        <pt x="574" y="382" on="0"/>
        <pt x="542" y="382" on="1"/>
        <pt x="479" y="382" on="0"/>
        <pt x="468" y="302" on="1"/>
      </contour>
      <contour>
        <pt x="291" y="120" on="0"/>
        <pt x="324" y="150" on="1"/>
        <pt x="315" y="177" on="0"/>
        <pt x="312" y="203" on="1"/>
        <pt x="310" y="222" on="1"/>
        <pt x="206" y="205" on="0"/>
        <pt x="206" y="156" on="1"/>
        <pt x="206" y="139" on="0"/>
        <pt x="230" y="120" on="0"/>
        <pt x="252" y="120" on="1"/>
      </contour>
    </TTGlyph>
    <TTGlyph name="agrave" xMin="38" yMin="-12" xMax="482" yMax="844">
      <component glyphName="a" x="0" y="0" flags="0x0"/>
      <component glyphName="gravecomb" x="290" y="0" flags="0x0"/>
    </TTGlyph>
    <TTGlyph name="alphalatin" xMin="36" yMin="-12" xMax="554" yMax="512">
      <contour>
        <pt x="178" y="-12" on="0"/>
        <pt x="86" y="52" on="0"/>
        <pt x="36" y="170" on="0"/>
        <pt x="36" y="250" on="1"/>
        <pt x="36" y="329" on="0"/>
        <pt x="96" y="448" on="0"/>
        <pt x="192" y="512" on="0"/>
        <pt x="244" y="512" on="1"/>
        <pt x="281" y="512" on="0"/>
        <pt x="342" y="482" on="0"/>
        <pt x="370" y="450" on="1"/>
        <pt x="374" y="450" on="1"/>
        <pt x="388" y="500" on="1"/>
        <pt x="522" y="500" on="1"/>
        <pt x="522" y="160" on="1"/>
        <pt x="522" y="126" on="0"/>
        <pt x="542" y="126" on="1"/>
        <pt x="548" y="126" on="0"/>
        <pt x="554" y="128" on="1"/>
        <pt x="550" y="0" on="1"/>
        <pt x="526" y="-12" on="0"/>
        <pt x="484" y="-12" on="1"/>
        <pt x="445" y="-12" on="0"/>
        <pt x="390" y="22" on="0"/>
        <pt x="376" y="52" on="1"/>
        <pt x="372" y="52" on="1"/>
        <pt x="348" y="25" on="0"/>
        <pt x="274" y="-12" on="0"/>
        <pt x="240" y="-12" on="1"/>
      </contour>
      <contour>
        <pt x="307" y="128" on="0"/>
        <pt x="337" y="144" on="0"/>
        <pt x="350" y="164" on="1"/>
        <pt x="350" y="348" on="1"/>
        <pt x="323" y="372" on="0"/>
        <pt x="282" y="372" on="1"/>
        <pt x="252" y="372" on="0"/>
        <pt x="212" y="314" on="0"/>
        <pt x="212" y="252" on="1"/>
        <pt x="212" y="187" on="0"/>
        <pt x="250" y="128" on="0"/>
        <pt x="286" y="128" on="1"/>
      </contour>
    </TTGlyph>
    <TTGlyph name="amacron" xMin="38" yMin="-12" xMax="482" yMax="696">
      <component glyphName="a" x="0" y="0" flags="0x0"/>
      <component glyphName="uni0304" x="290" y="0" flags="0x0"/>
    </TTGlyph>
    <TTGlyph name="ampersand" xMin="22" yMin="-12" xMax="670" yMax="662">
      <contour>
        <pt x="630" y="-12" on="1"/>
        <pt x="546" y="3" on="0"/>
        <pt x="456" y="51" on="1"/>
        <pt x="364" y="-12" on="0"/>
        <pt x="246" y="-12" on="1"/>
        <pt x="174" y="-12" on="0"/>
        <pt x="72" y="40" on="0"/>
        <pt x="22" y="125" on="0"/>
        <pt x="22" y="176" on="1"/>
        <pt x="22" y="239" on="0"/>
        <pt x="84" y="324" on="0"/>
        <pt x="137" y="357" on="1"/>
        <pt x="98" y="427" on="0"/>
        <pt x="98" y="486" on="1"/>
        <pt x="98" y="533" on="0"/>
        <pt x="144" y="614" on="0"/>
        <pt x="230" y="662" on="0"/>
        <pt x="286" y="662" on="1"/>
        <pt x="364" y="662" on="0"/>
        <pt x="458" y="578" on="0"/>
        <pt x="458" y="508" on="1"/>
        <pt x="458" y="450" on="0"/>
        <pt x="388" y="366" on="0"/>
        <pt x="328" y="327" on="1"/>
        <pt x="374" y="278" on="0"/>
        <pt x="442" y="230" on="1"/>
        <pt x="491" y="295" on="0"/>
        <pt x="512" y="374" on="1"/>
        <pt x="668" y="374" on="1"/>
        <pt x="632" y="255" on="0"/>
        <pt x="562" y="161" on="1"/>
        <pt x="621" y="132" on="0"/>
        <pt x="670" y="126" on="1"/>
      </contour>
      <contour>
        <pt x="239" y="456" on="0"/>
        <pt x="257" y="421" on="1"/>
        <pt x="292" y="441" on="0"/>
        <pt x="328" y="482" on="0"/>
        <pt x="328" y="508" on="1"/>
        <pt x="328" y="550" on="0"/>
        <pt x="290" y="550" on="1"/>
        <pt x="269" y="550" on="0"/>
        <pt x="239" y="516" on="0"/>
        <pt x="239" y="486" on="1"/>
      </contour>
      <contour>
        <pt x="184" y="156" on="0"/>
        <pt x="229" y="118" on="0"/>
        <pt x="268" y="118" on="1"/>
        <pt x="297" y="118" on="0"/>
        <pt x="332" y="134" on="1"/>
        <pt x="264" y="188" on="0"/>
        <pt x="214" y="247" on="1"/>
        <pt x="184" y="215" on="0"/>
        <pt x="184" y="186" on="1"/>
      </contour>
    </TTGlyph>
    <TTGlyph name="ampersand.lat" xMin="22" yMin="-12" xMax="670" yMax="662">
      <contour>
        <pt x="630" y="-12" on="1"/>
        <pt x="546" y="3" on="0"/>
        <pt x="456" y="51" on="1"/>
        <pt x="364" y="-12" on="0"/>
        <pt x="246" y="-12" on="1"/>
        <pt x="174" y="-12" on="0"/>
        <pt x="72" y="40" on="0"/>
        <pt x="22" y="125" on="0"/>
        <pt x="22" y="176" on="1"/>
        <pt x="22" y="239" on="0"/>
        <pt x="84" y="324" on="0"/>
        <pt x="137" y="357" on="1"/>
        <pt x="98" y="427" on="0"/>
        <pt x="98" y="486" on="1"/>
        <pt x="98" y="533" on="0"/>
        <pt x="144" y="614" on="0"/>
        <pt x="230" y="662" on="0"/>
        <pt x="286" y="662" on="1"/>
        <pt x="364" y="662" on="0"/>
        <pt x="458" y="578" on="0"/>
        <pt x="458" y="508" on="1"/>
        <pt x="458" y="450" on="0"/>
        <pt x="388" y="366" on="0"/>
        <pt x="328" y="327" on="1"/>
        <pt x="374" y="278" on="0"/>
        <pt x="442" y="230" on="1"/>
        <pt x="491" y="295" on="0"/>
        <pt x="512" y="374" on="1"/>
        <pt x="668" y="374" on="1"/>
        <pt x="632" y="255" on="0"/>
        <pt x="562" y="161" on="1"/>
        <pt x="621" y="132" on="0"/>
        <pt x="670" y="126" on="1"/>
      </contour>
      <contour>
        <pt x="239" y="456" on="0"/>
        <pt x="257" y="421" on="1"/>
        <pt x="292" y="441" on="0"/>
        <pt x="328" y="482" on="0"/>
        <pt x="328" y="508" on="1"/>
        <pt x="328" y="550" on="0"/>
        <pt x="290" y="550" on="1"/>
        <pt x="269" y="550" on="0"/>
        <pt x="239" y="516" on="0"/>
        <pt x="239" y="486" on="1"/>
      </contour>
      <contour>
        <pt x="184" y="156" on="0"/>
        <pt x="229" y="118" on="0"/>
        <pt x="268" y="118" on="1"/>
        <pt x="297" y="118" on="0"/>
        <pt x="332" y="134" on="1"/>
        <pt x="264" y="188" on="0"/>
        <pt x="214" y="247" on="1"/>
        <pt x="184" y="215" on="0"/>
        <pt x="184" y="186" on="1"/>
      </contour>
    </TTGlyph>
    <TTGlyph name="approxequal" xMin="26" yMin="114" xMax="514" yMax="546">
      <component glyphName="asciitilde" x="0" y="120" flags="0x4"/>
      <component glyphName="asciitilde" x="0" y="-120" flags="0x4"/>
    </TTGlyph>
    <TTGlyph name="aring" xMin="38" yMin="-12" xMax="482" yMax="780">
      <component glyphName="a" x="0" y="0" flags="0x0"/>
      <component glyphName="uni030A" x="290" y="0" flags="0x0"/>
    </TTGlyph>
    <TTGlyph name="asciicircum" xMin="46" yMin="270" xMax="494" yMax="670">
      <contour>
        <pt x="202" y="670" on="1"/>
        <pt x="338" y="670" on="1"/>
        <pt x="494" y="270" on="1"/>
        <pt x="354" y="270" on="1"/>
        <pt x="316" y="380" on="1"/>
        <pt x="272" y="516" on="1"/>
        <pt x="268" y="516" on="1"/>
        <pt x="224" y="380" on="1"/>
        <pt x="186" y="270" on="1"/>
        <pt x="46" y="270" on="1"/>
      </contour>
    </TTGlyph>
    <TTGlyph name="asciicircum.lat" xMin="46" yMin="270" xMax="494" yMax="670">
      <contour>
        <pt x="202" y="670" on="1"/>
        <pt x="338" y="670" on="1"/>
        <pt x="494" y="270" on="1"/>
        <pt x="354" y="270" on="1"/>
        <pt x="316" y="380" on="1"/>
        <pt x="272" y="516" on="1"/>
        <pt x="268" y="516" on="1"/>
        <pt x="224" y="380" on="1"/>
        <pt x="186" y="270" on="1"/>
        <pt x="46" y="270" on="1"/>
      </contour>
    </TTGlyph>
    <TTGlyph name="asciitilde" xMin="26" yMin="234" xMax="514" yMax="426">
      <contour>
        <pt x="323" y="234" on="0"/>
        <pt x="278" y="256" on="0"/>
        <pt x="250" y="276" on="1"/>
        <pt x="229" y="291" on="0"/>
        <pt x="200" y="306" on="0"/>
        <pt x="184" y="306" on="1"/>
        <pt x="147" y="306" on="0"/>
        <pt x="114" y="250" on="1"/>
        <pt x="26" y="318" on="1"/>
        <pt x="99" y="426" on="0"/>
        <pt x="186" y="426" on="1"/>
        <pt x="217" y="426" on="0"/>
        <pt x="262" y="404" on="0"/>
        <pt x="290" y="384" on="1"/>
        <pt x="311" y="369" on="0"/>
        <pt x="340" y="354" on="0"/>
        <pt x="356" y="354" on="1"/>
        <pt x="393" y="354" on="0"/>
        <pt x="426" y="410" on="1"/>
        <pt x="514" y="342" on="1"/>
        <pt x="441" y="234" on="0"/>
        <pt x="354" y="234" on="1"/>
      </contour>
    </TTGlyph>
    <TTGlyph name="asterisk" xMin="30" yMin="321" xMax="442" yMax="712">
      <contour>
        <pt x="82" y="372" on="1"/>
        <pt x="142" y="479" on="1"/>
        <pt x="30" y="531" on="1"/>
        <pt x="57" y="614" on="1"/>
        <pt x="178" y="590" on="1"/>
        <pt x="192" y="712" on="1"/>
        <pt x="280" y="712" on="1"/>
        <pt x="294" y="589" on="1"/>
        <pt x="415" y="614" on="1"/>
        <pt x="442" y="531" on="1"/>
        <pt x="329" y="479" on="1"/>
        <pt x="390" y="372" on="1"/>
        <pt x="320" y="321" on="1"/>
        <pt x="236" y="412" on="1"/>
        <pt x="152" y="321" on="1"/>
      </contour>
    </TTGlyph>
    <TTGlyph name="asterisk.lat" xMin="30" yMin="321" xMax="442" yMax="712">
      <contour>
        <pt x="82" y="372" on="1"/>
        <pt x="142" y="479" on="1"/>
        <pt x="30" y="531" on="1"/>
        <pt x="57" y="614" on="1"/>
        <pt x="178" y="590" on="1"/>
        <pt x="192" y="712" on="1"/>
        <pt x="280" y="712" on="1"/>
        <pt x="294" y="589" on="1"/>
        <pt x="415" y="614" on="1"/>
        <pt x="442" y="531" on="1"/>
        <pt x="329" y="479" on="1"/>
        <pt x="390" y="372" on="1"/>
        <pt x="320" y="321" on="1"/>
        <pt x="236" y="412" on="1"/>
        <pt x="152" y="321" on="1"/>
      </contour>
    </TTGlyph>
    <TTGlyph name="at" xMin="48" yMin="-178" xMax="876" yMax="678">
      <contour>
        <pt x="333" y="-178" on="0"/>
        <pt x="155" y="-93" on="0"/>
        <pt x="48" y="80" on="0"/>
        <pt x="48" y="206" on="1"/>
        <pt x="48" y="344" on="0"/>
        <pt x="173" y="559" on="0"/>
        <pt x="385" y="678" on="0"/>
        <pt x="512" y="678" on="1"/>
        <pt x="621" y="678" on="0"/>
        <pt x="786" y="585" on="0"/>
        <pt x="876" y="419" on="0"/>
        <pt x="876" y="312" on="1"/>
        <pt x="876" y="224" on="0"/>
        <pt x="806" y="98" on="0"/>
        <pt x="696" y="34" on="0"/>
        <pt x="638" y="34" on="1"/>
        <pt x="593" y="34" on="0"/>
        <pt x="527" y="75" on="0"/>
        <pt x="518" y="110" on="1"/>
        <pt x="516" y="110" on="1"/>
        <pt x="497" y="81" on="0"/>
        <pt x="427" y="44" on="0"/>
        <pt x="396" y="44" on="1"/>
        <pt x="335" y="44" on="0"/>
        <pt x="260" y="129" on="0"/>
        <pt x="260" y="198" on="1"/>
        <pt x="260" y="261" on="0"/>
        <pt x="316" y="377" on="0"/>
        <pt x="411" y="448" on="0"/>
        <pt x="466" y="448" on="1"/>
        <pt x="518" y="448" on="0"/>
        <pt x="540" y="398" on="1"/>
        <pt x="542" y="398" on="1"/>
        <pt x="558" y="440" on="1"/>
        <pt x="662" y="440" on="1"/>
        <pt x="614" y="212" on="1"/>
        <pt x="610" y="196" on="0"/>
        <pt x="610" y="182" on="1"/>
        <pt x="610" y="138" on="0"/>
        <pt x="656" y="138" on="1"/>
        <pt x="686" y="138" on="0"/>
        <pt x="739" y="181" on="0"/>
        <pt x="770" y="259" on="0"/>
        <pt x="770" y="308" on="1"/>
        <pt x="770" y="381" on="0"/>
        <pt x="716" y="502" on="0"/>
        <pt x="594" y="576" on="0"/>
        <pt x="498" y="576" on="1"/>
        <pt x="413" y="576" on="0"/>
        <pt x="258" y="484" on="0"/>
        <pt x="162" y="317" on="0"/>
        <pt x="162" y="210" on="1"/>
        <pt x="162" y="115" on="0"/>
        <pt x="242" y="-14" on="0"/>
        <pt x="374" y="-76" on="0"/>
        <pt x="452" y="-76" on="1"/>
        <pt x="487" y="-76" on="0"/>
        <pt x="569" y="-56" on="0"/>
        <pt x="600" y="-40" on="1"/>
        <pt x="636" y="-132" on="1"/>
        <pt x="547" y="-178" on="0"/>
        <pt x="438" y="-178" on="1"/>
      </contour>
      <contour>
        <pt x="448" y="150" on="0"/>
        <pt x="474" y="168" on="0"/>
        <pt x="490" y="190" on="1"/>
        <pt x="512" y="316" on="1"/>
        <pt x="507" y="327" on="0"/>
        <pt x="485" y="340" on="0"/>
        <pt x="472" y="340" on="1"/>
        <pt x="448" y="340" on="0"/>
        <pt x="409" y="298" on="0"/>
        <pt x="388" y="236" on="0"/>
        <pt x="388" y="208" on="1"/>
        <pt x="388" y="180" on="0"/>
        <pt x="412" y="150" on="0"/>
        <pt x="434" y="150" on="1"/>
      </contour>
    </TTGlyph>
    <TTGlyph name="at.lat" xMin="48" yMin="-178" xMax="876" yMax="678">
      <contour>
        <pt x="333" y="-178" on="0"/>
        <pt x="155" y="-93" on="0"/>
        <pt x="48" y="80" on="0"/>
        <pt x="48" y="206" on="1"/>
        <pt x="48" y="344" on="0"/>
        <pt x="173" y="559" on="0"/>
        <pt x="385" y="678" on="0"/>
        <pt x="512" y="678" on="1"/>
        <pt x="621" y="678" on="0"/>
        <pt x="786" y="585" on="0"/>
        <pt x="876" y="419" on="0"/>
        <pt x="876" y="312" on="1"/>
        <pt x="876" y="224" on="0"/>
        <pt x="806" y="98" on="0"/>
        <pt x="696" y="34" on="0"/>
        <pt x="638" y="34" on="1"/>
        <pt x="593" y="34" on="0"/>
        <pt x="527" y="75" on="0"/>
        <pt x="518" y="110" on="1"/>
        <pt x="516" y="110" on="1"/>
        <pt x="497" y="81" on="0"/>
        <pt x="427" y="44" on="0"/>
        <pt x="396" y="44" on="1"/>
        <pt x="335" y="44" on="0"/>
        <pt x="260" y="129" on="0"/>
        <pt x="260" y="198" on="1"/>
        <pt x="260" y="261" on="0"/>
        <pt x="316" y="377" on="0"/>
        <pt x="411" y="448" on="0"/>
        <pt x="466" y="448" on="1"/>
        <pt x="518" y="448" on="0"/>
        <pt x="540" y="398" on="1"/>
        <pt x="542" y="398" on="1"/>
        <pt x="558" y="440" on="1"/>
        <pt x="662" y="440" on="1"/>
        <pt x="614" y="212" on="1"/>
        <pt x="610" y="196" on="0"/>
        <pt x="610" y="182" on="1"/>
        <pt x="610" y="138" on="0"/>
        <pt x="656" y="138" on="1"/>
        <pt x="686" y="138" on="0"/>
        <pt x="739" y="181" on="0"/>
        <pt x="770" y="259" on="0"/>
        <pt x="770" y="308" on="1"/>
        <pt x="770" y="381" on="0"/>
        <pt x="716" y="502" on="0"/>
        <pt x="594" y="576" on="0"/>
        <pt x="498" y="576" on="1"/>
        <pt x="413" y="576" on="0"/>
        <pt x="258" y="484" on="0"/>
        <pt x="162" y="317" on="0"/>
        <pt x="162" y="210" on="1"/>
        <pt x="162" y="115" on="0"/>
        <pt x="242" y="-14" on="0"/>
        <pt x="374" y="-76" on="0"/>
        <pt x="452" y="-76" on="1"/>
        <pt x="487" y="-76" on="0"/>
        <pt x="569" y="-56" on="0"/>
        <pt x="600" y="-40" on="1"/>
        <pt x="636" y="-132" on="1"/>
        <pt x="547" y="-178" on="0"/>
        <pt x="438" y="-178" on="1"/>
      </contour>
      <contour>
        <pt x="448" y="150" on="0"/>
        <pt x="474" y="168" on="0"/>
        <pt x="490" y="190" on="1"/>
        <pt x="512" y="316" on="1"/>
        <pt x="507" y="327" on="0"/>
        <pt x="485" y="340" on="0"/>
        <pt x="472" y="340" on="1"/>
        <pt x="448" y="340" on="0"/>
        <pt x="409" y="298" on="0"/>
        <pt x="388" y="236" on="0"/>
        <pt x="388" y="208" on="1"/>
        <pt x="388" y="180" on="0"/>
        <pt x="412" y="150" on="0"/>
        <pt x="434" y="150" on="1"/>
      </contour>
    </TTGlyph>
    <TTGlyph name="atilde" xMin="38" yMin="-12" xMax="486" yMax="746">
      <component glyphName="a" x="0" y="0" flags="0x0"/>
      <component glyphName="tildecomb" x="290" y="0" flags="0x0"/>
    </TTGlyph>
    <TTGlyph name="b" xMin="58" yMin="-12" xMax="544" yMax="696">
      <contour>
        <pt x="267" y="-12" on="0"/>
        <pt x="210" y="54" on="1"/>
        <pt x="206" y="54" on="1"/>
        <pt x="192" y="0" on="1"/>
        <pt x="58" y="0" on="1"/>
        <pt x="58" y="696" on="1"/>
        <pt x="230" y="696" on="1"/>
        <pt x="230" y="534" on="1"/>
        <pt x="226" y="462" on="1"/>
        <pt x="252" y="486" on="0"/>
        <pt x="316" y="512" on="0"/>
        <pt x="349" y="512" on="1"/>
        <pt x="407" y="512" on="0"/>
        <pt x="496" y="449" on="0"/>
        <pt x="544" y="335" on="0"/>
        <pt x="544" y="259" on="1"/>
        <pt x="544" y="176" on="0"/>
        <pt x="486" y="53" on="0"/>
        <pt x="390" y="-12" on="0"/>
        <pt x="336" y="-12" on="1"/>
      </contour>
      <contour>
        <pt x="327" y="128" on="0"/>
        <pt x="368" y="189" on="0"/>
        <pt x="368" y="256" on="1"/>
        <pt x="368" y="316" on="0"/>
        <pt x="333" y="372" on="0"/>
        <pt x="298" y="372" on="1"/>
        <pt x="278" y="372" on="0"/>
        <pt x="246" y="355" on="0"/>
        <pt x="230" y="336" on="1"/>
        <pt x="230" y="152" on="1"/>
        <pt x="257" y="128" on="0"/>
        <pt x="294" y="128" on="1"/>
      </contour>
    </TTGlyph>
    <TTGlyph name="backslash" xMin="34" yMin="-160" xMax="320" yMax="710">
      <contour>
        <pt x="34" y="710" on="1"/>
        <pt x="144" y="710" on="1"/>
        <pt x="320" y="-160" on="1"/>
        <pt x="210" y="-160" on="1"/>
      </contour>
    </TTGlyph>
    <TTGlyph name="backslash.lat" xMin="34" yMin="-160" xMax="320" yMax="710">
      <contour>
        <pt x="34" y="710" on="1"/>
        <pt x="144" y="710" on="1"/>
        <pt x="320" y="-160" on="1"/>
        <pt x="210" y="-160" on="1"/>
      </contour>
    </TTGlyph>
    <TTGlyph name="bar" xMin="84" yMin="-250" xMax="194" yMax="750">
      <contour>
        <pt x="84" y="750" on="1"/>
        <pt x="194" y="750" on="1"/>
        <pt x="194" y="-250" on="1"/>
        <pt x="84" y="-250" on="1"/>
      </contour>
    </TTGlyph>
    <TTGlyph name="braceleft" xMin="30" yMin="-152" xMax="308" yMax="708">
      <contour>
        <pt x="168" y="-152" on="0"/>
        <pt x="106" y="-87" on="0"/>
        <pt x="106" y="-6" on="1"/>
        <pt x="106" y="20" on="0"/>
        <pt x="111" y="80" on="1"/>
        <pt x="116" y="118" on="0"/>
        <pt x="116" y="156" on="1"/>
        <pt x="116" y="185" on="0"/>
        <pt x="74" y="227" on="0"/>
        <pt x="30" y="228" on="1"/>
        <pt x="30" y="328" on="1"/>
        <pt x="74" y="329" on="0"/>
        <pt x="116" y="371" on="0"/>
        <pt x="116" y="400" on="1"/>
        <pt x="116" y="438" on="0"/>
        <pt x="111" y="476" on="1"/>
        <pt x="106" y="536" on="0"/>
        <pt x="106" y="562" on="1"/>
        <pt x="106" y="643" on="0"/>
        <pt x="168" y="708" on="0"/>
        <pt x="238" y="708" on="1"/>
        <pt x="308" y="708" on="1"/>
        <pt x="308" y="618" on="1"/>
        <pt x="292" y="618" on="1"/>
        <pt x="264" y="618" on="0"/>
        <pt x="244" y="594" on="0"/>
        <pt x="244" y="556" on="1"/>
        <pt x="244" y="533" on="0"/>
        <pt x="246" y="483" on="1"/>
        <pt x="248" y="431" on="0"/>
        <pt x="248" y="400" on="1"/>
        <pt x="248" y="342" on="0"/>
        <pt x="210" y="289" on="0"/>
        <pt x="168" y="280" on="1"/>
        <pt x="168" y="276" on="1"/>
        <pt x="210" y="267" on="0"/>
        <pt x="248" y="214" on="0"/>
        <pt x="248" y="156" on="1"/>
        <pt x="248" y="125" on="0"/>
        <pt x="246" y="73" on="1"/>
        <pt x="244" y="23" on="0"/>
        <pt x="244" y="0" on="1"/>
        <pt x="244" y="-38" on="0"/>
        <pt x="264" y="-62" on="0"/>
        <pt x="292" y="-62" on="1"/>
        <pt x="308" y="-62" on="1"/>
        <pt x="308" y="-152" on="1"/>
        <pt x="238" y="-152" on="1"/>
      </contour>
    </TTGlyph>
    <TTGlyph name="braceleft.lat" xMin="30" yMin="-152" xMax="308" yMax="708">
      <contour>
        <pt x="168" y="-152" on="0"/>
        <pt x="106" y="-87" on="0"/>
        <pt x="106" y="-6" on="1"/>
        <pt x="106" y="20" on="0"/>
        <pt x="111" y="80" on="1"/>
        <pt x="116" y="118" on="0"/>
        <pt x="116" y="156" on="1"/>
        <pt x="116" y="185" on="0"/>
        <pt x="74" y="227" on="0"/>
        <pt x="30" y="228" on="1"/>
        <pt x="30" y="328" on="1"/>
        <pt x="74" y="329" on="0"/>
        <pt x="116" y="371" on="0"/>
        <pt x="116" y="400" on="1"/>
        <pt x="116" y="438" on="0"/>
        <pt x="111" y="476" on="1"/>
        <pt x="106" y="536" on="0"/>
        <pt x="106" y="562" on="1"/>
        <pt x="106" y="643" on="0"/>
        <pt x="168" y="708" on="0"/>
        <pt x="238" y="708" on="1"/>
        <pt x="308" y="708" on="1"/>
        <pt x="308" y="618" on="1"/>
        <pt x="292" y="618" on="1"/>
        <pt x="264" y="618" on="0"/>
        <pt x="244" y="594" on="0"/>
        <pt x="244" y="556" on="1"/>
        <pt x="244" y="533" on="0"/>
        <pt x="246" y="483" on="1"/>
        <pt x="248" y="431" on="0"/>
        <pt x="248" y="400" on="1"/>
        <pt x="248" y="342" on="0"/>
        <pt x="210" y="289" on="0"/>
        <pt x="168" y="280" on="1"/>
        <pt x="168" y="276" on="1"/>
        <pt x="210" y="267" on="0"/>
        <pt x="248" y="214" on="0"/>
        <pt x="248" y="156" on="1"/>
        <pt x="248" y="125" on="0"/>
        <pt x="246" y="73" on="1"/>
        <pt x="244" y="23" on="0"/>
        <pt x="244" y="0" on="1"/>
        <pt x="244" y="-38" on="0"/>
        <pt x="264" y="-62" on="0"/>
        <pt x="292" y="-62" on="1"/>
        <pt x="308" y="-62" on="1"/>
        <pt x="308" y="-152" on="1"/>
        <pt x="238" y="-152" on="1"/>
      </contour>
    </TTGlyph>
    <TTGlyph name="braceright" xMin="52" yMin="-152" xMax="330" yMax="708">
      <contour>
        <pt x="52" y="-62" on="1"/>
        <pt x="68" y="-62" on="1"/>
        <pt x="96" y="-62" on="0"/>
        <pt x="116" y="-38" on="0"/>
        <pt x="116" y="0" on="1"/>
        <pt x="116" y="23" on="0"/>
        <pt x="114" y="73" on="1"/>
        <pt x="112" y="125" on="0"/>
        <pt x="112" y="156" on="1"/>
        <pt x="112" y="214" on="0"/>
        <pt x="150" y="267" on="0"/>
        <pt x="192" y="276" on="1"/>
        <pt x="192" y="280" on="1"/>
        <pt x="150" y="289" on="0"/>
        <pt x="112" y="342" on="0"/>
        <pt x="112" y="400" on="1"/>
        <pt x="112" y="431" on="0"/>
        <pt x="114" y="483" on="1"/>
        <pt x="116" y="533" on="0"/>
        <pt x="116" y="556" on="1"/>
        <pt x="116" y="594" on="0"/>
        <pt x="96" y="618" on="0"/>
        <pt x="68" y="618" on="1"/>
        <pt x="52" y="618" on="1"/>
        <pt x="52" y="708" on="1"/>
        <pt x="122" y="708" on="1"/>
        <pt x="192" y="708" on="0"/>
        <pt x="254" y="643" on="0"/>
        <pt x="254" y="562" on="1"/>
        <pt x="254" y="536" on="0"/>
        <pt x="249" y="476" on="1"/>
        <pt x="244" y="438" on="0"/>
        <pt x="244" y="400" on="1"/>
        <pt x="244" y="371" on="0"/>
        <pt x="286" y="329" on="0"/>
        <pt x="330" y="328" on="1"/>
        <pt x="330" y="228" on="1"/>
        <pt x="286" y="227" on="0"/>
        <pt x="244" y="185" on="0"/>
        <pt x="244" y="156" on="1"/>
        <pt x="244" y="118" on="0"/>
        <pt x="249" y="80" on="1"/>
        <pt x="254" y="20" on="0"/>
        <pt x="254" y="-6" on="1"/>
        <pt x="254" y="-87" on="0"/>
        <pt x="192" y="-152" on="0"/>
        <pt x="122" y="-152" on="1"/>
        <pt x="52" y="-152" on="1"/>
      </contour>
    </TTGlyph>
    <TTGlyph name="braceright.lat" xMin="52" yMin="-152" xMax="330" yMax="708">
      <contour>
        <pt x="52" y="-62" on="1"/>
        <pt x="68" y="-62" on="1"/>
        <pt x="96" y="-62" on="0"/>
        <pt x="116" y="-38" on="0"/>
        <pt x="116" y="0" on="1"/>
        <pt x="116" y="23" on="0"/>
        <pt x="114" y="73" on="1"/>
        <pt x="112" y="125" on="0"/>
        <pt x="112" y="156" on="1"/>
        <pt x="112" y="214" on="0"/>
        <pt x="150" y="267" on="0"/>
        <pt x="192" y="276" on="1"/>
        <pt x="192" y="280" on="1"/>
        <pt x="150" y="289" on="0"/>
        <pt x="112" y="342" on="0"/>
        <pt x="112" y="400" on="1"/>
        <pt x="112" y="431" on="0"/>
        <pt x="114" y="483" on="1"/>
        <pt x="116" y="533" on="0"/>
        <pt x="116" y="556" on="1"/>
        <pt x="116" y="594" on="0"/>
        <pt x="96" y="618" on="0"/>
        <pt x="68" y="618" on="1"/>
        <pt x="52" y="618" on="1"/>
        <pt x="52" y="708" on="1"/>
        <pt x="122" y="708" on="1"/>
        <pt x="192" y="708" on="0"/>
        <pt x="254" y="643" on="0"/>
        <pt x="254" y="562" on="1"/>
        <pt x="254" y="536" on="0"/>
        <pt x="249" y="476" on="1"/>
        <pt x="244" y="438" on="0"/>
        <pt x="244" y="400" on="1"/>
        <pt x="244" y="371" on="0"/>
        <pt x="286" y="329" on="0"/>
        <pt x="330" y="328" on="1"/>
        <pt x="330" y="228" on="1"/>
        <pt x="286" y="227" on="0"/>
        <pt x="244" y="185" on="0"/>
        <pt x="244" y="156" on="1"/>
        <pt x="244" y="118" on="0"/>
        <pt x="249" y="80" on="1"/>
        <pt x="254" y="20" on="0"/>
        <pt x="254" y="-6" on="1"/>
        <pt x="254" y="-87" on="0"/>
        <pt x="192" y="-152" on="0"/>
        <pt x="122" y="-152" on="1"/>
        <pt x="52" y="-152" on="1"/>
      </contour>
    </TTGlyph>
    <TTGlyph name="bracketleft" xMin="84" yMin="-152" xMax="308" yMax="708">
      <contour>
        <pt x="84" y="708" on="1"/>
        <pt x="308" y="708" on="1"/>
        <pt x="308" y="618" on="1"/>
        <pt x="212" y="618" on="1"/>
        <pt x="212" y="-62" on="1"/>
        <pt x="308" y="-62" on="1"/>
        <pt x="308" y="-152" on="1"/>
        <pt x="84" y="-152" on="1"/>
      </contour>
    </TTGlyph>
    <TTGlyph name="bracketleft.lat" xMin="84" yMin="-152" xMax="308" yMax="708">
      <contour>
        <pt x="84" y="708" on="1"/>
        <pt x="308" y="708" on="1"/>
        <pt x="308" y="618" on="1"/>
        <pt x="212" y="618" on="1"/>
        <pt x="212" y="-62" on="1"/>
        <pt x="308" y="-62" on="1"/>
        <pt x="308" y="-152" on="1"/>
        <pt x="84" y="-152" on="1"/>
      </contour>
    </TTGlyph>
    <TTGlyph name="bracketright" xMin="52" yMin="-152" xMax="276" yMax="708">
      <contour>
        <pt x="52" y="-62" on="1"/>
        <pt x="148" y="-62" on="1"/>
        <pt x="148" y="618" on="1"/>
        <pt x="52" y="618" on="1"/>
        <pt x="52" y="708" on="1"/>
        <pt x="276" y="708" on="1"/>
        <pt x="276" y="-152" on="1"/>
        <pt x="52" y="-152" on="1"/>
      </contour>
    </TTGlyph>
    <TTGlyph name="bracketright.lat" xMin="52" yMin="-152" xMax="276" yMax="708">
      <contour>
        <pt x="52" y="-62" on="1"/>
        <pt x="148" y="-62" on="1"/>
        <pt x="148" y="618" on="1"/>
        <pt x="52" y="618" on="1"/>
        <pt x="52" y="708" on="1"/>
        <pt x="276" y="708" on="1"/>
        <pt x="276" y="-152" on="1"/>
        <pt x="52" y="-152" on="1"/>
      </contour>
    </TTGlyph>
    <TTGlyph name="breve" xMin="106" yMin="572" xMax="454" yMax="748">
      <component glyphName="uni0306" x="280" y="0" flags="0x0"/>
    </TTGlyph>
    <TTGlyph name="brokenbar" xMin="84" yMin="-250" xMax="194" yMax="750">
      <contour>
        <pt x="84" y="750" on="1"/>
        <pt x="194" y="750" on="1"/>
        <pt x="194" y="320" on="1"/>
        <pt x="84" y="320" on="1"/>
      </contour>
      <contour>
        <pt x="84" y="200" on="1"/>
        <pt x="194" y="200" on="1"/>
        <pt x="194" y="-250" on="1"/>
        <pt x="84" y="-250" on="1"/>
      </contour>
    </TTGlyph>
    <TTGlyph name="bullet" xMin="40" yMin="116" xMax="320" yMax="408">
      <contour>
        <pt x="141" y="116" on="0"/>
        <pt x="77" y="155" on="0"/>
        <pt x="40" y="222" on="0"/>
        <pt x="40" y="262" on="1"/>
        <pt x="40" y="303" on="0"/>
        <pt x="77" y="369" on="0"/>
        <pt x="141" y="408" on="0"/>
        <pt x="180" y="408" on="1"/>
        <pt x="219" y="408" on="0"/>
        <pt x="283" y="369" on="0"/>
        <pt x="320" y="302" on="0"/>
        <pt x="320" y="262" on="1"/>
        <pt x="320" y="221" on="0"/>
        <pt x="283" y="155" on="0"/>
        <pt x="219" y="116" on="0"/>
        <pt x="180" y="116" on="1"/>
      </contour>
    </TTGlyph>
    <TTGlyph name="bullet.lat" xMin="40" yMin="116" xMax="320" yMax="408">
      <contour>
        <pt x="141" y="116" on="0"/>
        <pt x="77" y="155" on="0"/>
        <pt x="40" y="222" on="0"/>
        <pt x="40" y="262" on="1"/>
        <pt x="40" y="303" on="0"/>
        <pt x="77" y="369" on="0"/>
        <pt x="141" y="408" on="0"/>
        <pt x="180" y="408" on="1"/>
        <pt x="219" y="408" on="0"/>
        <pt x="283" y="369" on="0"/>
        <pt x="320" y="302" on="0"/>
        <pt x="320" y="262" on="1"/>
        <pt x="320" y="221" on="0"/>
        <pt x="283" y="155" on="0"/>
        <pt x="219" y="116" on="0"/>
        <pt x="180" y="116" on="1"/>
      </contour>
    </TTGlyph>
    <TTGlyph name="c" xMin="32" yMin="-12" xMax="450" yMax="512">
      <contour>
        <pt x="212" y="-12" on="0"/>
        <pt x="98" y="51" on="0"/>
        <pt x="32" y="169" on="0"/>
        <pt x="32" y="250" on="1"/>
        <pt x="32" y="330" on="0"/>
        <pt x="105" y="449" on="0"/>
        <pt x="228" y="512" on="0"/>
        <pt x="300" y="512" on="1"/>
        <pt x="384" y="512" on="0"/>
        <pt x="446" y="460" on="1"/>
        <pt x="366" y="350" on="1"/>
        <pt x="337" y="374" on="0"/>
        <pt x="310" y="374" on="1"/>
        <pt x="262" y="374" on="0"/>
        <pt x="208" y="307" on="0"/>
        <pt x="208" y="250" on="1"/>
        <pt x="208" y="194" on="0"/>
        <pt x="263" y="126" on="0"/>
        <pt x="304" y="126" on="1"/>
        <pt x="341" y="126" on="0"/>
        <pt x="384" y="158" on="1"/>
        <pt x="450" y="46" on="1"/>
        <pt x="415" y="15" on="0"/>
        <pt x="328" y="-12" on="0"/>
        <pt x="284" y="-12" on="1"/>
      </contour>
    </TTGlyph>
    <TTGlyph name="caron" xMin="86" yMin="578" xMax="474" yMax="766">
      <component glyphName="uni030C" x="280" y="0" flags="0x0"/>
    </TTGlyph>
    <TTGlyph name="ccaron" xMin="32" yMin="-12" xMax="474" yMax="766">
      <component glyphName="c" x="0" y="0" flags="0x0"/>
      <component glyphName="uni030C" x="280" y="0" flags="0x0"/>
    </TTGlyph>
    <TTGlyph name="ccedilla" xMin="32" yMin="-244" xMax="450" yMax="512">
      <contour>
        <pt x="344" y="-69" on="0"/>
        <pt x="382" y="-105" on="0"/>
        <pt x="382" y="-136" on="1"/>
        <pt x="382" y="-238" on="0"/>
        <pt x="172" y="-244" on="1"/>
        <pt x="160" y="-178" on="1"/>
        <pt x="217" y="-175" on="0"/>
        <pt x="260" y="-157" on="0"/>
        <pt x="260" y="-136" on="1"/>
        <pt x="260" y="-121" on="0"/>
        <pt x="228" y="-102" on="0"/>
        <pt x="184" y="-96" on="1"/>
        <pt x="229" y="-7" on="1"/>
        <pt x="140" y="10" on="0"/>
        <pt x="32" y="145" on="0"/>
        <pt x="32" y="250" on="1"/>
        <pt x="32" y="330" on="0"/>
        <pt x="105" y="449" on="0"/>
        <pt x="228" y="512" on="0"/>
        <pt x="300" y="512" on="1"/>
        <pt x="384" y="512" on="0"/>
        <pt x="446" y="460" on="1"/>
        <pt x="366" y="350" on="1"/>
        <pt x="337" y="374" on="0"/>
        <pt x="310" y="374" on="1"/>
        <pt x="262" y="374" on="0"/>
        <pt x="208" y="307" on="0"/>
        <pt x="208" y="250" on="1"/>
        <pt x="208" y="194" on="0"/>
        <pt x="263" y="126" on="0"/>
        <pt x="304" y="126" on="1"/>
        <pt x="341" y="126" on="0"/>
        <pt x="384" y="158" on="1"/>
        <pt x="450" y="46" on="1"/>
        <pt x="400" y="2" on="0"/>
        <pt x="326" y="-9" on="1"/>
        <pt x="304" y="-60" on="1"/>
      </contour>
    </TTGlyph>
    <TTGlyph name="cedilla" xMin="160" yMin="-244" xMax="382" yMax="4">
      <component glyphName="uni0327" x="280" y="0" flags="0x0"/>
    </TTGlyph>
    <TTGlyph name="cent" xMin="60" yMin="-44" xMax="500" yMax="656">
      <contour>
        <pt x="446" y="59" on="0"/>
        <pt x="372" y="47" on="1"/>
        <pt x="372" y="-44" on="1"/>
        <pt x="280" y="-44" on="1"/>
        <pt x="280" y="47" on="1"/>
        <pt x="178" y="61" on="0"/>
        <pt x="60" y="197" on="0"/>
        <pt x="60" y="306" on="1"/>
        <pt x="60" y="410" on="0"/>
        <pt x="181" y="544" on="0"/>
        <pt x="280" y="562" on="1"/>
        <pt x="280" y="656" on="1"/>
        <pt x="372" y="656" on="1"/>
        <pt x="372" y="567" on="1"/>
        <pt x="409" y="563" on="0"/>
        <pt x="472" y="534" on="0"/>
        <pt x="494" y="512" on="1"/>
        <pt x="416" y="406" on="1"/>
        <pt x="393" y="424" on="0"/>
        <pt x="372" y="429" on="1"/>
        <pt x="372" y="184" on="1"/>
        <pt x="401" y="190" on="0"/>
        <pt x="432" y="214" on="1"/>
        <pt x="500" y="106" on="1"/>
      </contour>
      <contour>
        <pt x="226" y="269" on="0"/>
        <pt x="254" y="214" on="0"/>
        <pt x="280" y="199" on="1"/>
        <pt x="280" y="413" on="1"/>
        <pt x="226" y="384" on="0"/>
        <pt x="226" y="306" on="1"/>
      </contour>
    </TTGlyph>
    <TTGlyph name="cent.lat" xMin="60" yMin="-44" xMax="500" yMax="656">
      <contour>
        <pt x="446" y="59" on="0"/>
        <pt x="372" y="47" on="1"/>
        <pt x="372" y="-44" on="1"/>
        <pt x="280" y="-44" on="1"/>
        <pt x="280" y="47" on="1"/>
        <pt x="178" y="61" on="0"/>
        <pt x="60" y="197" on="0"/>
        <pt x="60" y="306" on="1"/>
        <pt x="60" y="410" on="0"/>
        <pt x="181" y="544" on="0"/>
        <pt x="280" y="562" on="1"/>
        <pt x="280" y="656" on="1"/>
        <pt x="372" y="656" on="1"/>
        <pt x="372" y="567" on="1"/>
        <pt x="409" y="563" on="0"/>
        <pt x="472" y="534" on="0"/>
        <pt x="494" y="512" on="1"/>
        <pt x="416" y="406" on="1"/>
        <pt x="393" y="424" on="0"/>
        <pt x="372" y="429" on="1"/>
        <pt x="372" y="184" on="1"/>
        <pt x="401" y="190" on="0"/>
        <pt x="432" y="214" on="1"/>
        <pt x="500" y="106" on="1"/>
      </contour>
      <contour>
        <pt x="226" y="269" on="0"/>
        <pt x="254" y="214" on="0"/>
        <pt x="280" y="199" on="1"/>
        <pt x="280" y="413" on="1"/>
        <pt x="226" y="384" on="0"/>
        <pt x="226" y="306" on="1"/>
      </contour>
    </TTGlyph>
    <TTGlyph name="chi" xMin="6" yMin="-188" xMax="560" yMax="512">
      <contour>
        <pt x="8" y="-176" on="1"/>
        <pt x="195" y="166" on="1"/>
        <pt x="6" y="476" on="1"/>
        <pt x="176" y="512" on="1"/>
        <pt x="278" y="316" on="1"/>
        <pt x="282" y="316" on="1"/>
        <pt x="356" y="500" on="1"/>
        <pt x="534" y="500" on="1"/>
        <pt x="364" y="170" on="1"/>
        <pt x="560" y="-152" on="1"/>
        <pt x="390" y="-188" on="1"/>
        <pt x="282" y="30" on="1"/>
        <pt x="278" y="30" on="1"/>
        <pt x="186" y="-188" on="1"/>
      </contour>
    </TTGlyph>
    <TTGlyph name="circledotted" xMin="32" yMin="-13" xMax="543" yMax="512">
      <contour>
        <pt x="269" y="421" on="0"/>
        <pt x="244" y="447" on="0"/>
        <pt x="244" y="468" on="1"/>
        <pt x="244" y="488" on="0"/>
        <pt x="269" y="512" on="0"/>
        <pt x="287" y="512" on="1"/>
        <pt x="307" y="512" on="0"/>
        <pt x="332" y="489" on="0"/>
        <pt x="332" y="468" on="1"/>
        <pt x="332" y="446" on="0"/>
        <pt x="307" y="421" on="0"/>
        <pt x="287" y="421" on="1"/>
      </contour>
      <contour>
        <pt x="163" y="395" on="0"/>
        <pt x="137" y="420" on="0"/>
        <pt x="137" y="440" on="1"/>
        <pt x="137" y="462" on="0"/>
        <pt x="163" y="486" on="0"/>
        <pt x="182" y="486" on="1"/>
        <pt x="201" y="486" on="0"/>
        <pt x="227" y="462" on="0"/>
        <pt x="227" y="440" on="1"/>
        <pt x="227" y="419" on="0"/>
        <pt x="202" y="395" on="0"/>
        <pt x="182" y="395" on="1"/>
      </contour>
      <contour>
        <pt x="374" y="394" on="0"/>
        <pt x="348" y="419" on="0"/>
        <pt x="348" y="440" on="1"/>
        <pt x="348" y="461" on="0"/>
        <pt x="374" y="486" on="0"/>
        <pt x="392" y="486" on="1"/>
        <pt x="411" y="486" on="0"/>
        <pt x="438" y="461" on="0"/>
        <pt x="438" y="440" on="1"/>
        <pt x="438" y="418" on="0"/>
        <pt x="413" y="394" on="0"/>
        <pt x="392" y="394" on="1"/>
      </contour>
      <contour>
        <pt x="87" y="313" on="0"/>
        <pt x="61" y="339" on="0"/>
        <pt x="61" y="360" on="1"/>
        <pt x="61" y="381" on="0"/>
        <pt x="86" y="405" on="0"/>
        <pt x="104" y="405" on="1"/>
        <pt x="124" y="405" on="0"/>
        <pt x="149" y="382" on="0"/>
        <pt x="149" y="360" on="1"/>
        <pt x="149" y="338" on="0"/>
        <pt x="124" y="313" on="0"/>
        <pt x="104" y="313" on="1"/>
      </contour>
      <contour>
        <pt x="453" y="313" on="0"/>
        <pt x="426" y="338" on="0"/>
        <pt x="426" y="359" on="1"/>
        <pt x="426" y="380" on="0"/>
        <pt x="452" y="404" on="0"/>
        <pt x="472" y="404" on="1"/>
        <pt x="491" y="404" on="0"/>
        <pt x="516" y="380" on="0"/>
        <pt x="516" y="359" on="1"/>
        <pt x="516" y="338" on="0"/>
        <pt x="492" y="313" on="0"/>
        <pt x="472" y="313" on="1"/>
      </contour>
      <contour>
        <pt x="58" y="204" on="0"/>
        <pt x="32" y="229" on="0"/>
        <pt x="32" y="251" on="1"/>
        <pt x="32" y="271" on="0"/>
        <pt x="58" y="295" on="0"/>
        <pt x="76" y="295" on="1"/>
        <pt x="96" y="295" on="0"/>
        <pt x="122" y="271" on="0"/>
        <pt x="122" y="251" on="1"/>
        <pt x="122" y="229" on="0"/>
        <pt x="97" y="204" on="0"/>
        <pt x="76" y="204" on="1"/>
      </contour>
      <contour>
        <pt x="479" y="204" on="0"/>
        <pt x="453" y="229" on="0"/>
        <pt x="453" y="251" on="1"/>
        <pt x="453" y="271" on="0"/>
        <pt x="479" y="295" on="0"/>
        <pt x="498" y="295" on="1"/>
        <pt x="517" y="295" on="0"/>
        <pt x="543" y="271" on="0"/>
        <pt x="543" y="251" on="1"/>
        <pt x="543" y="229" on="0"/>
        <pt x="518" y="204" on="0"/>
        <pt x="498" y="204" on="1"/>
      </contour>
      <contour>
        <pt x="86" y="96" on="0"/>
        <pt x="61" y="120" on="0"/>
        <pt x="61" y="141" on="1"/>
        <pt x="61" y="162" on="0"/>
        <pt x="87" y="187" on="0"/>
        <pt x="104" y="187" on="1"/>
        <pt x="124" y="187" on="0"/>
        <pt x="149" y="162" on="0"/>
        <pt x="149" y="141" on="1"/>
        <pt x="149" y="120" on="0"/>
        <pt x="125" y="96" on="0"/>
        <pt x="104" y="96" on="1"/>
      </contour>
      <contour>
        <pt x="452" y="96" on="0"/>
        <pt x="426" y="120" on="0"/>
        <pt x="426" y="141" on="1"/>
        <pt x="426" y="162" on="0"/>
        <pt x="453" y="187" on="0"/>
        <pt x="472" y="187" on="1"/>
        <pt x="491" y="187" on="0"/>
        <pt x="516" y="162" on="0"/>
        <pt x="516" y="141" on="1"/>
        <pt x="516" y="120" on="0"/>
        <pt x="492" y="96" on="0"/>
        <pt x="472" y="96" on="1"/>
      </contour>
      <contour>
        <pt x="163" y="14" on="0"/>
        <pt x="137" y="39" on="0"/>
        <pt x="137" y="61" on="1"/>
        <pt x="137" y="81" on="0"/>
        <pt x="163" y="105" on="0"/>
        <pt x="182" y="105" on="1"/>
        <pt x="201" y="105" on="0"/>
        <pt x="227" y="81" on="0"/>
        <pt x="227" y="61" on="1"/>
        <pt x="227" y="39" on="0"/>
        <pt x="202" y="14" on="0"/>
        <pt x="182" y="14" on="1"/>
      </contour>
      <contour>
        <pt x="374" y="14" on="0"/>
        <pt x="348" y="39" on="0"/>
        <pt x="348" y="61" on="1"/>
        <pt x="348" y="81" on="0"/>
        <pt x="374" y="105" on="0"/>
        <pt x="392" y="105" on="1"/>
        <pt x="412" y="105" on="0"/>
        <pt x="438" y="81" on="0"/>
        <pt x="438" y="61" on="1"/>
        <pt x="438" y="39" on="0"/>
        <pt x="413" y="14" on="0"/>
        <pt x="392" y="14" on="1"/>
      </contour>
      <contour>
        <pt x="269" y="-13" on="0"/>
        <pt x="244" y="12" on="0"/>
        <pt x="244" y="34" on="1"/>
        <pt x="244" y="54" on="0"/>
        <pt x="269" y="78" on="0"/>
        <pt x="287" y="78" on="1"/>
        <pt x="307" y="78" on="0"/>
        <pt x="332" y="55" on="0"/>
        <pt x="332" y="34" on="1"/>
        <pt x="332" y="12" on="0"/>
        <pt x="308" y="-13" on="0"/>
        <pt x="287" y="-13" on="1"/>
      </contour>
    </TTGlyph>
    <TTGlyph name="circumflex" xMin="86" yMin="558" xMax="474" yMax="746">
      <component glyphName="uni0302" x="280" y="0" flags="0x0"/>
    </TTGlyph>
    <TTGlyph name="colon" xMin="60" yMin="-12" xMax="260" yMax="506">
      <component glyphName="period" x="0" y="310" flags="0x4"/>
      <component glyphName="period" x="0" y="0" flags="0x0"/>
    </TTGlyph>
    <TTGlyph name="comma" xMin="46" yMin="-204" xMax="278" yMax="196">
      <contour>
        <pt x="219" y="196" on="0"/>
        <pt x="278" y="114" on="0"/>
        <pt x="278" y="40" on="1"/>
        <pt x="278" y="-50" on="0"/>
        <pt x="176" y="-177" on="0"/>
        <pt x="80" y="-204" on="1"/>
        <pt x="46" y="-114" on="1"/>
        <pt x="105" y="-95" on="0"/>
        <pt x="167" y="-30" on="0"/>
        <pt x="167" y="8" on="1"/>
        <pt x="160" y="8" on="1"/>
        <pt x="119" y="8" on="0"/>
        <pt x="60" y="59" on="0"/>
        <pt x="60" y="102" on="1"/>
        <pt x="60" y="143" on="0"/>
        <pt x="120" y="196" on="0"/>
        <pt x="164" y="196" on="1"/>
      </contour>
    </TTGlyph>
    <TTGlyph name="copyright" xMin="44" yMin="-8" xMax="708" yMax="656">
      <contour>
        <pt x="286" y="-8" on="0"/>
        <pt x="134" y="73" on="0"/>
        <pt x="44" y="225" on="0"/>
        <pt x="44" y="326" on="1"/>
        <pt x="44" y="427" on="0"/>
        <pt x="134" y="576" on="0"/>
        <pt x="286" y="656" on="0"/>
        <pt x="376" y="656" on="1"/>
        <pt x="466" y="656" on="0"/>
        <pt x="618" y="576" on="0"/>
        <pt x="708" y="426" on="0"/>
        <pt x="708" y="326" on="1"/>
        <pt x="708" y="225" on="0"/>
        <pt x="618" y="73" on="0"/>
        <pt x="466" y="-8" on="0"/>
        <pt x="376" y="-8" on="1"/>
      </contour>
      <contour>
        <pt x="449" y="60" on="0"/>
        <pt x="565" y="127" on="0"/>
        <pt x="632" y="248" on="0"/>
        <pt x="632" y="326" on="1"/>
        <pt x="632" y="404" on="0"/>
        <pt x="565" y="523" on="0"/>
        <pt x="449" y="588" on="0"/>
        <pt x="376" y="588" on="1"/>
        <pt x="303" y="588" on="0"/>
        <pt x="187" y="523" on="0"/>
        <pt x="120" y="404" on="0"/>
        <pt x="120" y="326" on="1"/>
        <pt x="120" y="248" on="0"/>
        <pt x="187" y="127" on="0"/>
        <pt x="303" y="60" on="0"/>
        <pt x="376" y="60" on="1"/>
      </contour>
      <contour>
        <pt x="332" y="128" on="0"/>
        <pt x="242" y="176" on="0"/>
        <pt x="192" y="265" on="0"/>
        <pt x="192" y="324" on="1"/>
        <pt x="192" y="381" on="0"/>
        <pt x="246" y="470" on="0"/>
        <pt x="337" y="518" on="0"/>
        <pt x="388" y="518" on="1"/>
        <pt x="432" y="518" on="0"/>
        <pt x="496" y="486" on="0"/>
        <pt x="524" y="458" on="1"/>
        <pt x="461" y="388" on="1"/>
        <pt x="446" y="404" on="0"/>
        <pt x="417" y="420" on="0"/>
        <pt x="400" y="420" on="1"/>
        <pt x="358" y="420" on="0"/>
        <pt x="313" y="365" on="0"/>
        <pt x="313" y="324" on="1"/>
        <pt x="313" y="279" on="0"/>
        <pt x="357" y="226" on="0"/>
        <pt x="394" y="226" on="1"/>
        <pt x="415" y="226" on="0"/>
        <pt x="445" y="240" on="0"/>
        <pt x="466" y="256" on="1"/>
        <pt x="520" y="178" on="1"/>
        <pt x="457" y="128" on="0"/>
        <pt x="390" y="128" on="1"/>
      </contour>
    </TTGlyph>
    <TTGlyph name="copyright.lat" xMin="44" yMin="-8" xMax="708" yMax="656">
      <contour>
        <pt x="286" y="-8" on="0"/>
        <pt x="134" y="73" on="0"/>
        <pt x="44" y="225" on="0"/>
        <pt x="44" y="326" on="1"/>
        <pt x="44" y="427" on="0"/>
        <pt x="134" y="576" on="0"/>
        <pt x="286" y="656" on="0"/>
        <pt x="376" y="656" on="1"/>
        <pt x="466" y="656" on="0"/>
        <pt x="618" y="576" on="0"/>
        <pt x="708" y="426" on="0"/>
        <pt x="708" y="326" on="1"/>
        <pt x="708" y="225" on="0"/>
        <pt x="618" y="73" on="0"/>
        <pt x="466" y="-8" on="0"/>
        <pt x="376" y="-8" on="1"/>
      </contour>
      <contour>
        <pt x="449" y="60" on="0"/>
        <pt x="565" y="127" on="0"/>
        <pt x="632" y="248" on="0"/>
        <pt x="632" y="326" on="1"/>
        <pt x="632" y="404" on="0"/>
        <pt x="565" y="523" on="0"/>
        <pt x="449" y="588" on="0"/>
        <pt x="376" y="588" on="1"/>
        <pt x="303" y="588" on="0"/>
        <pt x="187" y="523" on="0"/>
        <pt x="120" y="404" on="0"/>
        <pt x="120" y="326" on="1"/>
        <pt x="120" y="248" on="0"/>
        <pt x="187" y="127" on="0"/>
        <pt x="303" y="60" on="0"/>
        <pt x="376" y="60" on="1"/>
      </contour>
      <contour>
        <pt x="332" y="128" on="0"/>
        <pt x="242" y="176" on="0"/>
        <pt x="192" y="265" on="0"/>
        <pt x="192" y="324" on="1"/>
        <pt x="192" y="381" on="0"/>
        <pt x="246" y="470" on="0"/>
        <pt x="337" y="518" on="0"/>
        <pt x="388" y="518" on="1"/>
        <pt x="432" y="518" on="0"/>
        <pt x="496" y="486" on="0"/>
        <pt x="524" y="458" on="1"/>
        <pt x="461" y="388" on="1"/>
        <pt x="446" y="404" on="0"/>
        <pt x="417" y="420" on="0"/>
        <pt x="400" y="420" on="1"/>
        <pt x="358" y="420" on="0"/>
        <pt x="313" y="365" on="0"/>
        <pt x="313" y="324" on="1"/>
        <pt x="313" y="279" on="0"/>
        <pt x="357" y="226" on="0"/>
        <pt x="394" y="226" on="1"/>
        <pt x="415" y="226" on="0"/>
        <pt x="445" y="240" on="0"/>
        <pt x="466" y="256" on="1"/>
        <pt x="520" y="178" on="1"/>
        <pt x="457" y="128" on="0"/>
        <pt x="390" y="128" on="1"/>
      </contour>
    </TTGlyph>
    <TTGlyph name="currency" xMin="17" yMin="76" xMax="523" yMax="582">
      <contour>
        <pt x="17" y="161" on="1"/>
        <pt x="77" y="221" on="1"/>
        <pt x="44" y="268" on="0"/>
        <pt x="44" y="330" on="1"/>
        <pt x="44" y="391" on="0"/>
        <pt x="76" y="437" on="1"/>
        <pt x="17" y="497" on="1"/>
        <pt x="102" y="582" on="1"/>
        <pt x="172" y="512" on="1"/>
        <pt x="220" y="532" on="0"/>
        <pt x="270" y="532" on="1"/>
        <pt x="320" y="532" on="0"/>
        <pt x="368" y="512" on="1"/>
        <pt x="438" y="582" on="1"/>
        <pt x="523" y="497" on="1"/>
        <pt x="463" y="437" on="1"/>
        <pt x="496" y="391" on="0"/>
        <pt x="496" y="330" on="1"/>
        <pt x="496" y="270" on="0"/>
        <pt x="462" y="221" on="1"/>
        <pt x="523" y="161" on="1"/>
        <pt x="438" y="76" on="1"/>
        <pt x="367" y="147" on="1"/>
        <pt x="322" y="128" on="0"/>
        <pt x="270" y="128" on="1"/>
        <pt x="218" y="128" on="0"/>
        <pt x="173" y="147" on="1"/>
        <pt x="102" y="76" on="1"/>
      </contour>
      <contour>
        <pt x="302" y="246" on="0"/>
        <pt x="344" y="292" on="0"/>
        <pt x="344" y="330" on="1"/>
        <pt x="344" y="368" on="0"/>
        <pt x="302" y="414" on="0"/>
        <pt x="270" y="414" on="1"/>
        <pt x="238" y="414" on="0"/>
        <pt x="196" y="368" on="0"/>
        <pt x="196" y="330" on="1"/>
        <pt x="196" y="292" on="0"/>
        <pt x="238" y="246" on="0"/>
        <pt x="270" y="246" on="1"/>
      </contour>
    </TTGlyph>
    <TTGlyph name="d" xMin="36" yMin="-12" xMax="522" yMax="696">
      <contour>
        <pt x="178" y="-12" on="0"/>
        <pt x="86" y="52" on="0"/>
        <pt x="36" y="170" on="0"/>
        <pt x="36" y="250" on="1"/>
        <pt x="36" y="329" on="0"/>
        <pt x="94" y="448" on="0"/>
        <pt x="188" y="512" on="0"/>
        <pt x="240" y="512" on="1"/>
        <pt x="278" y="512" on="0"/>
        <pt x="331" y="487" on="0"/>
        <pt x="356" y="462" on="1"/>
        <pt x="350" y="534" on="1"/>
        <pt x="350" y="696" on="1"/>
        <pt x="522" y="696" on="1"/>
        <pt x="522" y="0" on="1"/>
        <pt x="382" y="0" on="1"/>
        <pt x="370" y="46" on="1"/>
        <pt x="366" y="46" on="1"/>
        <pt x="340" y="20" on="0"/>
        <pt x="272" y="-12" on="0"/>
        <pt x="240" y="-12" on="1"/>
      </contour>
      <contour>
        <pt x="307" y="128" on="0"/>
        <pt x="337" y="144" on="0"/>
        <pt x="350" y="164" on="1"/>
        <pt x="350" y="348" on="1"/>
        <pt x="323" y="372" on="0"/>
        <pt x="282" y="372" on="1"/>
        <pt x="252" y="372" on="0"/>
        <pt x="212" y="314" on="0"/>
        <pt x="212" y="252" on="1"/>
        <pt x="212" y="187" on="0"/>
        <pt x="250" y="128" on="0"/>
        <pt x="286" y="128" on="1"/>
      </contour>
    </TTGlyph>
    <TTGlyph name="dagger" xMin="40" yMin="-80" xMax="492" yMax="712">
      <contour>
        <pt x="208" y="418" on="1"/>
        <pt x="40" y="408" on="1"/>
        <pt x="40" y="544" on="1"/>
        <pt x="208" y="534" on="1"/>
        <pt x="198" y="712" on="1"/>
        <pt x="334" y="712" on="1"/>
        <pt x="324" y="534" on="1"/>
        <pt x="492" y="544" on="1"/>
        <pt x="492" y="408" on="1"/>
        <pt x="324" y="418" on="1"/>
        <pt x="334" y="-80" on="1"/>
        <pt x="198" y="-80" on="1"/>
      </contour>
    </TTGlyph>
    <TTGlyph name="dagger.lat" xMin="40" yMin="-80" xMax="492" yMax="712">
      <contour>
        <pt x="208" y="418" on="1"/>
        <pt x="40" y="408" on="1"/>
        <pt x="40" y="544" on="1"/>
        <pt x="208" y="534" on="1"/>
        <pt x="198" y="712" on="1"/>
        <pt x="334" y="712" on="1"/>
        <pt x="324" y="534" on="1"/>
        <pt x="492" y="544" on="1"/>
        <pt x="492" y="408" on="1"/>
        <pt x="324" y="418" on="1"/>
        <pt x="334" y="-80" on="1"/>
        <pt x="198" y="-80" on="1"/>
      </contour>
    </TTGlyph>
    <TTGlyph name="daggerdbl" xMin="40" yMin="-80" xMax="492" yMax="712">
      <contour>
        <pt x="208" y="98" on="1"/>
        <pt x="40" y="88" on="1"/>
        <pt x="40" y="224" on="1"/>
        <pt x="208" y="210" on="1"/>
        <pt x="198" y="316" on="1"/>
        <pt x="208" y="422" on="1"/>
        <pt x="40" y="408" on="1"/>
        <pt x="40" y="544" on="1"/>
        <pt x="208" y="534" on="1"/>
        <pt x="198" y="712" on="1"/>
        <pt x="334" y="712" on="1"/>
        <pt x="324" y="534" on="1"/>
        <pt x="492" y="544" on="1"/>
        <pt x="492" y="408" on="1"/>
        <pt x="324" y="422" on="1"/>
        <pt x="334" y="316" on="1"/>
        <pt x="324" y="210" on="1"/>
        <pt x="492" y="224" on="1"/>
        <pt x="492" y="88" on="1"/>
        <pt x="324" y="98" on="1"/>
        <pt x="334" y="-80" on="1"/>
        <pt x="198" y="-80" on="1"/>
      </contour>
    </TTGlyph>
    <TTGlyph name="daggerdbl.lat" xMin="40" yMin="-80" xMax="492" yMax="712">
      <contour>
        <pt x="208" y="98" on="1"/>
        <pt x="40" y="88" on="1"/>
        <pt x="40" y="224" on="1"/>
        <pt x="208" y="210" on="1"/>
        <pt x="198" y="316" on="1"/>
        <pt x="208" y="422" on="1"/>
        <pt x="40" y="408" on="1"/>
        <pt x="40" y="544" on="1"/>
        <pt x="208" y="534" on="1"/>
        <pt x="198" y="712" on="1"/>
        <pt x="334" y="712" on="1"/>
        <pt x="324" y="534" on="1"/>
        <pt x="492" y="544" on="1"/>
        <pt x="492" y="408" on="1"/>
        <pt x="324" y="422" on="1"/>
        <pt x="334" y="316" on="1"/>
        <pt x="324" y="210" on="1"/>
        <pt x="492" y="224" on="1"/>
        <pt x="492" y="88" on="1"/>
        <pt x="324" y="98" on="1"/>
        <pt x="334" y="-80" on="1"/>
        <pt x="198" y="-80" on="1"/>
      </contour>
    </TTGlyph>
    <TTGlyph name="degree" xMin="38" yMin="386" xMax="342" yMax="686">
      <contour>
        <pt x="148" y="386" on="0"/>
        <pt x="78" y="425" on="0"/>
        <pt x="38" y="494" on="0"/>
        <pt x="38" y="536" on="1"/>
        <pt x="38" y="578" on="0"/>
        <pt x="78" y="647" on="0"/>
        <pt x="148" y="686" on="0"/>
        <pt x="190" y="686" on="1"/>
        <pt x="232" y="686" on="0"/>
        <pt x="302" y="647" on="0"/>
        <pt x="342" y="578" on="0"/>
        <pt x="342" y="536" on="1"/>
        <pt x="342" y="494" on="0"/>
        <pt x="302" y="425" on="0"/>
        <pt x="232" y="386" on="0"/>
        <pt x="190" y="386" on="1"/>
      </contour>
      <contour>
        <pt x="219" y="466" on="0"/>
        <pt x="254" y="505" on="0"/>
        <pt x="254" y="536" on="1"/>
        <pt x="254" y="567" on="0"/>
        <pt x="219" y="606" on="0"/>
        <pt x="190" y="606" on="1"/>
        <pt x="161" y="606" on="0"/>
        <pt x="126" y="567" on="0"/>
        <pt x="126" y="536" on="1"/>
        <pt x="126" y="505" on="0"/>
        <pt x="161" y="466" on="0"/>
        <pt x="190" y="466" on="1"/>
      </contour>
    </TTGlyph>
    <TTGlyph name="degree.lat" xMin="38" yMin="386" xMax="342" yMax="686">
      <contour>
        <pt x="148" y="386" on="0"/>
        <pt x="78" y="425" on="0"/>
        <pt x="38" y="494" on="0"/>
        <pt x="38" y="536" on="1"/>
        <pt x="38" y="578" on="0"/>
        <pt x="78" y="647" on="0"/>
        <pt x="148" y="686" on="0"/>
        <pt x="190" y="686" on="1"/>
        <pt x="232" y="686" on="0"/>
        <pt x="302" y="647" on="0"/>
        <pt x="342" y="578" on="0"/>
        <pt x="342" y="536" on="1"/>
        <pt x="342" y="494" on="0"/>
        <pt x="302" y="425" on="0"/>
        <pt x="232" y="386" on="0"/>
        <pt x="190" y="386" on="1"/>
      </contour>
      <contour>
        <pt x="219" y="466" on="0"/>
        <pt x="254" y="505" on="0"/>
        <pt x="254" y="536" on="1"/>
        <pt x="254" y="567" on="0"/>
        <pt x="219" y="606" on="0"/>
        <pt x="190" y="606" on="1"/>
        <pt x="161" y="606" on="0"/>
        <pt x="126" y="567" on="0"/>
        <pt x="126" y="536" on="1"/>
        <pt x="126" y="505" on="0"/>
        <pt x="161" y="466" on="0"/>
        <pt x="190" y="466" on="1"/>
      </contour>
    </TTGlyph>
    <TTGlyph name="dieresis" xMin="86" yMin="562" xMax="474" yMax="722">
      <component glyphName="uni0308" x="280" y="0" flags="0x0"/>
    </TTGlyph>
    <TTGlyph name="divide" xMin="34" yMin="64" xMax="506" yMax="596">
      <contour>
        <pt x="231" y="424" on="0"/>
        <pt x="178" y="473" on="0"/>
        <pt x="178" y="510" on="1"/>
        <pt x="178" y="547" on="0"/>
        <pt x="231" y="596" on="0"/>
        <pt x="270" y="596" on="1"/>
        <pt x="309" y="596" on="0"/>
        <pt x="362" y="547" on="0"/>
        <pt x="362" y="510" on="1"/>
        <pt x="362" y="473" on="0"/>
        <pt x="309" y="424" on="0"/>
        <pt x="270" y="424" on="1"/>
      </contour>
      <contour>
        <pt x="34" y="390" on="1"/>
        <pt x="506" y="390" on="1"/>
        <pt x="506" y="270" on="1"/>
        <pt x="34" y="270" on="1"/>
      </contour>
      <contour>
        <pt x="231" y="64" on="0"/>
        <pt x="178" y="113" on="0"/>
        <pt x="178" y="150" on="1"/>
        <pt x="178" y="187" on="0"/>
        <pt x="231" y="236" on="0"/>
        <pt x="270" y="236" on="1"/>
        <pt x="309" y="236" on="0"/>
        <pt x="362" y="187" on="0"/>
        <pt x="362" y="150" on="1"/>
        <pt x="362" y="113" on="0"/>
        <pt x="309" y="64" on="0"/>
        <pt x="270" y="64" on="1"/>
      </contour>
    </TTGlyph>
    <TTGlyph name="dollar" xMin="34" yMin="-110" xMax="480" yMax="744">
      <contour>
        <pt x="480" y="119" on="0"/>
        <pt x="401" y="14" on="0"/>
        <pt x="324" y="-4" on="1"/>
        <pt x="324" y="-110" on="1"/>
        <pt x="212" y="-110" on="1"/>
        <pt x="212" y="-10" on="1"/>
        <pt x="165" y="-4" on="0"/>
        <pt x="69" y="34" on="0"/>
        <pt x="34" y="66" on="1"/>
        <pt x="108" y="182" on="1"/>
        <pt x="148" y="152" on="0"/>
        <pt x="214" y="126" on="0"/>
        <pt x="246" y="126" on="1"/>
        <pt x="283" y="126" on="0"/>
        <pt x="316" y="153" on="0"/>
        <pt x="316" y="182" on="1"/>
        <pt x="316" y="203" on="0"/>
        <pt x="272" y="236" on="0"/>
        <pt x="224" y="260" on="1"/>
        <pt x="172" y="287" on="0"/>
        <pt x="106" y="330" on="0"/>
        <pt x="58" y="400" on="0"/>
        <pt x="58" y="448" on="1"/>
        <pt x="58" y="524" on="0"/>
        <pt x="139" y="624" on="0"/>
        <pt x="212" y="640" on="1"/>
        <pt x="212" y="744" on="1"/>
        <pt x="324" y="744" on="1"/>
        <pt x="324" y="642" on="1"/>
        <pt x="408" y="629" on="0"/>
        <pt x="475" y="558" on="1"/>
        <pt x="390" y="460" on="1"/>
        <pt x="362" y="485" on="0"/>
        <pt x="313" y="508" on="0"/>
        <pt x="286" y="508" on="1"/>
        <pt x="252" y="508" on="0"/>
        <pt x="222" y="485" on="0"/>
        <pt x="222" y="456" on="1"/>
        <pt x="222" y="436" on="0"/>
        <pt x="265" y="406" on="0"/>
        <pt x="310" y="385" on="1"/>
        <pt x="363" y="359" on="0"/>
        <pt x="430" y="317" on="0"/>
        <pt x="480" y="245" on="0"/>
        <pt x="480" y="194" on="1"/>
      </contour>
    </TTGlyph>
    <TTGlyph name="dollar.lat" xMin="34" yMin="-110" xMax="480" yMax="744">
      <contour>
        <pt x="480" y="119" on="0"/>
        <pt x="401" y="14" on="0"/>
        <pt x="324" y="-4" on="1"/>
        <pt x="324" y="-110" on="1"/>
        <pt x="212" y="-110" on="1"/>
        <pt x="212" y="-10" on="1"/>
        <pt x="165" y="-4" on="0"/>
        <pt x="69" y="34" on="0"/>
        <pt x="34" y="66" on="1"/>
        <pt x="108" y="182" on="1"/>
        <pt x="148" y="152" on="0"/>
        <pt x="214" y="126" on="0"/>
        <pt x="246" y="126" on="1"/>
        <pt x="283" y="126" on="0"/>
        <pt x="316" y="153" on="0"/>
        <pt x="316" y="182" on="1"/>
        <pt x="316" y="203" on="0"/>
        <pt x="272" y="236" on="0"/>
        <pt x="224" y="260" on="1"/>
        <pt x="172" y="287" on="0"/>
        <pt x="106" y="330" on="0"/>
        <pt x="58" y="400" on="0"/>
        <pt x="58" y="448" on="1"/>
        <pt x="58" y="524" on="0"/>
        <pt x="139" y="624" on="0"/>
        <pt x="212" y="640" on="1"/>
        <pt x="212" y="744" on="1"/>
        <pt x="324" y="744" on="1"/>
        <pt x="324" y="642" on="1"/>
        <pt x="408" y="629" on="0"/>
        <pt x="475" y="558" on="1"/>
        <pt x="390" y="460" on="1"/>
        <pt x="362" y="485" on="0"/>
        <pt x="313" y="508" on="0"/>
        <pt x="286" y="508" on="1"/>
        <pt x="252" y="508" on="0"/>
        <pt x="222" y="485" on="0"/>
        <pt x="222" y="456" on="1"/>
        <pt x="222" y="436" on="0"/>
        <pt x="265" y="406" on="0"/>
        <pt x="310" y="385" on="1"/>
        <pt x="363" y="359" on="0"/>
        <pt x="430" y="317" on="0"/>
        <pt x="480" y="245" on="0"/>
        <pt x="480" y="194" on="1"/>
      </contour>
    </TTGlyph>
    <TTGlyph name="dotaccent" xMin="188" yMin="562" xMax="372" yMax="734">
      <component glyphName="uni0307" x="280" y="0" flags="0x0"/>
    </TTGlyph>
    <TTGlyph name="dotbelowcomb" xMin="-92" yMin="-234" xMax="92" yMax="-62">
      <contour>
        <pt x="-40" y="-234" on="0"/>
        <pt x="-92" y="-186" on="0"/>
        <pt x="-92" y="-148" on="1"/>
        <pt x="-92" y="-110" on="0"/>
        <pt x="-40" y="-62" on="0"/>
        <pt x="0" y="-62" on="1"/>
        <pt x="40" y="-62" on="0"/>
        <pt x="92" y="-110" on="0"/>
        <pt x="92" y="-148" on="1"/>
        <pt x="92" y="-186" on="0"/>
        <pt x="40" y="-234" on="0"/>
        <pt x="0" y="-234" on="1"/>
      </contour>
    </TTGlyph>
    <TTGlyph name="dotlessi" xMin="58" yMin="0" xMax="230" yMax="500">
      <contour>
        <pt x="58" y="500" on="1"/>
        <pt x="230" y="500" on="1"/>
        <pt x="230" y="0" on="1"/>
        <pt x="58" y="0" on="1"/>
      </contour>
    </TTGlyph>
    <TTGlyph name="dotlessj" xMin="-50" yMin="-188" xMax="240" yMax="500">
      <contour>
        <pt x="-12" y="-188" on="0"/>
        <pt x="-50" y="-174" on="1"/>
        <pt x="-20" y="-48" on="1"/>
        <pt x="1" y="-54" on="0"/>
        <pt x="16" y="-54" on="1"/>
        <pt x="43" y="-54" on="0"/>
        <pt x="66" y="-20" on="0"/>
        <pt x="66" y="20" on="1"/>
        <pt x="68" y="500" on="1"/>
        <pt x="240" y="500" on="1"/>
        <pt x="238" y="26" on="1"/>
        <pt x="238" y="-69" on="0"/>
        <pt x="148" y="-188" on="0"/>
        <pt x="44" y="-188" on="1"/>
      </contour>
    </TTGlyph>
    <TTGlyph name="e" xMin="32" yMin="-12" xMax="490" yMax="512">
      <contour>
        <pt x="490" y="226" on="0"/>
        <pt x="483" y="198" on="1"/>
        <pt x="195" y="198" on="1"/>
        <pt x="207" y="154" on="0"/>
        <pt x="272" y="118" on="0"/>
        <pt x="314" y="118" on="1"/>
        <pt x="362" y="118" on="0"/>
        <pt x="416" y="148" on="1"/>
        <pt x="472" y="46" on="1"/>
        <pt x="433" y="18" on="0"/>
        <pt x="334" y="-12" on="0"/>
        <pt x="290" y="-12" on="1"/>
        <pt x="216" y="-12" on="0"/>
        <pt x="99" y="50" on="0"/>
        <pt x="32" y="169" on="0"/>
        <pt x="32" y="250" on="1"/>
        <pt x="32" y="328" on="0"/>
        <pt x="100" y="447" on="0"/>
        <pt x="210" y="512" on="0"/>
        <pt x="272" y="512" on="1"/>
        <pt x="378" y="512" on="0"/>
        <pt x="490" y="376" on="0"/>
        <pt x="490" y="270" on="1"/>
      </contour>
      <contour>
        <pt x="344" y="310" on="1"/>
        <pt x="344" y="342" on="0"/>
        <pt x="312" y="382" on="0"/>
        <pt x="276" y="382" on="1"/>
        <pt x="248" y="382" on="0"/>
        <pt x="205" y="347" on="0"/>
        <pt x="195" y="310" on="1"/>
      </contour>
    </TTGlyph>
    <TTGlyph name="e.sups" xMin="22" yMin="360" xMax="330" yMax="708">
      <contour>
        <pt x="147" y="360" on="0"/>
        <pt x="68" y="402" on="0"/>
        <pt x="22" y="481" on="0"/>
        <pt x="22" y="534" on="1"/>
        <pt x="22" y="585" on="0"/>
        <pt x="66" y="665" on="0"/>
        <pt x="141" y="708" on="0"/>
        <pt x="184" y="708" on="1"/>
        <pt x="255" y="708" on="0"/>
        <pt x="330" y="617" on="0"/>
        <pt x="330" y="546" on="1"/>
        <pt x="330" y="523" on="0"/>
        <pt x="324" y="502" on="1"/>
        <pt x="136" y="502" on="1"/>
        <pt x="143" y="473" on="0"/>
        <pt x="182" y="450" on="0"/>
        <pt x="212" y="450" on="1"/>
        <pt x="249" y="450" on="0"/>
        <pt x="280" y="468" on="1"/>
        <pt x="320" y="398" on="1"/>
        <pt x="293" y="379" on="0"/>
        <pt x="226" y="360" on="0"/>
        <pt x="196" y="360" on="1"/>
      </contour>
      <contour>
        <pt x="230" y="568" on="1"/>
        <pt x="230" y="591" on="0"/>
        <pt x="208" y="618" on="0"/>
        <pt x="185" y="618" on="1"/>
        <pt x="142" y="618" on="0"/>
        <pt x="134" y="568" on="1"/>
      </contour>
    </TTGlyph>
    <TTGlyph name="eacute" xMin="32" yMin="-12" xMax="490" yMax="844">
      <component glyphName="e" x="0" y="0" flags="0x0"/>
      <component glyphName="acutecomb" x="280" y="0" flags="0x0"/>
    </TTGlyph>
    <TTGlyph name="ebreve" xMin="32" yMin="-12" xMax="490" yMax="748">
      <component glyphName="e" x="0" y="0" flags="0x0"/>
      <component glyphName="uni0306" x="280" y="0" flags="0x0"/>
    </TTGlyph>
    <TTGlyph name="ecircumflex" xMin="32" yMin="-12" xMax="490" yMax="746">
      <component glyphName="e" x="0" y="0" flags="0x0"/>
      <component glyphName="uni0302" x="280" y="0" flags="0x0"/>
    </TTGlyph>
    <TTGlyph name="edieresis" xMin="32" yMin="-12" xMax="490" yMax="722">
      <component glyphName="e" x="0" y="0" flags="0x0"/>
      <component glyphName="uni0308" x="280" y="0" flags="0x0"/>
    </TTGlyph>
    <TTGlyph name="egrave" xMin="32" yMin="-12" xMax="490" yMax="844">
      <component glyphName="e" x="0" y="0" flags="0x0"/>
      <component glyphName="gravecomb" x="280" y="0" flags="0x0"/>
    </TTGlyph>
    <TTGlyph name="eight" xMin="42" yMin="-12" xMax="500" yMax="646">
      <contour>
        <pt x="204" y="-12" on="0"/>
        <pt x="101" y="32" on="0"/>
        <pt x="42" y="111" on="0"/>
        <pt x="42" y="162" on="1"/>
        <pt x="42" y="214" on="0"/>
        <pt x="97" y="286" on="0"/>
        <pt x="146" y="312" on="1"/>
        <pt x="146" y="316" on="1"/>
        <pt x="106" y="347" on="0"/>
        <pt x="62" y="419" on="0"/>
        <pt x="62" y="466" on="1"/>
        <pt x="62" y="549" on="0"/>
        <pt x="180" y="646" on="0"/>
        <pt x="274" y="646" on="1"/>
        <pt x="363" y="646" on="0"/>
        <pt x="472" y="550" on="0"/>
        <pt x="472" y="470" on="1"/>
        <pt x="472" y="429" on="0"/>
        <pt x="427" y="360" on="0"/>
        <pt x="391" y="337" on="1"/>
        <pt x="391" y="333" on="1"/>
        <pt x="500" y="275" on="0"/>
        <pt x="500" y="166" on="1"/>
        <pt x="500" y="115" on="0"/>
        <pt x="442" y="34" on="0"/>
        <pt x="336" y="-12" on="0"/>
        <pt x="268" y="-12" on="1"/>
      </contour>
      <contour>
        <pt x="334" y="418" on="0"/>
        <pt x="334" y="458" on="1"/>
        <pt x="334" y="491" on="0"/>
        <pt x="300" y="528" on="0"/>
        <pt x="270" y="528" on="1"/>
        <pt x="245" y="528" on="0"/>
        <pt x="212" y="497" on="0"/>
        <pt x="212" y="466" on="1"/>
        <pt x="212" y="436" on="0"/>
        <pt x="257" y="398" on="0"/>
        <pt x="306" y="378" on="1"/>
      </contour>
      <contour>
        <pt x="303" y="106" on="0"/>
        <pt x="341" y="138" on="0"/>
        <pt x="341" y="172" on="1"/>
        <pt x="341" y="194" on="0"/>
        <pt x="314" y="225" on="0"/>
        <pt x="270" y="248" on="0"/>
        <pt x="222" y="268" on="1"/>
        <pt x="207" y="251" on="0"/>
        <pt x="189" y="205" on="0"/>
        <pt x="189" y="182" on="1"/>
        <pt x="189" y="146" on="0"/>
        <pt x="237" y="106" on="0"/>
        <pt x="272" y="106" on="1"/>
      </contour>
    </TTGlyph>
    <TTGlyph name="eight.heb" xMin="42" yMin="-12" xMax="500" yMax="646">
      <contour>
        <pt x="204" y="-12" on="0"/>
        <pt x="101" y="32" on="0"/>
        <pt x="42" y="111" on="0"/>
        <pt x="42" y="162" on="1"/>
        <pt x="42" y="214" on="0"/>
        <pt x="97" y="286" on="0"/>
        <pt x="146" y="312" on="1"/>
        <pt x="146" y="316" on="1"/>
        <pt x="106" y="347" on="0"/>
        <pt x="62" y="419" on="0"/>
        <pt x="62" y="466" on="1"/>
        <pt x="62" y="549" on="0"/>
        <pt x="180" y="646" on="0"/>
        <pt x="274" y="646" on="1"/>
        <pt x="363" y="646" on="0"/>
        <pt x="472" y="550" on="0"/>
        <pt x="472" y="470" on="1"/>
        <pt x="472" y="429" on="0"/>
        <pt x="427" y="360" on="0"/>
        <pt x="391" y="337" on="1"/>
        <pt x="391" y="333" on="1"/>
        <pt x="500" y="275" on="0"/>
        <pt x="500" y="166" on="1"/>
        <pt x="500" y="115" on="0"/>
        <pt x="442" y="34" on="0"/>
        <pt x="336" y="-12" on="0"/>
        <pt x="268" y="-12" on="1"/>
      </contour>
      <contour>
        <pt x="334" y="418" on="0"/>
        <pt x="334" y="458" on="1"/>
        <pt x="334" y="491" on="0"/>
        <pt x="300" y="528" on="0"/>
        <pt x="270" y="528" on="1"/>
        <pt x="245" y="528" on="0"/>
        <pt x="212" y="497" on="0"/>
        <pt x="212" y="466" on="1"/>
        <pt x="212" y="436" on="0"/>
        <pt x="257" y="398" on="0"/>
        <pt x="306" y="378" on="1"/>
      </contour>
      <contour>
        <pt x="303" y="106" on="0"/>
        <pt x="341" y="138" on="0"/>
        <pt x="341" y="172" on="1"/>
        <pt x="341" y="194" on="0"/>
        <pt x="314" y="225" on="0"/>
        <pt x="270" y="248" on="0"/>
        <pt x="222" y="268" on="1"/>
        <pt x="207" y="251" on="0"/>
        <pt x="189" y="205" on="0"/>
        <pt x="189" y="182" on="1"/>
        <pt x="189" y="146" on="0"/>
        <pt x="237" y="106" on="0"/>
        <pt x="272" y="106" on="1"/>
      </contour>
    </TTGlyph>
    <TTGlyph name="eight.lat" xMin="42" yMin="-12" xMax="500" yMax="646">
      <contour>
        <pt x="204" y="-12" on="0"/>
        <pt x="101" y="32" on="0"/>
        <pt x="42" y="111" on="0"/>
        <pt x="42" y="162" on="1"/>
        <pt x="42" y="214" on="0"/>
        <pt x="97" y="286" on="0"/>
        <pt x="146" y="312" on="1"/>
        <pt x="146" y="316" on="1"/>
        <pt x="106" y="347" on="0"/>
        <pt x="62" y="419" on="0"/>
        <pt x="62" y="466" on="1"/>
        <pt x="62" y="549" on="0"/>
        <pt x="180" y="646" on="0"/>
        <pt x="274" y="646" on="1"/>
        <pt x="363" y="646" on="0"/>
        <pt x="472" y="550" on="0"/>
        <pt x="472" y="470" on="1"/>
        <pt x="472" y="429" on="0"/>
        <pt x="427" y="360" on="0"/>
        <pt x="391" y="337" on="1"/>
        <pt x="391" y="333" on="1"/>
        <pt x="500" y="275" on="0"/>
        <pt x="500" y="166" on="1"/>
        <pt x="500" y="115" on="0"/>
        <pt x="442" y="34" on="0"/>
        <pt x="336" y="-12" on="0"/>
        <pt x="268" y="-12" on="1"/>
      </contour>
      <contour>
        <pt x="334" y="418" on="0"/>
        <pt x="334" y="458" on="1"/>
        <pt x="334" y="491" on="0"/>
        <pt x="300" y="528" on="0"/>
        <pt x="270" y="528" on="1"/>
        <pt x="245" y="528" on="0"/>
        <pt x="212" y="497" on="0"/>
        <pt x="212" y="466" on="1"/>
        <pt x="212" y="436" on="0"/>
        <pt x="257" y="398" on="0"/>
        <pt x="306" y="378" on="1"/>
      </contour>
      <contour>
        <pt x="303" y="106" on="0"/>
        <pt x="341" y="138" on="0"/>
        <pt x="341" y="172" on="1"/>
        <pt x="341" y="194" on="0"/>
        <pt x="314" y="225" on="0"/>
        <pt x="270" y="248" on="0"/>
        <pt x="222" y="268" on="1"/>
        <pt x="207" y="251" on="0"/>
        <pt x="189" y="205" on="0"/>
        <pt x="189" y="182" on="1"/>
        <pt x="189" y="146" on="0"/>
        <pt x="237" y="106" on="0"/>
        <pt x="272" y="106" on="1"/>
      </contour>
    </TTGlyph>
    <TTGlyph name="eight.pnumlat" xMin="50" yMin="-12" xMax="508" yMax="646">
      <component glyphName="eight.lat" x="8" y="0" flags="0x0"/>
    </TTGlyph>
    <TTGlyph name="ellipsis" xMin="66" yMin="-12" xMax="934" yMax="196">
      <component glyphName="period" x="6" y="0" flags="0x0"/>
      <component glyphName="period" x="340" y="0" flags="0x0"/>
      <component glyphName="period" x="674" y="0" flags="0x0"/>
    </TTGlyph>
    <TTGlyph name="emacron" xMin="32" yMin="-12" xMax="490" yMax="696">
      <component glyphName="e" x="0" y="0" flags="0x0"/>
      <component glyphName="uni0304" x="280" y="0" flags="0x0"/>
    </TTGlyph>
    <TTGlyph name="emdash" xMin="44" yMin="200" xMax="756" yMax="308">
      <contour>
        <pt x="44" y="308" on="1"/>
        <pt x="756" y="308" on="1"/>
        <pt x="756" y="200" on="1"/>
        <pt x="44" y="200" on="1"/>
      </contour>
    </TTGlyph>
    <TTGlyph name="emdash.lat" xMin="44" yMin="200" xMax="756" yMax="308">
      <contour>
        <pt x="44" y="308" on="1"/>
        <pt x="756" y="308" on="1"/>
        <pt x="756" y="200" on="1"/>
        <pt x="44" y="200" on="1"/>
      </contour>
    </TTGlyph>
    <TTGlyph name="endash" xMin="44" yMin="200" xMax="436" yMax="308">
      <contour>
        <pt x="44" y="308" on="1"/>
        <pt x="436" y="308" on="1"/>
        <pt x="436" y="200" on="1"/>
        <pt x="44" y="200" on="1"/>
      </contour>
    </TTGlyph>
    <TTGlyph name="endash.lat" xMin="44" yMin="200" xMax="436" yMax="308">
      <contour>
        <pt x="44" y="308" on="1"/>
        <pt x="436" y="308" on="1"/>
        <pt x="436" y="200" on="1"/>
        <pt x="44" y="200" on="1"/>
      </contour>
    </TTGlyph>
    <TTGlyph name="eogonek" xMin="32" yMin="-212" xMax="490" yMax="512">
      <contour>
        <pt x="316" y="-212" on="0"/>
        <pt x="254" y="-163" on="0"/>
        <pt x="254" y="-118" on="1"/>
        <pt x="254" y="-86" on="0"/>
        <pt x="286" y="-30" on="0"/>
        <pt x="308" y="-10" on="1"/>
        <pt x="298" y="-12" on="0"/>
        <pt x="290" y="-12" on="1"/>
        <pt x="216" y="-12" on="0"/>
        <pt x="99" y="50" on="0"/>
        <pt x="32" y="169" on="0"/>
        <pt x="32" y="250" on="1"/>
        <pt x="32" y="328" on="0"/>
        <pt x="100" y="447" on="0"/>
        <pt x="210" y="512" on="0"/>
        <pt x="272" y="512" on="1"/>
        <pt x="378" y="512" on="0"/>
        <pt x="490" y="376" on="0"/>
        <pt x="490" y="270" on="1"/>
        <pt x="490" y="226" on="0"/>
        <pt x="483" y="198" on="1"/>
        <pt x="198" y="198" on="1"/>
        <pt x="219" y="118" on="0"/>
        <pt x="314" y="118" on="1"/>
        <pt x="362" y="118" on="0"/>
        <pt x="416" y="148" on="1"/>
        <pt x="472" y="46" on="1"/>
        <pt x="408" y="2" on="0"/>
        <pt x="366" y="-48" on="0"/>
        <pt x="366" y="-78" on="1"/>
        <pt x="366" y="-95" on="0"/>
        <pt x="389" y="-112" on="0"/>
        <pt x="407" y="-112" on="1"/>
        <pt x="422" y="-112" on="0"/>
        <pt x="440" y="-100" on="1"/>
        <pt x="474" y="-176" on="1"/>
        <pt x="454" y="-192" on="0"/>
        <pt x="390" y="-212" on="0"/>
        <pt x="364" y="-212" on="1"/>
      </contour>
      <contour>
        <pt x="344" y="310" on="1"/>
        <pt x="344" y="342" on="0"/>
        <pt x="312" y="382" on="0"/>
        <pt x="276" y="382" on="1"/>
        <pt x="246" y="382" on="0"/>
        <pt x="203" y="346" on="0"/>
        <pt x="196" y="310" on="1"/>
      </contour>
    </TTGlyph>
    <TTGlyph name="eogonek.sups" xMin="22" yMin="360" xMax="330" yMax="708">
      <contour>
        <pt x="147" y="360" on="0"/>
        <pt x="68" y="402" on="0"/>
        <pt x="22" y="481" on="0"/>
        <pt x="22" y="534" on="1"/>
        <pt x="22" y="585" on="0"/>
        <pt x="66" y="665" on="0"/>
        <pt x="141" y="708" on="0"/>
        <pt x="184" y="708" on="1"/>
        <pt x="255" y="708" on="0"/>
        <pt x="330" y="617" on="0"/>
        <pt x="330" y="546" on="1"/>
        <pt x="330" y="523" on="0"/>
        <pt x="324" y="502" on="1"/>
        <pt x="136" y="502" on="1"/>
        <pt x="143" y="473" on="0"/>
        <pt x="182" y="450" on="0"/>
        <pt x="212" y="450" on="1"/>
        <pt x="249" y="450" on="0"/>
        <pt x="280" y="468" on="1"/>
        <pt x="320" y="398" on="1"/>
        <pt x="293" y="379" on="0"/>
        <pt x="226" y="360" on="0"/>
        <pt x="196" y="360" on="1"/>
      </contour>
      <contour>
        <pt x="230" y="568" on="1"/>
        <pt x="230" y="591" on="0"/>
        <pt x="208" y="618" on="0"/>
        <pt x="185" y="618" on="1"/>
        <pt x="142" y="618" on="0"/>
        <pt x="134" y="568" on="1"/>
      </contour>
    </TTGlyph>
    <TTGlyph name="equal" xMin="34" yMin="150" xMax="506" yMax="510">
      <component glyphName="minus" x="0" y="120" flags="0x4"/>
      <component glyphName="minus" x="0" y="-120" flags="0x4"/>
    </TTGlyph>
    <TTGlyph name="estimated" xMin="46" yMin="-11" xMax="755" yMax="661">
      <contour>
        <pt x="305" y="-11" on="0"/>
        <pt x="142" y="79" on="0"/>
        <pt x="46" y="234" on="0"/>
        <pt x="46" y="325" on="1"/>
        <pt x="46" y="416" on="0"/>
        <pt x="142" y="571" on="0"/>
        <pt x="305" y="661" on="0"/>
        <pt x="401" y="661" on="1"/>
        <pt x="497" y="661" on="0"/>
        <pt x="660" y="571" on="0"/>
        <pt x="755" y="417" on="0"/>
        <pt x="755" y="325" on="1"/>
        <pt x="755" y="316" on="1"/>
        <pt x="180" y="316" on="1"/>
        <pt x="176" y="316" on="0"/>
        <pt x="176" y="312" on="1"/>
        <pt x="176" y="129" on="1"/>
        <pt x="176" y="120" on="0"/>
        <pt x="184" y="108" on="1"/>
        <pt x="225" y="61" on="0"/>
        <pt x="339" y="9" on="0"/>
        <pt x="402" y="9" on="1"/>
        <pt x="469" y="9" on="0"/>
        <pt x="588" y="68" on="0"/>
        <pt x="630" y="120" on="1"/>
        <pt x="682" y="120" on="1"/>
        <pt x="632" y="59" on="0"/>
        <pt x="485" y="-11" on="0"/>
        <pt x="401" y="-11" on="1"/>
      </contour>
      <contour>
        <pt x="621" y="335" on="1"/>
        <pt x="626" y="335" on="0"/>
        <pt x="626" y="340" on="1"/>
        <pt x="626" y="524" on="1"/>
        <pt x="626" y="535" on="0"/>
        <pt x="617" y="546" on="1"/>
        <pt x="574" y="591" on="0"/>
        <pt x="463" y="641" on="0"/>
        <pt x="402" y="641" on="1"/>
        <pt x="339" y="641" on="0"/>
        <pt x="227" y="589" on="0"/>
        <pt x="185" y="543" on="1"/>
        <pt x="176" y="532" on="0"/>
        <pt x="176" y="520" on="1"/>
        <pt x="176" y="340" on="1"/>
        <pt x="176" y="335" on="0"/>
        <pt x="180" y="335" on="1"/>
      </contour>
    </TTGlyph>
    <TTGlyph name="eth" xMin="38" yMin="-12" xMax="520" yMax="744">
      <contour>
        <pt x="520" y="464" on="0"/>
        <pt x="520" y="270" on="1"/>
        <pt x="520" y="189" on="0"/>
        <pt x="461" y="61" on="0"/>
        <pt x="349" y="-12" on="0"/>
        <pt x="274" y="-12" on="1"/>
        <pt x="210" y="-12" on="0"/>
        <pt x="102" y="48" on="0"/>
        <pt x="38" y="158" on="0"/>
        <pt x="38" y="230" on="1"/>
        <pt x="38" y="300" on="0"/>
        <pt x="96" y="403" on="0"/>
        <pt x="189" y="458" on="0"/>
        <pt x="240" y="458" on="1"/>
        <pt x="298" y="458" on="0"/>
        <pt x="332" y="427" on="1"/>
        <pt x="307" y="488" on="0"/>
        <pt x="258" y="536" on="1"/>
        <pt x="116" y="465" on="1"/>
        <pt x="72" y="539" on="1"/>
        <pt x="183" y="595" on="1"/>
        <pt x="149" y="616" on="0"/>
        <pt x="103" y="640" on="1"/>
        <pt x="177" y="744" on="1"/>
        <pt x="257" y="703" on="0"/>
        <pt x="315" y="661" on="1"/>
        <pt x="458" y="733" on="1"/>
        <pt x="502" y="658" on="1"/>
        <pt x="386" y="600" on="1"/>
      </contour>
      <contour>
        <pt x="316" y="126" on="0"/>
        <pt x="360" y="191" on="0"/>
        <pt x="360" y="260" on="1"/>
        <pt x="360" y="287" on="0"/>
        <pt x="359" y="299" on="1"/>
        <pt x="326" y="332" on="0"/>
        <pt x="277" y="332" on="1"/>
        <pt x="240" y="332" on="0"/>
        <pt x="194" y="283" on="0"/>
        <pt x="194" y="230" on="1"/>
        <pt x="194" y="180" on="0"/>
        <pt x="243" y="126" on="0"/>
        <pt x="280" y="126" on="1"/>
      </contour>
    </TTGlyph>
    <TTGlyph name="exclam" xMin="80" yMin="-12" xMax="280" yMax="670">
      <contour>
        <pt x="100" y="522" on="1"/>
        <pt x="94" y="670" on="1"/>
        <pt x="266" y="670" on="1"/>
        <pt x="260" y="522" on="1"/>
        <pt x="236" y="244" on="1"/>
        <pt x="124" y="244" on="1"/>
      </contour>
      <contour>
        <pt x="137" y="-12" on="0"/>
        <pt x="80" y="48" on="0"/>
        <pt x="80" y="92" on="1"/>
        <pt x="80" y="136" on="0"/>
        <pt x="137" y="196" on="0"/>
        <pt x="180" y="196" on="1"/>
        <pt x="223" y="196" on="0"/>
        <pt x="280" y="136" on="0"/>
        <pt x="280" y="92" on="1"/>
        <pt x="280" y="48" on="0"/>
        <pt x="223" y="-12" on="0"/>
        <pt x="180" y="-12" on="1"/>
      </contour>
    </TTGlyph>
    <TTGlyph name="exclam.lat" xMin="80" yMin="-12" xMax="280" yMax="670">
      <contour>
        <pt x="100" y="522" on="1"/>
        <pt x="94" y="670" on="1"/>
        <pt x="266" y="670" on="1"/>
        <pt x="260" y="522" on="1"/>
        <pt x="236" y="244" on="1"/>
        <pt x="124" y="244" on="1"/>
      </contour>
      <contour>
        <pt x="137" y="-12" on="0"/>
        <pt x="80" y="48" on="0"/>
        <pt x="80" y="92" on="1"/>
        <pt x="80" y="136" on="0"/>
        <pt x="137" y="196" on="0"/>
        <pt x="180" y="196" on="1"/>
        <pt x="223" y="196" on="0"/>
        <pt x="280" y="136" on="0"/>
        <pt x="280" y="92" on="1"/>
        <pt x="280" y="48" on="0"/>
        <pt x="223" y="-12" on="0"/>
        <pt x="180" y="-12" on="1"/>
      </contour>
    </TTGlyph>
    <TTGlyph name="exclamdown" xMin="80" yMin="-170" xMax="280" yMax="512">
      <contour>
        <pt x="137" y="304" on="0"/>
        <pt x="80" y="364" on="0"/>
        <pt x="80" y="408" on="1"/>
        <pt x="80" y="452" on="0"/>
        <pt x="137" y="512" on="0"/>
        <pt x="180" y="512" on="1"/>
        <pt x="223" y="512" on="0"/>
        <pt x="280" y="452" on="0"/>
        <pt x="280" y="408" on="1"/>
        <pt x="280" y="364" on="0"/>
        <pt x="223" y="304" on="0"/>
        <pt x="180" y="304" on="1"/>
      </contour>
      <contour>
        <pt x="100" y="-22" on="1"/>
        <pt x="124" y="256" on="1"/>
        <pt x="236" y="256" on="1"/>
        <pt x="260" y="-22" on="1"/>
        <pt x="266" y="-170" on="1"/>
        <pt x="94" y="-170" on="1"/>
      </contour>
    </TTGlyph>
    <TTGlyph name="f" xMin="22" yMin="0" xMax="392" yMax="708">
      <contour>
        <pt x="287" y="574" on="0"/>
        <pt x="260" y="546" on="0"/>
        <pt x="260" y="512" on="1"/>
        <pt x="260" y="500" on="1"/>
        <pt x="344" y="500" on="1"/>
        <pt x="344" y="366" on="1"/>
        <pt x="260" y="366" on="1"/>
        <pt x="260" y="0" on="1"/>
        <pt x="88" y="0" on="1"/>
        <pt x="88" y="366" on="1"/>
        <pt x="22" y="366" on="1"/>
        <pt x="22" y="494" on="1"/>
        <pt x="88" y="499" on="1"/>
        <pt x="88" y="506" on="1"/>
        <pt x="88" y="595" on="0"/>
        <pt x="182" y="708" on="0"/>
        <pt x="286" y="708" on="1"/>
        <pt x="342" y="708" on="0"/>
        <pt x="392" y="690" on="1"/>
        <pt x="362" y="564" on="1"/>
        <pt x="335" y="574" on="0"/>
        <pt x="312" y="574" on="1"/>
      </contour>
    </TTGlyph>
    <TTGlyph name="fi" xMin="22" yMin="0" xMax="596" yMax="734">
      <component glyphName="f" x="0" y="0" flags="0x0"/>
      <component glyphName="dotlessi" x="360" y="0" flags="0x0"/>
      <component glyphName="uni0307" x="504" y="0" flags="0x0"/>
    </TTGlyph>
    <TTGlyph name="five" xMin="22" yMin="-12" xMax="492" yMax="634">
      <contour>
        <pt x="112" y="-12" on="0"/>
        <pt x="22" y="78" on="1"/>
        <pt x="98" y="186" on="1"/>
        <pt x="165" y="126" on="0"/>
        <pt x="226" y="126" on="1"/>
        <pt x="320" y="126" on="0"/>
        <pt x="320" y="208" on="1"/>
        <pt x="320" y="247" on="0"/>
        <pt x="273" y="290" on="0"/>
        <pt x="234" y="290" on="1"/>
        <pt x="209" y="290" on="0"/>
        <pt x="175" y="278" on="0"/>
        <pt x="146" y="260" on="1"/>
        <pt x="72" y="308" on="1"/>
        <pt x="88" y="634" on="1"/>
        <pt x="464" y="634" on="1"/>
        <pt x="464" y="490" on="1"/>
        <pt x="236" y="490" on="1"/>
        <pt x="228" y="398" on="1"/>
        <pt x="255" y="408" on="0"/>
        <pt x="288" y="408" on="1"/>
        <pt x="376" y="408" on="0"/>
        <pt x="492" y="308" on="0"/>
        <pt x="492" y="212" on="1"/>
        <pt x="492" y="143" on="0"/>
        <pt x="427" y="42" on="0"/>
        <pt x="317" y="-12" on="0"/>
        <pt x="252" y="-12" on="1"/>
      </contour>
    </TTGlyph>
    <TTGlyph name="five.heb" xMin="22" yMin="-12" xMax="492" yMax="634">
      <contour>
        <pt x="112" y="-12" on="0"/>
        <pt x="22" y="78" on="1"/>
        <pt x="98" y="186" on="1"/>
        <pt x="165" y="126" on="0"/>
        <pt x="226" y="126" on="1"/>
        <pt x="320" y="126" on="0"/>
        <pt x="320" y="208" on="1"/>
        <pt x="320" y="247" on="0"/>
        <pt x="273" y="290" on="0"/>
        <pt x="234" y="290" on="1"/>
        <pt x="209" y="290" on="0"/>
        <pt x="175" y="278" on="0"/>
        <pt x="146" y="260" on="1"/>
        <pt x="72" y="308" on="1"/>
        <pt x="88" y="634" on="1"/>
        <pt x="464" y="634" on="1"/>
        <pt x="464" y="490" on="1"/>
        <pt x="236" y="490" on="1"/>
        <pt x="228" y="398" on="1"/>
        <pt x="255" y="408" on="0"/>
        <pt x="288" y="408" on="1"/>
        <pt x="376" y="408" on="0"/>
        <pt x="492" y="308" on="0"/>
        <pt x="492" y="212" on="1"/>
        <pt x="492" y="143" on="0"/>
        <pt x="427" y="42" on="0"/>
        <pt x="317" y="-12" on="0"/>
        <pt x="252" y="-12" on="1"/>
      </contour>
    </TTGlyph>
    <TTGlyph name="five.lat" xMin="22" yMin="-12" xMax="492" yMax="634">
      <contour>
        <pt x="112" y="-12" on="0"/>
        <pt x="22" y="78" on="1"/>
        <pt x="98" y="186" on="1"/>
        <pt x="165" y="126" on="0"/>
        <pt x="226" y="126" on="1"/>
        <pt x="320" y="126" on="0"/>
        <pt x="320" y="208" on="1"/>
        <pt x="320" y="247" on="0"/>
        <pt x="273" y="290" on="0"/>
        <pt x="234" y="290" on="1"/>
        <pt x="209" y="290" on="0"/>
        <pt x="175" y="278" on="0"/>
        <pt x="146" y="260" on="1"/>
        <pt x="72" y="308" on="1"/>
        <pt x="88" y="634" on="1"/>
        <pt x="464" y="634" on="1"/>
        <pt x="464" y="490" on="1"/>
        <pt x="236" y="490" on="1"/>
        <pt x="228" y="398" on="1"/>
        <pt x="255" y="408" on="0"/>
        <pt x="288" y="408" on="1"/>
        <pt x="376" y="408" on="0"/>
        <pt x="492" y="308" on="0"/>
        <pt x="492" y="212" on="1"/>
        <pt x="492" y="143" on="0"/>
        <pt x="427" y="42" on="0"/>
        <pt x="317" y="-12" on="0"/>
        <pt x="252" y="-12" on="1"/>
      </contour>
    </TTGlyph>
    <TTGlyph name="five.pnumlat" xMin="22" yMin="-12" xMax="492" yMax="634">
      <component glyphName="five.lat" x="0" y="0" flags="0x0"/>
    </TTGlyph>
    <TTGlyph name="fl" xMin="22" yMin="-12" xMax="656" yMax="708">
      <component glyphName="f" x="0" y="0" flags="0x0"/>
      <component glyphName="l" x="360" y="0" flags="0x0"/>
    </TTGlyph>
    <TTGlyph name="florin" xMin="35" yMin="-96" xMax="506" yMax="662">
      <contour>
        <pt x="373" y="526" on="0"/>
        <pt x="366" y="468" on="1"/>
        <pt x="360" y="416" on="1"/>
        <pt x="454" y="416" on="1"/>
        <pt x="454" y="292" on="1"/>
        <pt x="345" y="292" on="1"/>
        <pt x="324" y="122" on="1"/>
        <pt x="312" y="19" on="0"/>
        <pt x="226" y="-96" on="0"/>
        <pt x="126" y="-96" on="1"/>
        <pt x="95" y="-95" on="0"/>
        <pt x="46" y="-87" on="0"/>
        <pt x="35" y="-81" on="1"/>
        <pt x="56" y="46" on="1"/>
        <pt x="74" y="40" on="0"/>
        <pt x="98" y="38" on="1"/>
        <pt x="121" y="39" on="0"/>
        <pt x="145" y="58" on="0"/>
        <pt x="162" y="115" on="0"/>
        <pt x="168" y="174" on="1"/>
        <pt x="181" y="292" on="1"/>
        <pt x="112" y="292" on="1"/>
        <pt x="112" y="410" on="1"/>
        <pt x="188" y="416" on="1"/>
        <pt x="196" y="416" on="1"/>
        <pt x="200" y="454" on="1"/>
        <pt x="209" y="531" on="0"/>
        <pt x="257" y="621" on="0"/>
        <pt x="346" y="662" on="0"/>
        <pt x="417" y="662" on="1"/>
        <pt x="435" y="662" on="0"/>
        <pt x="492" y="651" on="0"/>
        <pt x="506" y="644" on="1"/>
        <pt x="475" y="516" on="1"/>
        <pt x="473" y="517" on="0"/>
        <pt x="448" y="526" on="0"/>
        <pt x="432" y="526" on="1"/>
      </contour>
    </TTGlyph>
    <TTGlyph name="florin.lat" xMin="35" yMin="-96" xMax="506" yMax="662">
      <contour>
        <pt x="373" y="526" on="0"/>
        <pt x="366" y="468" on="1"/>
        <pt x="360" y="416" on="1"/>
        <pt x="454" y="416" on="1"/>
        <pt x="454" y="292" on="1"/>
        <pt x="345" y="292" on="1"/>
        <pt x="324" y="122" on="1"/>
        <pt x="312" y="19" on="0"/>
        <pt x="226" y="-96" on="0"/>
        <pt x="126" y="-96" on="1"/>
        <pt x="95" y="-95" on="0"/>
        <pt x="46" y="-87" on="0"/>
        <pt x="35" y="-81" on="1"/>
        <pt x="56" y="46" on="1"/>
        <pt x="74" y="40" on="0"/>
        <pt x="98" y="38" on="1"/>
        <pt x="121" y="39" on="0"/>
        <pt x="145" y="58" on="0"/>
        <pt x="162" y="115" on="0"/>
        <pt x="168" y="174" on="1"/>
        <pt x="181" y="292" on="1"/>
        <pt x="112" y="292" on="1"/>
        <pt x="112" y="410" on="1"/>
        <pt x="188" y="416" on="1"/>
        <pt x="196" y="416" on="1"/>
        <pt x="200" y="454" on="1"/>
        <pt x="209" y="531" on="0"/>
        <pt x="257" y="621" on="0"/>
        <pt x="346" y="662" on="0"/>
        <pt x="417" y="662" on="1"/>
        <pt x="435" y="662" on="0"/>
        <pt x="492" y="651" on="0"/>
        <pt x="506" y="644" on="1"/>
        <pt x="475" y="516" on="1"/>
        <pt x="473" y="517" on="0"/>
        <pt x="448" y="526" on="0"/>
        <pt x="432" y="526" on="1"/>
      </contour>
    </TTGlyph>
    <TTGlyph name="four" xMin="20" yMin="0" xMax="518" yMax="634">
      <contour>
        <pt x="518" y="142" on="1"/>
        <pt x="450" y="142" on="1"/>
        <pt x="450" y="0" on="1"/>
        <pt x="290" y="0" on="1"/>
        <pt x="290" y="142" on="1"/>
        <pt x="20" y="142" on="1"/>
        <pt x="20" y="262" on="1"/>
        <pt x="236" y="634" on="1"/>
        <pt x="450" y="634" on="1"/>
        <pt x="450" y="272" on="1"/>
        <pt x="518" y="272" on="1"/>
      </contour>
      <contour>
        <pt x="290" y="272" on="1"/>
        <pt x="290" y="344" on="1"/>
        <pt x="290" y="384" on="0"/>
        <pt x="294" y="460" on="1"/>
        <pt x="296" y="484" on="0"/>
        <pt x="296" y="494" on="1"/>
        <pt x="292" y="494" on="1"/>
        <pt x="276" y="456" on="0"/>
        <pt x="240" y="380" on="1"/>
        <pt x="182" y="272" on="1"/>
      </contour>
    </TTGlyph>
    <TTGlyph name="four.heb" xMin="20" yMin="0" xMax="518" yMax="634">
      <contour>
        <pt x="518" y="142" on="1"/>
        <pt x="450" y="142" on="1"/>
        <pt x="450" y="0" on="1"/>
        <pt x="290" y="0" on="1"/>
        <pt x="290" y="142" on="1"/>
        <pt x="20" y="142" on="1"/>
        <pt x="20" y="262" on="1"/>
        <pt x="236" y="634" on="1"/>
        <pt x="450" y="634" on="1"/>
        <pt x="450" y="272" on="1"/>
        <pt x="518" y="272" on="1"/>
      </contour>
      <contour>
        <pt x="290" y="272" on="1"/>
        <pt x="290" y="344" on="1"/>
        <pt x="290" y="384" on="0"/>
        <pt x="294" y="460" on="1"/>
        <pt x="296" y="484" on="0"/>
        <pt x="296" y="494" on="1"/>
        <pt x="292" y="494" on="1"/>
        <pt x="276" y="456" on="0"/>
        <pt x="240" y="380" on="1"/>
        <pt x="182" y="272" on="1"/>
      </contour>
    </TTGlyph>
    <TTGlyph name="four.lat" xMin="20" yMin="0" xMax="518" yMax="634">
      <contour>
        <pt x="518" y="142" on="1"/>
        <pt x="450" y="142" on="1"/>
        <pt x="450" y="0" on="1"/>
        <pt x="290" y="0" on="1"/>
        <pt x="290" y="142" on="1"/>
        <pt x="20" y="142" on="1"/>
        <pt x="20" y="262" on="1"/>
        <pt x="236" y="634" on="1"/>
        <pt x="450" y="634" on="1"/>
        <pt x="450" y="272" on="1"/>
        <pt x="518" y="272" on="1"/>
      </contour>
      <contour>
        <pt x="290" y="272" on="1"/>
        <pt x="290" y="344" on="1"/>
        <pt x="290" y="384" on="0"/>
        <pt x="294" y="460" on="1"/>
        <pt x="296" y="484" on="0"/>
        <pt x="296" y="494" on="1"/>
        <pt x="292" y="494" on="1"/>
        <pt x="276" y="456" on="0"/>
        <pt x="240" y="380" on="1"/>
        <pt x="182" y="272" on="1"/>
      </contour>
    </TTGlyph>
    <TTGlyph name="four.pnumlat" xMin="38" yMin="0" xMax="536" yMax="634">
      <component glyphName="four.lat" x="18" y="0" flags="0x0"/>
    </TTGlyph>
    <TTGlyph name="fraction" xMin="-172" yMin="-12" xMax="272" yMax="662">
      <contour>
        <pt x="176" y="662" on="1"/>
        <pt x="272" y="662" on="1"/>
        <pt x="-76" y="-12" on="1"/>
        <pt x="-172" y="-12" on="1"/>
      </contour>
    </TTGlyph>
    <TTGlyph name="fraction.lat" xMin="-172" yMin="-12" xMax="272" yMax="662">
      <contour>
        <pt x="176" y="662" on="1"/>
        <pt x="272" y="662" on="1"/>
        <pt x="-76" y="-12" on="1"/>
        <pt x="-172" y="-12" on="1"/>
      </contour>
    </TTGlyph>
    <TTGlyph name="g" xMin="30" yMin="-206" xMax="530" yMax="512">
      <contour>
        <pt x="147" y="-206" on="0"/>
        <pt x="30" y="-146" on="0"/>
        <pt x="30" y="-82" on="1"/>
        <pt x="30" y="-23" on="0"/>
        <pt x="100" y="14" on="1"/>
        <pt x="100" y="18" on="1"/>
        <pt x="54" y="50" on="0"/>
        <pt x="54" y="104" on="1"/>
        <pt x="54" y="129" on="0"/>
        <pt x="84" y="180" on="0"/>
        <pt x="110" y="198" on="1"/>
        <pt x="110" y="202" on="1"/>
        <pt x="81" y="222" on="0"/>
        <pt x="42" y="289" on="0"/>
        <pt x="42" y="330" on="1"/>
        <pt x="42" y="389" on="0"/>
        <pt x="101" y="471" on="0"/>
        <pt x="199" y="512" on="0"/>
        <pt x="256" y="512" on="1"/>
        <pt x="300" y="512" on="0"/>
        <pt x="336" y="500" on="1"/>
        <pt x="522" y="500" on="1"/>
        <pt x="522" y="376" on="1"/>
        <pt x="450" y="376" on="1"/>
        <pt x="458" y="352" on="0"/>
        <pt x="458" y="324" on="1"/>
        <pt x="458" y="240" on="0"/>
        <pt x="346" y="158" on="0"/>
        <pt x="256" y="158" on="1"/>
        <pt x="231" y="158" on="0"/>
        <pt x="200" y="165" on="1"/>
        <pt x="193" y="158" on="0"/>
        <pt x="188" y="147" on="0"/>
        <pt x="188" y="136" on="1"/>
        <pt x="188" y="120" on="0"/>
        <pt x="220" y="106" on="0"/>
        <pt x="258" y="106" on="1"/>
        <pt x="333" y="106" on="1"/>
        <pt x="430" y="106" on="0"/>
        <pt x="530" y="43" on="0"/>
        <pt x="530" y="-24" on="1"/>
        <pt x="530" y="-78" on="0"/>
        <pt x="459" y="-160" on="0"/>
        <pt x="328" y="-206" on="0"/>
        <pt x="240" y="-206" on="1"/>
      </contour>
      <contour>
        <pt x="281" y="260" on="0"/>
        <pt x="310" y="295" on="0"/>
        <pt x="310" y="330" on="1"/>
        <pt x="310" y="363" on="0"/>
        <pt x="281" y="398" on="0"/>
        <pt x="256" y="398" on="1"/>
        <pt x="231" y="398" on="0"/>
        <pt x="202" y="363" on="0"/>
        <pt x="202" y="330" on="1"/>
        <pt x="202" y="295" on="0"/>
        <pt x="231" y="260" on="0"/>
        <pt x="256" y="260" on="1"/>
      </contour>
      <contour>
        <pt x="311" y="-100" on="0"/>
        <pt x="366" y="-75" on="0"/>
        <pt x="366" y="-54" on="1"/>
        <pt x="366" y="-36" on="0"/>
        <pt x="335" y="-24" on="0"/>
        <pt x="299" y="-24" on="1"/>
        <pt x="260" y="-24" on="1"/>
        <pt x="209" y="-24" on="0"/>
        <pt x="188" y="-18" on="1"/>
        <pt x="170" y="-36" on="0"/>
        <pt x="170" y="-54" on="1"/>
        <pt x="170" y="-77" on="0"/>
        <pt x="223" y="-100" on="0"/>
        <pt x="268" y="-100" on="1"/>
      </contour>
    </TTGlyph>
    <TTGlyph name="gammalatin" xMin="12" yMin="-206" xMax="532" yMax="500">
      <contour>
        <pt x="387" y="104" on="1"/>
        <pt x="420" y="49" on="0"/>
        <pt x="446" y="-14" on="0"/>
        <pt x="446" y="-50" on="1"/>
        <pt x="446" y="-120" on="0"/>
        <pt x="353" y="-206" on="0"/>
        <pt x="276" y="-206" on="1"/>
        <pt x="199" y="-206" on="0"/>
        <pt x="106" y="-120" on="0"/>
        <pt x="106" y="-50" on="1"/>
        <pt x="106" y="-15" on="0"/>
        <pt x="132" y="47" on="0"/>
        <pt x="164" y="101" on="1"/>
        <pt x="12" y="500" on="1"/>
        <pt x="184" y="500" on="1"/>
        <pt x="238" y="312" on="1"/>
        <pt x="246" y="284" on="0"/>
        <pt x="254" y="262" on="1"/>
        <pt x="273" y="198" on="0"/>
        <pt x="274" y="195" on="1"/>
        <pt x="278" y="195" on="1"/>
        <pt x="279" y="198" on="0"/>
        <pt x="298" y="262" on="1"/>
        <pt x="306" y="284" on="0"/>
        <pt x="314" y="312" on="1"/>
        <pt x="368" y="500" on="1"/>
        <pt x="532" y="500" on="1"/>
      </contour>
      <contour>
        <pt x="290" y="-100" on="0"/>
        <pt x="308" y="-80" on="0"/>
        <pt x="308" y="-62" on="1"/>
        <pt x="308" y="-43" on="0"/>
        <pt x="294" y="-1" on="0"/>
        <pt x="277" y="30" on="1"/>
        <pt x="272" y="30" on="1"/>
        <pt x="257" y="-2" on="0"/>
        <pt x="244" y="-44" on="0"/>
        <pt x="244" y="-62" on="1"/>
        <pt x="244" y="-80" on="0"/>
        <pt x="262" y="-100" on="0"/>
        <pt x="276" y="-100" on="1"/>
      </contour>
    </TTGlyph>
    <TTGlyph name="gcaron" xMin="30" yMin="-206" xMax="530" yMax="766">
      <component glyphName="g" x="0" y="0" flags="0x0"/>
      <component glyphName="uni030C" x="280" y="0" flags="0x0"/>
    </TTGlyph>
    <TTGlyph name="gdotaccent" xMin="30" yMin="-206" xMax="530" yMax="734">
      <component glyphName="g" x="0" y="0" flags="0x0"/>
      <component glyphName="uni0307" x="280" y="0" flags="0x0"/>
    </TTGlyph>
    <TTGlyph name="germandbls" xMin="58" yMin="-12" xMax="628" yMax="706">
      <contour>
        <pt x="391" y="-12" on="0"/>
        <pt x="320" y="10" on="0"/>
        <pt x="280" y="32" on="1"/>
        <pt x="338" y="148" on="1"/>
        <pt x="383" y="114" on="0"/>
        <pt x="428" y="114" on="1"/>
        <pt x="448" y="114" on="0"/>
        <pt x="472" y="134" on="0"/>
        <pt x="472" y="150" on="1"/>
        <pt x="472" y="166" on="0"/>
        <pt x="442" y="191" on="0"/>
        <pt x="411" y="208" on="1"/>
        <pt x="378" y="227" on="0"/>
        <pt x="335" y="258" on="0"/>
        <pt x="304" y="309" on="0"/>
        <pt x="304" y="344" on="1"/>
        <pt x="304" y="368" on="0"/>
        <pt x="320" y="405" on="0"/>
        <pt x="336" y="429" on="1"/>
        <pt x="352" y="453" on="0"/>
        <pt x="368" y="489" on="0"/>
        <pt x="368" y="512" on="1"/>
        <pt x="368" y="538" on="0"/>
        <pt x="338" y="572" on="0"/>
        <pt x="312" y="572" on="1"/>
        <pt x="270" y="572" on="0"/>
        <pt x="228" y="511" on="0"/>
        <pt x="228" y="458" on="1"/>
        <pt x="228" y="0" on="1"/>
        <pt x="58" y="0" on="1"/>
        <pt x="58" y="476" on="1"/>
        <pt x="58" y="579" on="0"/>
        <pt x="186" y="706" on="0"/>
        <pt x="312" y="706" on="1"/>
        <pt x="383" y="706" on="0"/>
        <pt x="482" y="657" on="0"/>
        <pt x="532" y="578" on="0"/>
        <pt x="532" y="532" on="1"/>
        <pt x="532" y="495" on="0"/>
        <pt x="508" y="445" on="0"/>
        <pt x="486" y="417" on="1"/>
        <pt x="472" y="399" on="0"/>
        <pt x="460" y="378" on="0"/>
        <pt x="460" y="366" on="1"/>
        <pt x="460" y="353" on="0"/>
        <pt x="484" y="333" on="0"/>
        <pt x="513" y="316" on="1"/>
        <pt x="549" y="296" on="0"/>
        <pt x="594" y="261" on="0"/>
        <pt x="628" y="201" on="0"/>
        <pt x="628" y="158" on="1"/>
        <pt x="628" y="84" on="0"/>
        <pt x="528" y="-12" on="0"/>
        <pt x="434" y="-12" on="1"/>
      </contour>
    </TTGlyph>
    <TTGlyph name="glottalstopreversedsupmod" xMin="31" yMin="368" xMax="336" yMax="835">
      <contour>
        <pt x="131" y="533" on="1"/>
        <pt x="80" y="574" on="0"/>
        <pt x="31" y="646" on="0"/>
        <pt x="31" y="695" on="1"/>
        <pt x="31" y="762" on="0"/>
        <pt x="125" y="835" on="0"/>
        <pt x="194" y="835" on="1"/>
        <pt x="281" y="835" on="0"/>
        <pt x="336" y="775" on="1"/>
        <pt x="278" y="701" on="1"/>
        <pt x="263" y="719" on="0"/>
        <pt x="227" y="740" on="0"/>
        <pt x="208" y="740" on="1"/>
        <pt x="181" y="740" on="0"/>
        <pt x="150" y="715" on="0"/>
        <pt x="150" y="690" on="1"/>
        <pt x="150" y="662" on="0"/>
        <pt x="193" y="612" on="0"/>
        <pt x="250" y="575" on="1"/>
        <pt x="250" y="368" on="1"/>
        <pt x="131" y="368" on="1"/>
      </contour>
    </TTGlyph>
    <TTGlyph name="grave" xMin="70" yMin="572" xMax="344" yMax="844">
      <component glyphName="gravecomb" x="280" y="0" flags="0x0"/>
    </TTGlyph>
    <TTGlyph name="gravecomb" xMin="-210" yMin="572" xMax="64" yMax="844">
      <contour>
        <pt x="-210" y="730" on="1"/>
        <pt x="-94" y="844" on="1"/>
        <pt x="64" y="656" on="1"/>
        <pt x="-20" y="572" on="1"/>
      </contour>
    </TTGlyph>
    <TTGlyph name="gravecomb.cap" xMin="-188" yMin="674" xMax="84" yMax="904">
      <contour>
        <pt x="-188" y="794" on="1"/>
        <pt x="-98" y="904" on="1"/>
        <pt x="84" y="760" on="1"/>
        <pt x="8" y="674" on="1"/>
      </contour>
    </TTGlyph>
    <TTGlyph name="greater" xMin="34" yMin="94" xMax="506" yMax="570">
      <contour>
        <pt x="34" y="234" on="1"/>
        <pt x="196" y="284" on="1"/>
        <pt x="332" y="330" on="1"/>
        <pt x="332" y="334" on="1"/>
        <pt x="196" y="380" on="1"/>
        <pt x="34" y="430" on="1"/>
        <pt x="34" y="570" on="1"/>
        <pt x="506" y="390" on="1"/>
        <pt x="506" y="274" on="1"/>
        <pt x="34" y="94" on="1"/>
      </contour>
    </TTGlyph>
    <TTGlyph name="greaterequal" xMin="34" yMin="0" xMax="506" yMax="570">
      <contour>
        <pt x="34" y="294" on="1"/>
        <pt x="192" y="330" on="1"/>
        <pt x="332" y="360" on="1"/>
        <pt x="332" y="364" on="1"/>
        <pt x="192" y="394" on="1"/>
        <pt x="34" y="430" on="1"/>
        <pt x="34" y="570" on="1"/>
        <pt x="506" y="432" on="1"/>
        <pt x="506" y="292" on="1"/>
        <pt x="34" y="154" on="1"/>
      </contour>
      <contour>
        <pt x="34" y="120" on="1"/>
        <pt x="506" y="120" on="1"/>
        <pt x="506" y="0" on="1"/>
        <pt x="34" y="0" on="1"/>
      </contour>
    </TTGlyph>
    <TTGlyph name="guillemotleft" xMin="50" yMin="52" xMax="446" yMax="452">
      <component glyphName="guilsinglleft" x="0" y="0" flags="0x0"/>
      <component glyphName="guilsinglleft" x="200" y="0" flags="0x0"/>
    </TTGlyph>
    <TTGlyph name="guillemotleft.lat" xMin="50" yMin="52" xMax="446" yMax="452">
      <contour>
        <pt x="50" y="192" on="1"/>
        <pt x="50" y="312" on="1"/>
        <pt x="184" y="452" on="1"/>
        <pt x="246" y="402" on="1"/>
        <pt x="138" y="252" on="1"/>
        <pt x="246" y="102" on="1"/>
        <pt x="184" y="52" on="1"/>
      </contour>
      <contour>
        <pt x="250" y="192" on="1"/>
        <pt x="250" y="312" on="1"/>
        <pt x="384" y="452" on="1"/>
        <pt x="446" y="402" on="1"/>
        <pt x="338" y="252" on="1"/>
        <pt x="446" y="102" on="1"/>
        <pt x="384" y="52" on="1"/>
      </contour>
    </TTGlyph>
    <TTGlyph name="guillemotright" xMin="54" yMin="52" xMax="450" yMax="452">
      <component glyphName="guilsinglright" x="0" y="0" flags="0x0"/>
      <component glyphName="guilsinglright" x="200" y="0" flags="0x0"/>
    </TTGlyph>
    <TTGlyph name="guillemotright.lat" xMin="54" yMin="52" xMax="450" yMax="452">
      <contour>
        <pt x="54" y="102" on="1"/>
        <pt x="162" y="252" on="1"/>
        <pt x="54" y="402" on="1"/>
        <pt x="116" y="452" on="1"/>
        <pt x="250" y="312" on="1"/>
        <pt x="250" y="192" on="1"/>
        <pt x="116" y="52" on="1"/>
      </contour>
      <contour>
        <pt x="254" y="102" on="1"/>
        <pt x="362" y="252" on="1"/>
        <pt x="254" y="402" on="1"/>
        <pt x="316" y="452" on="1"/>
        <pt x="450" y="312" on="1"/>
        <pt x="450" y="192" on="1"/>
        <pt x="316" y="52" on="1"/>
      </contour>
    </TTGlyph>
    <TTGlyph name="guilsinglleft" xMin="50" yMin="52" xMax="246" yMax="452">
      <contour>
        <pt x="50" y="192" on="1"/>
        <pt x="50" y="312" on="1"/>
        <pt x="184" y="452" on="1"/>
        <pt x="246" y="402" on="1"/>
        <pt x="138" y="252" on="1"/>
        <pt x="246" y="102" on="1"/>
        <pt x="184" y="52" on="1"/>
      </contour>
    </TTGlyph>
    <TTGlyph name="guilsinglleft.lat" xMin="50" yMin="52" xMax="246" yMax="452">
      <contour>
        <pt x="50" y="192" on="1"/>
        <pt x="50" y="312" on="1"/>
        <pt x="184" y="452" on="1"/>
        <pt x="246" y="402" on="1"/>
        <pt x="138" y="252" on="1"/>
        <pt x="246" y="102" on="1"/>
        <pt x="184" y="52" on="1"/>
      </contour>
    </TTGlyph>
    <TTGlyph name="guilsinglright" xMin="54" yMin="52" xMax="250" yMax="452">
      <contour>
        <pt x="54" y="102" on="1"/>
        <pt x="162" y="252" on="1"/>
        <pt x="54" y="402" on="1"/>
        <pt x="116" y="452" on="1"/>
        <pt x="250" y="312" on="1"/>
        <pt x="250" y="192" on="1"/>
        <pt x="116" y="52" on="1"/>
      </contour>
    </TTGlyph>
    <TTGlyph name="guilsinglright.lat" xMin="54" yMin="52" xMax="250" yMax="452">
      <contour>
        <pt x="54" y="102" on="1"/>
        <pt x="162" y="252" on="1"/>
        <pt x="54" y="402" on="1"/>
        <pt x="116" y="452" on="1"/>
        <pt x="250" y="312" on="1"/>
        <pt x="250" y="192" on="1"/>
        <pt x="116" y="52" on="1"/>
      </contour>
    </TTGlyph>
    <TTGlyph name="h" xMin="58" yMin="0" xMax="528" yMax="696">
      <contour>
        <pt x="58" y="696" on="1"/>
        <pt x="230" y="696" on="1"/>
        <pt x="230" y="534" on="1"/>
        <pt x="222" y="448" on="1"/>
        <pt x="254" y="476" on="0"/>
        <pt x="326" y="512" on="0"/>
        <pt x="372" y="512" on="1"/>
        <pt x="452" y="512" on="0"/>
        <pt x="528" y="405" on="0"/>
        <pt x="528" y="308" on="1"/>
        <pt x="528" y="0" on="1"/>
        <pt x="356" y="0" on="1"/>
        <pt x="356" y="286" on="1"/>
        <pt x="356" y="332" on="0"/>
        <pt x="333" y="366" on="0"/>
        <pt x="306" y="366" on="1"/>
        <pt x="284" y="366" on="0"/>
        <pt x="252" y="349" on="0"/>
        <pt x="230" y="328" on="1"/>
        <pt x="230" y="0" on="1"/>
        <pt x="58" y="0" on="1"/>
      </contour>
    </TTGlyph>
    <TTGlyph name="hbar" xMin="-8" yMin="0" xMax="528" yMax="696">
      <contour>
        <pt x="452" y="460" on="0"/>
        <pt x="528" y="353" on="0"/>
        <pt x="528" y="256" on="1"/>
        <pt x="528" y="0" on="1"/>
        <pt x="356" y="0" on="1"/>
        <pt x="356" y="234" on="1"/>
        <pt x="356" y="280" on="0"/>
        <pt x="333" y="314" on="0"/>
        <pt x="306" y="314" on="1"/>
        <pt x="284" y="314" on="0"/>
        <pt x="252" y="297" on="0"/>
        <pt x="230" y="276" on="1"/>
        <pt x="230" y="0" on="1"/>
        <pt x="58" y="0" on="1"/>
        <pt x="58" y="550" on="1"/>
        <pt x="-8" y="550" on="1"/>
        <pt x="-8" y="624" on="1"/>
        <pt x="58" y="629" on="1"/>
        <pt x="58" y="696" on="1"/>
        <pt x="230" y="696" on="1"/>
        <pt x="230" y="630" on="1"/>
        <pt x="394" y="630" on="1"/>
        <pt x="394" y="550" on="1"/>
        <pt x="230" y="550" on="1"/>
        <pt x="230" y="482" on="1"/>
        <pt x="222" y="396" on="1"/>
        <pt x="254" y="424" on="0"/>
        <pt x="326" y="460" on="0"/>
        <pt x="372" y="460" on="1"/>
      </contour>
    </TTGlyph>
    <TTGlyph name="hungarumlaut" xMin="138" yMin="564" xMax="530" yMax="788">
      <component glyphName="uni030B" x="280" y="0" flags="0x0"/>
    </TTGlyph>
    <TTGlyph name="hyphen" xMin="44" yMin="194" xMax="296" yMax="314">
      <contour>
        <pt x="44" y="314" on="1"/>
        <pt x="296" y="314" on="1"/>
        <pt x="296" y="194" on="1"/>
        <pt x="44" y="194" on="1"/>
      </contour>
    </TTGlyph>
    <TTGlyph name="i" xMin="52" yMin="0" xMax="236" yMax="734">
      <component glyphName="dotlessi" x="0" y="0" flags="0x0"/>
      <component glyphName="uni0307" x="144" y="0" flags="0x0"/>
    </TTGlyph>
    <TTGlyph name="iacute" xMin="58" yMin="0" xMax="354" yMax="844">
      <component glyphName="dotlessi" x="0" y="0" flags="0x0"/>
      <component glyphName="acutecomb" x="144" y="0" flags="0x0"/>
    </TTGlyph>
    <TTGlyph name="icircumflex" xMin="-50" yMin="0" xMax="338" yMax="746">
      <component glyphName="dotlessi" x="0" y="0" flags="0x0"/>
      <component glyphName="uni0302" x="144" y="0" flags="0x0"/>
    </TTGlyph>
    <TTGlyph name="idieresis" xMin="-50" yMin="0" xMax="338" yMax="722">
      <component glyphName="dotlessi" x="0" y="0" flags="0x0"/>
      <component glyphName="uni0308" x="144" y="0" flags="0x0"/>
    </TTGlyph>
    <TTGlyph name="igrave" xMin="-66" yMin="0" xMax="230" yMax="844">
      <component glyphName="dotlessi" x="0" y="0" flags="0x0"/>
      <component glyphName="gravecomb" x="144" y="0" flags="0x0"/>
    </TTGlyph>
    <TTGlyph name="imacron" xMin="-10" yMin="0" xMax="298" yMax="696">
      <component glyphName="dotlessi" x="0" y="0" flags="0x0"/>
      <component glyphName="uni0304" x="144" y="0" flags="0x0"/>
    </TTGlyph>
    <TTGlyph name="infinity" xMin="36" yMin="100" xMax="790" yMax="550">
      <contour>
        <pt x="520" y="100" on="0"/>
        <pt x="425" y="153" on="0"/>
        <pt x="378" y="216" on="1"/>
        <pt x="374" y="216" on="1"/>
        <pt x="344" y="176" on="0"/>
        <pt x="263" y="128" on="0"/>
        <pt x="213" y="128" on="1"/>
        <pt x="164" y="128" on="0"/>
        <pt x="83" y="180" on="0"/>
        <pt x="36" y="266" on="0"/>
        <pt x="36" y="314" on="1"/>
        <pt x="36" y="418" on="0"/>
        <pt x="145" y="534" on="0"/>
        <pt x="236" y="534" on="1"/>
        <pt x="335" y="534" on="0"/>
        <pt x="398" y="446" on="1"/>
        <pt x="402" y="446" on="1"/>
        <pt x="443" y="498" on="0"/>
        <pt x="536" y="550" on="0"/>
        <pt x="593" y="550" on="1"/>
        <pt x="647" y="550" on="0"/>
        <pt x="737" y="496" on="0"/>
        <pt x="790" y="401" on="0"/>
        <pt x="790" y="342" on="1"/>
        <pt x="790" y="266" on="0"/>
        <pt x="734" y="157" on="0"/>
        <pt x="640" y="100" on="0"/>
        <pt x="583" y="100" on="1"/>
      </contour>
      <contour>
        <pt x="620" y="258" on="0"/>
        <pt x="666" y="305" on="0"/>
        <pt x="666" y="338" on="1"/>
        <pt x="666" y="379" on="0"/>
        <pt x="617" y="426" on="0"/>
        <pt x="576" y="426" on="1"/>
        <pt x="545" y="426" on="0"/>
        <pt x="484" y="390" on="0"/>
        <pt x="458" y="354" on="1"/>
        <pt x="492" y="306" on="0"/>
        <pt x="546" y="258" on="0"/>
        <pt x="582" y="258" on="1"/>
      </contour>
      <contour>
        <pt x="280" y="252" on="0"/>
        <pt x="318" y="308" on="1"/>
        <pt x="299" y="338" on="0"/>
        <pt x="248" y="376" on="0"/>
        <pt x="222" y="376" on="1"/>
        <pt x="191" y="376" on="0"/>
        <pt x="160" y="344" on="0"/>
        <pt x="160" y="318" on="1"/>
        <pt x="160" y="292" on="0"/>
        <pt x="196" y="252" on="0"/>
        <pt x="228" y="252" on="1"/>
      </contour>
    </TTGlyph>
    <TTGlyph name="integral" xMin="38" yMin="-158" xMax="384" yMax="792">
      <contour>
        <pt x="70" y="-158" on="0"/>
        <pt x="38" y="-150" on="1"/>
        <pt x="54" y="-26" on="1"/>
        <pt x="67" y="-30" on="0"/>
        <pt x="90" y="-30" on="1"/>
        <pt x="115" y="-30" on="0"/>
        <pt x="142" y="-7" on="0"/>
        <pt x="152" y="44" on="0"/>
        <pt x="152" y="92" on="1"/>
        <pt x="152" y="137" on="0"/>
        <pt x="145" y="220" on="0"/>
        <pt x="136" y="293" on="0"/>
        <pt x="135" y="304" on="1"/>
        <pt x="116" y="441" on="0"/>
        <pt x="116" y="538" on="1"/>
        <pt x="116" y="618" on="0"/>
        <pt x="149" y="728" on="0"/>
        <pt x="240" y="792" on="0"/>
        <pt x="323" y="792" on="1"/>
        <pt x="352" y="792" on="0"/>
        <pt x="384" y="784" on="1"/>
        <pt x="368" y="660" on="1"/>
        <pt x="355" y="664" on="0"/>
        <pt x="332" y="664" on="1"/>
        <pt x="295" y="664" on="0"/>
        <pt x="270" y="611" on="0"/>
        <pt x="270" y="542" on="1"/>
        <pt x="270" y="497" on="0"/>
        <pt x="277" y="414" on="0"/>
        <pt x="286" y="341" on="0"/>
        <pt x="287" y="330" on="1"/>
        <pt x="306" y="193" on="0"/>
        <pt x="306" y="96" on="1"/>
        <pt x="306" y="16" on="0"/>
        <pt x="273" y="-94" on="0"/>
        <pt x="182" y="-158" on="0"/>
        <pt x="99" y="-158" on="1"/>
      </contour>
    </TTGlyph>
    <TTGlyph name="ismall" xMin="54" yMin="0" xMax="362" yMax="500">
      <contour>
        <pt x="54" y="134" on="1"/>
        <pt x="122" y="134" on="1"/>
        <pt x="122" y="366" on="1"/>
        <pt x="54" y="366" on="1"/>
        <pt x="54" y="500" on="1"/>
        <pt x="362" y="500" on="1"/>
        <pt x="362" y="366" on="1"/>
        <pt x="294" y="366" on="1"/>
        <pt x="294" y="134" on="1"/>
        <pt x="362" y="134" on="1"/>
        <pt x="362" y="0" on="1"/>
        <pt x="54" y="0" on="1"/>
      </contour>
    </TTGlyph>
    <TTGlyph name="j" xMin="-50" yMin="-188" xMax="240" yMax="734">
      <contour>
        <pt x="106" y="562" on="0"/>
        <pt x="54" y="610" on="0"/>
        <pt x="54" y="648" on="1"/>
        <pt x="54" y="686" on="0"/>
        <pt x="106" y="734" on="0"/>
        <pt x="146" y="734" on="1"/>
        <pt x="186" y="734" on="0"/>
        <pt x="238" y="686" on="0"/>
        <pt x="238" y="648" on="1"/>
        <pt x="238" y="610" on="0"/>
        <pt x="186" y="562" on="0"/>
        <pt x="146" y="562" on="1"/>
      </contour>
      <contour>
        <pt x="240" y="500" on="1"/>
        <pt x="238" y="26" on="1"/>
        <pt x="238" y="-69" on="0"/>
        <pt x="148" y="-188" on="0"/>
        <pt x="44" y="-188" on="1"/>
        <pt x="-12" y="-188" on="0"/>
        <pt x="-50" y="-174" on="1"/>
        <pt x="-20" y="-48" on="1"/>
        <pt x="1" y="-54" on="0"/>
        <pt x="16" y="-54" on="1"/>
        <pt x="43" y="-54" on="0"/>
        <pt x="66" y="-20" on="0"/>
        <pt x="66" y="20" on="1"/>
        <pt x="68" y="500" on="1"/>
      </contour>
    </TTGlyph>
    <TTGlyph name="j.sups" xMin="-36" yMin="236" xMax="166" yMax="854">
      <contour>
        <pt x="71" y="738" on="0"/>
        <pt x="34" y="770" on="0"/>
        <pt x="34" y="796" on="1"/>
        <pt x="34" y="822" on="0"/>
        <pt x="71" y="854" on="0"/>
        <pt x="100" y="854" on="1"/>
        <pt x="129" y="854" on="0"/>
        <pt x="166" y="821" on="0"/>
        <pt x="166" y="796" on="1"/>
        <pt x="166" y="771" on="0"/>
        <pt x="129" y="738" on="0"/>
        <pt x="100" y="738" on="1"/>
      </contour>
      <contour>
        <pt x="-8" y="236" on="0"/>
        <pt x="-36" y="244" on="1"/>
        <pt x="-16" y="332" on="1"/>
        <pt x="-4" y="328" on="0"/>
        <pt x="10" y="328" on="1"/>
        <pt x="27" y="328" on="0"/>
        <pt x="40" y="349" on="0"/>
        <pt x="40" y="376" on="1"/>
        <pt x="40" y="700" on="1"/>
        <pt x="160" y="700" on="1"/>
        <pt x="160" y="380" on="1"/>
        <pt x="160" y="317" on="0"/>
        <pt x="99" y="236" on="0"/>
        <pt x="28" y="236" on="1"/>
      </contour>
    </TTGlyph>
    <TTGlyph name="k" xMin="58" yMin="0" xMax="564" yMax="696">
      <contour>
        <pt x="58" y="696" on="1"/>
        <pt x="226" y="696" on="1"/>
        <pt x="226" y="326" on="1"/>
        <pt x="230" y="326" on="1"/>
        <pt x="368" y="500" on="1"/>
        <pt x="554" y="500" on="1"/>
        <pt x="376" y="292" on="1"/>
        <pt x="564" y="0" on="1"/>
        <pt x="378" y="0" on="1"/>
        <pt x="278" y="178" on="1"/>
        <pt x="226" y="120" on="1"/>
        <pt x="226" y="0" on="1"/>
        <pt x="58" y="0" on="1"/>
      </contour>
    </TTGlyph>
    <TTGlyph name="l" xMin="58" yMin="-12" xMax="296" yMax="696">
      <contour>
        <pt x="129" y="-12" on="0"/>
        <pt x="58" y="86" on="0"/>
        <pt x="58" y="176" on="1"/>
        <pt x="58" y="696" on="1"/>
        <pt x="230" y="696" on="1"/>
        <pt x="230" y="170" on="1"/>
        <pt x="230" y="147" on="0"/>
        <pt x="247" y="126" on="0"/>
        <pt x="258" y="126" on="1"/>
        <pt x="268" y="126" on="0"/>
        <pt x="276" y="128" on="1"/>
        <pt x="296" y="2" on="1"/>
        <pt x="265" y="-12" on="0"/>
        <pt x="212" y="-12" on="1"/>
      </contour>
    </TTGlyph>
    <TTGlyph name="lefttorightembed" xMin="-129" yMin="767" xMax="144" yMax="984">
      <contour>
        <pt x="14" y="792" on="1"/>
        <pt x="77" y="858" on="1"/>
        <pt x="1" y="858" on="1"/>
        <pt x="1" y="894" on="1"/>
        <pt x="77" y="894" on="1"/>
        <pt x="14" y="957" on="1"/>
        <pt x="39" y="984" on="1"/>
        <pt x="144" y="875" on="1"/>
        <pt x="39" y="767" on="1"/>
      </contour>
      <contour>
        <pt x="-129" y="894" on="1"/>
        <pt x="-41" y="894" on="1"/>
        <pt x="-41" y="858" on="1"/>
        <pt x="-129" y="858" on="1"/>
      </contour>
    </TTGlyph>
    <TTGlyph name="less" xMin="34" yMin="94" xMax="506" yMax="570">
      <contour>
        <pt x="34" y="274" on="1"/>
        <pt x="34" y="390" on="1"/>
        <pt x="506" y="570" on="1"/>
        <pt x="506" y="430" on="1"/>
        <pt x="344" y="380" on="1"/>
        <pt x="208" y="334" on="1"/>
        <pt x="208" y="330" on="1"/>
        <pt x="344" y="284" on="1"/>
        <pt x="506" y="234" on="1"/>
        <pt x="506" y="94" on="1"/>
      </contour>
    </TTGlyph>
    <TTGlyph name="lessequal" xMin="34" yMin="0" xMax="506" yMax="570">
      <contour>
        <pt x="34" y="292" on="1"/>
        <pt x="34" y="432" on="1"/>
        <pt x="506" y="570" on="1"/>
        <pt x="506" y="430" on="1"/>
        <pt x="348" y="394" on="1"/>
        <pt x="208" y="364" on="1"/>
        <pt x="208" y="360" on="1"/>
        <pt x="348" y="330" on="1"/>
        <pt x="506" y="294" on="1"/>
        <pt x="506" y="154" on="1"/>
      </contour>
      <contour>
        <pt x="34" y="120" on="1"/>
        <pt x="506" y="120" on="1"/>
        <pt x="506" y="0" on="1"/>
        <pt x="34" y="0" on="1"/>
      </contour>
    </TTGlyph>
    <TTGlyph name="litre" xMin="6" yMin="-12" xMax="504" yMax="708">
      <contour>
        <pt x="504" y="70" on="1"/>
        <pt x="460" y="33" on="0"/>
        <pt x="371" y="-12" on="0"/>
        <pt x="320" y="-12" on="1"/>
        <pt x="247" y="-12" on="0"/>
        <pt x="136" y="61" on="0"/>
        <pt x="117" y="128" on="1"/>
        <pt x="85" y="110" on="0"/>
        <pt x="69" y="100" on="1"/>
        <pt x="6" y="204" on="1"/>
        <pt x="51" y="230" on="1"/>
        <pt x="108" y="264" on="1"/>
        <pt x="108" y="455" on="1"/>
        <pt x="108" y="580" on="0"/>
        <pt x="219" y="708" on="0"/>
        <pt x="312" y="708" on="1"/>
        <pt x="391" y="708" on="0"/>
        <pt x="486" y="614" on="0"/>
        <pt x="486" y="534" on="1"/>
        <pt x="486" y="473" on="0"/>
        <pt x="445" y="374" on="0"/>
        <pt x="354" y="282" on="0"/>
        <pt x="276" y="228" on="1"/>
        <pt x="276" y="209" on="1"/>
        <pt x="276" y="169" on="0"/>
        <pt x="316" y="130" on="0"/>
        <pt x="348" y="130" on="1"/>
        <pt x="373" y="130" on="0"/>
        <pt x="418" y="154" on="0"/>
        <pt x="442" y="174" on="1"/>
      </contour>
      <contour>
        <pt x="276" y="380" on="1"/>
        <pt x="313" y="415" on="0"/>
        <pt x="348" y="488" on="0"/>
        <pt x="348" y="534" on="1"/>
        <pt x="348" y="558" on="0"/>
        <pt x="332" y="584" on="0"/>
        <pt x="318" y="584" on="1"/>
        <pt x="300" y="584" on="0"/>
        <pt x="276" y="534" on="0"/>
        <pt x="276" y="477" on="1"/>
      </contour>
    </TTGlyph>
    <TTGlyph name="logicalnot" xMin="34" yMin="90" xMax="506" yMax="390">
      <contour>
        <pt x="382" y="270" on="1"/>
        <pt x="34" y="270" on="1"/>
        <pt x="34" y="390" on="1"/>
        <pt x="506" y="390" on="1"/>
        <pt x="506" y="90" on="1"/>
        <pt x="382" y="90" on="1"/>
      </contour>
    </TTGlyph>
    <TTGlyph name="lozenge" xMin="50" yMin="-10" xMax="510" yMax="670">
      <contour>
        <pt x="50" y="330" on="1"/>
        <pt x="212" y="670" on="1"/>
        <pt x="348" y="670" on="1"/>
        <pt x="510" y="330" on="1"/>
        <pt x="348" y="-10" on="1"/>
        <pt x="212" y="-10" on="1"/>
      </contour>
      <contour>
        <pt x="282" y="134" on="1"/>
        <pt x="332" y="250" on="1"/>
        <pt x="370" y="330" on="1"/>
        <pt x="332" y="410" on="1"/>
        <pt x="282" y="526" on="1"/>
        <pt x="278" y="526" on="1"/>
        <pt x="228" y="410" on="1"/>
        <pt x="190" y="330" on="1"/>
        <pt x="228" y="250" on="1"/>
        <pt x="278" y="134" on="1"/>
      </contour>
    </TTGlyph>
    <TTGlyph name="lslash" xMin="-28" yMin="-12" xMax="346" yMax="696">
      <contour>
        <pt x="280" y="126" on="0"/>
        <pt x="288" y="128" on="1"/>
        <pt x="308" y="2" on="1"/>
        <pt x="277" y="-12" on="0"/>
        <pt x="224" y="-12" on="1"/>
        <pt x="141" y="-12" on="0"/>
        <pt x="70" y="86" on="0"/>
        <pt x="70" y="176" on="1"/>
        <pt x="70" y="255" on="1"/>
        <pt x="30" y="232" on="1"/>
        <pt x="-28" y="338" on="1"/>
        <pt x="70" y="392" on="1"/>
        <pt x="70" y="696" on="1"/>
        <pt x="242" y="696" on="1"/>
        <pt x="242" y="474" on="1"/>
        <pt x="288" y="500" on="1"/>
        <pt x="346" y="394" on="1"/>
        <pt x="242" y="338" on="1"/>
        <pt x="242" y="170" on="1"/>
        <pt x="242" y="147" on="0"/>
        <pt x="259" y="126" on="0"/>
        <pt x="270" y="126" on="1"/>
      </contour>
    </TTGlyph>
    <TTGlyph name="m" xMin="58" yMin="0" xMax="814" yMax="512">
      <contour>
        <pt x="58" y="500" on="1"/>
        <pt x="198" y="500" on="1"/>
        <pt x="210" y="439" on="1"/>
        <pt x="214" y="439" on="1"/>
        <pt x="250" y="474" on="0"/>
        <pt x="318" y="512" on="0"/>
        <pt x="364" y="512" on="1"/>
        <pt x="414" y="512" on="0"/>
        <pt x="481" y="472" on="0"/>
        <pt x="502" y="432" on="1"/>
        <pt x="539" y="470" on="0"/>
        <pt x="610" y="512" on="0"/>
        <pt x="656" y="512" on="1"/>
        <pt x="736" y="512" on="0"/>
        <pt x="814" y="404" on="0"/>
        <pt x="814" y="308" on="1"/>
        <pt x="814" y="0" on="1"/>
        <pt x="642" y="0" on="1"/>
        <pt x="642" y="286" on="1"/>
        <pt x="642" y="332" on="0"/>
        <pt x="619" y="366" on="0"/>
        <pt x="592" y="366" on="1"/>
        <pt x="560" y="366" on="0"/>
        <pt x="522" y="328" on="1"/>
        <pt x="522" y="0" on="1"/>
        <pt x="350" y="0" on="1"/>
        <pt x="350" y="286" on="1"/>
        <pt x="350" y="332" on="0"/>
        <pt x="327" y="366" on="0"/>
        <pt x="300" y="366" on="1"/>
        <pt x="268" y="366" on="0"/>
        <pt x="230" y="328" on="1"/>
        <pt x="230" y="0" on="1"/>
        <pt x="58" y="0" on="1"/>
      </contour>
    </TTGlyph>
    <TTGlyph name="macron" xMin="126" yMin="588" xMax="434" yMax="696">
      <component glyphName="uni0304" x="280" y="0" flags="0x0"/>
    </TTGlyph>
    <TTGlyph name="minus" xMin="34" yMin="270" xMax="506" yMax="390">
      <contour>
        <pt x="34" y="390" on="1"/>
        <pt x="506" y="390" on="1"/>
        <pt x="506" y="270" on="1"/>
        <pt x="34" y="270" on="1"/>
      </contour>
    </TTGlyph>
    <TTGlyph name="multiply" xMin="47" yMin="106" xMax="493" yMax="552">
      <contour>
        <pt x="47" y="191" on="1"/>
        <pt x="185" y="329" on="1"/>
        <pt x="47" y="467" on="1"/>
        <pt x="132" y="552" on="1"/>
        <pt x="270" y="414" on="1"/>
        <pt x="408" y="552" on="1"/>
        <pt x="493" y="467" on="1"/>
        <pt x="355" y="329" on="1"/>
        <pt x="493" y="191" on="1"/>
        <pt x="408" y="106" on="1"/>
        <pt x="270" y="244" on="1"/>
        <pt x="132" y="106" on="1"/>
      </contour>
    </TTGlyph>
    <TTGlyph name="n" xMin="58" yMin="0" xMax="528" yMax="512">
      <contour>
        <pt x="58" y="500" on="1"/>
        <pt x="198" y="500" on="1"/>
        <pt x="210" y="440" on="1"/>
        <pt x="214" y="440" on="1"/>
        <pt x="249" y="473" on="0"/>
        <pt x="325" y="512" on="0"/>
        <pt x="372" y="512" on="1"/>
        <pt x="452" y="512" on="0"/>
        <pt x="528" y="405" on="0"/>
        <pt x="528" y="308" on="1"/>
        <pt x="528" y="0" on="1"/>
        <pt x="356" y="0" on="1"/>
        <pt x="356" y="286" on="1"/>
        <pt x="356" y="332" on="0"/>
        <pt x="333" y="366" on="0"/>
        <pt x="306" y="366" on="1"/>
        <pt x="284" y="366" on="0"/>
        <pt x="252" y="349" on="0"/>
        <pt x="230" y="328" on="1"/>
        <pt x="230" y="0" on="1"/>
        <pt x="58" y="0" on="1"/>
      </contour>
    </TTGlyph>
    <TTGlyph name="nine" xMin="32" yMin="-12" xMax="500" yMax="646">
      <contour>
        <pt x="317" y="646" on="0"/>
        <pt x="430" y="580" on="0"/>
        <pt x="500" y="437" on="0"/>
        <pt x="500" y="328" on="1"/>
        <pt x="500" y="218" on="0"/>
        <pt x="428" y="64" on="0"/>
        <pt x="308" y="-12" on="0"/>
        <pt x="238" y="-12" on="1"/>
        <pt x="175" y="-12" on="0"/>
        <pt x="75" y="33" on="0"/>
        <pt x="40" y="68" on="1"/>
        <pt x="130" y="170" on="1"/>
        <pt x="146" y="152" on="0"/>
        <pt x="200" y="126" on="0"/>
        <pt x="226" y="126" on="1"/>
        <pt x="335" y="126" on="0"/>
        <pt x="343" y="297" on="1"/>
        <pt x="321" y="268" on="0"/>
        <pt x="252" y="234" on="0"/>
        <pt x="224" y="234" on="1"/>
        <pt x="138" y="234" on="0"/>
        <pt x="32" y="332" on="0"/>
        <pt x="32" y="430" on="1"/>
        <pt x="32" y="496" on="0"/>
        <pt x="91" y="594" on="0"/>
        <pt x="191" y="646" on="0"/>
        <pt x="252" y="646" on="1"/>
      </contour>
      <contour>
        <pt x="307" y="354" on="0"/>
        <pt x="339" y="408" on="1"/>
        <pt x="329" y="469" on="0"/>
        <pt x="284" y="518" on="0"/>
        <pt x="256" y="518" on="1"/>
        <pt x="226" y="518" on="0"/>
        <pt x="188" y="477" on="0"/>
        <pt x="188" y="430" on="1"/>
        <pt x="188" y="354" on="0"/>
        <pt x="258" y="354" on="1"/>
      </contour>
    </TTGlyph>
    <TTGlyph name="nine.heb" xMin="32" yMin="-12" xMax="500" yMax="646">
      <contour>
        <pt x="317" y="646" on="0"/>
        <pt x="430" y="580" on="0"/>
        <pt x="500" y="437" on="0"/>
        <pt x="500" y="328" on="1"/>
        <pt x="500" y="218" on="0"/>
        <pt x="428" y="64" on="0"/>
        <pt x="308" y="-12" on="0"/>
        <pt x="238" y="-12" on="1"/>
        <pt x="175" y="-12" on="0"/>
        <pt x="75" y="33" on="0"/>
        <pt x="40" y="68" on="1"/>
        <pt x="130" y="170" on="1"/>
        <pt x="146" y="152" on="0"/>
        <pt x="200" y="126" on="0"/>
        <pt x="226" y="126" on="1"/>
        <pt x="335" y="126" on="0"/>
        <pt x="343" y="297" on="1"/>
        <pt x="321" y="268" on="0"/>
        <pt x="252" y="234" on="0"/>
        <pt x="224" y="234" on="1"/>
        <pt x="138" y="234" on="0"/>
        <pt x="32" y="332" on="0"/>
        <pt x="32" y="430" on="1"/>
        <pt x="32" y="496" on="0"/>
        <pt x="91" y="594" on="0"/>
        <pt x="191" y="646" on="0"/>
        <pt x="252" y="646" on="1"/>
      </contour>
      <contour>
        <pt x="307" y="354" on="0"/>
        <pt x="339" y="408" on="1"/>
        <pt x="329" y="469" on="0"/>
        <pt x="284" y="518" on="0"/>
        <pt x="256" y="518" on="1"/>
        <pt x="226" y="518" on="0"/>
        <pt x="188" y="477" on="0"/>
        <pt x="188" y="430" on="1"/>
        <pt x="188" y="354" on="0"/>
        <pt x="258" y="354" on="1"/>
      </contour>
    </TTGlyph>
    <TTGlyph name="nine.lat" xMin="32" yMin="-12" xMax="500" yMax="646">
      <contour>
        <pt x="317" y="646" on="0"/>
        <pt x="430" y="580" on="0"/>
        <pt x="500" y="437" on="0"/>
        <pt x="500" y="328" on="1"/>
        <pt x="500" y="218" on="0"/>
        <pt x="428" y="64" on="0"/>
        <pt x="308" y="-12" on="0"/>
        <pt x="238" y="-12" on="1"/>
        <pt x="175" y="-12" on="0"/>
        <pt x="75" y="33" on="0"/>
        <pt x="40" y="68" on="1"/>
        <pt x="130" y="170" on="1"/>
        <pt x="146" y="152" on="0"/>
        <pt x="200" y="126" on="0"/>
        <pt x="226" y="126" on="1"/>
        <pt x="335" y="126" on="0"/>
        <pt x="343" y="297" on="1"/>
        <pt x="321" y="268" on="0"/>
        <pt x="252" y="234" on="0"/>
        <pt x="224" y="234" on="1"/>
        <pt x="138" y="234" on="0"/>
        <pt x="32" y="332" on="0"/>
        <pt x="32" y="430" on="1"/>
        <pt x="32" y="496" on="0"/>
        <pt x="91" y="594" on="0"/>
        <pt x="191" y="646" on="0"/>
        <pt x="252" y="646" on="1"/>
      </contour>
      <contour>
        <pt x="307" y="354" on="0"/>
        <pt x="339" y="408" on="1"/>
        <pt x="329" y="469" on="0"/>
        <pt x="284" y="518" on="0"/>
        <pt x="256" y="518" on="1"/>
        <pt x="226" y="518" on="0"/>
        <pt x="188" y="477" on="0"/>
        <pt x="188" y="430" on="1"/>
        <pt x="188" y="354" on="0"/>
        <pt x="258" y="354" on="1"/>
      </contour>
    </TTGlyph>
    <TTGlyph name="nine.pnumlat" xMin="50" yMin="-12" xMax="518" yMax="646">
      <component glyphName="nine.lat" x="18" y="0" flags="0x0"/>
    </TTGlyph>
    <TTGlyph name="notequal" xMin="34" yMin="30" xMax="506" yMax="630">
      <contour>
        <pt x="118" y="150" on="1"/>
        <pt x="34" y="150" on="1"/>
        <pt x="34" y="270" on="1"/>
        <pt x="184" y="270" on="1"/>
        <pt x="250" y="390" on="1"/>
        <pt x="34" y="390" on="1"/>
        <pt x="34" y="510" on="1"/>
        <pt x="316" y="510" on="1"/>
        <pt x="386" y="630" on="1"/>
        <pt x="492" y="630" on="1"/>
        <pt x="422" y="510" on="1"/>
        <pt x="506" y="510" on="1"/>
        <pt x="506" y="390" on="1"/>
        <pt x="356" y="390" on="1"/>
        <pt x="290" y="270" on="1"/>
        <pt x="506" y="270" on="1"/>
        <pt x="506" y="150" on="1"/>
        <pt x="224" y="150" on="1"/>
        <pt x="154" y="30" on="1"/>
        <pt x="48" y="30" on="1"/>
      </contour>
    </TTGlyph>
    <TTGlyph name="ntilde" xMin="58" yMin="0" xMax="528" yMax="746">
      <component glyphName="n" x="0" y="0" flags="0x0"/>
      <component glyphName="tildecomb" x="320" y="0" flags="0x0"/>
    </TTGlyph>
    <TTGlyph name="numbersign" xMin="34" yMin="0" xMax="510" yMax="650">
      <contour>
        <pt x="106" y="180" on="1"/>
        <pt x="34" y="180" on="1"/>
        <pt x="34" y="288" on="1"/>
        <pt x="118" y="288" on="1"/>
        <pt x="130" y="384" on="1"/>
        <pt x="54" y="384" on="1"/>
        <pt x="54" y="492" on="1"/>
        <pt x="144" y="492" on="1"/>
        <pt x="164" y="650" on="1"/>
        <pt x="260" y="650" on="1"/>
        <pt x="242" y="492" on="1"/>
        <pt x="334" y="492" on="1"/>
        <pt x="354" y="650" on="1"/>
        <pt x="450" y="650" on="1"/>
        <pt x="432" y="492" on="1"/>
        <pt x="510" y="492" on="1"/>
        <pt x="510" y="384" on="1"/>
        <pt x="418" y="384" on="1"/>
        <pt x="406" y="288" on="1"/>
        <pt x="490" y="288" on="1"/>
        <pt x="490" y="180" on="1"/>
        <pt x="394" y="180" on="1"/>
        <pt x="372" y="0" on="1"/>
        <pt x="274" y="0" on="1"/>
        <pt x="296" y="180" on="1"/>
        <pt x="204" y="180" on="1"/>
        <pt x="182" y="0" on="1"/>
        <pt x="84" y="0" on="1"/>
      </contour>
      <contour>
        <pt x="308" y="288" on="1"/>
        <pt x="320" y="384" on="1"/>
        <pt x="228" y="384" on="1"/>
        <pt x="216" y="288" on="1"/>
      </contour>
    </TTGlyph>
    <TTGlyph name="numbersign.lat" xMin="34" yMin="0" xMax="510" yMax="650">
      <contour>
        <pt x="106" y="180" on="1"/>
        <pt x="34" y="180" on="1"/>
        <pt x="34" y="288" on="1"/>
        <pt x="118" y="288" on="1"/>
        <pt x="130" y="384" on="1"/>
        <pt x="54" y="384" on="1"/>
        <pt x="54" y="492" on="1"/>
        <pt x="144" y="492" on="1"/>
        <pt x="164" y="650" on="1"/>
        <pt x="260" y="650" on="1"/>
        <pt x="242" y="492" on="1"/>
        <pt x="334" y="492" on="1"/>
        <pt x="354" y="650" on="1"/>
        <pt x="450" y="650" on="1"/>
        <pt x="432" y="492" on="1"/>
        <pt x="510" y="492" on="1"/>
        <pt x="510" y="384" on="1"/>
        <pt x="418" y="384" on="1"/>
        <pt x="406" y="288" on="1"/>
        <pt x="490" y="288" on="1"/>
        <pt x="490" y="180" on="1"/>
        <pt x="394" y="180" on="1"/>
        <pt x="372" y="0" on="1"/>
        <pt x="274" y="0" on="1"/>
        <pt x="296" y="180" on="1"/>
        <pt x="204" y="180" on="1"/>
        <pt x="182" y="0" on="1"/>
        <pt x="84" y="0" on="1"/>
      </contour>
      <contour>
        <pt x="308" y="288" on="1"/>
        <pt x="320" y="384" on="1"/>
        <pt x="228" y="384" on="1"/>
        <pt x="216" y="288" on="1"/>
      </contour>
    </TTGlyph>
    <TTGlyph name="o" xMin="32" yMin="-12" xMax="528" yMax="512">
      <contour>
        <pt x="215" y="-12" on="0"/>
        <pt x="101" y="51" on="0"/>
        <pt x="32" y="170" on="0"/>
        <pt x="32" y="250" on="1"/>
        <pt x="32" y="330" on="0"/>
        <pt x="101" y="449" on="0"/>
        <pt x="215" y="512" on="0"/>
        <pt x="280" y="512" on="1"/>
        <pt x="345" y="512" on="0"/>
        <pt x="459" y="449" on="0"/>
        <pt x="528" y="330" on="0"/>
        <pt x="528" y="250" on="1"/>
        <pt x="528" y="170" on="0"/>
        <pt x="459" y="51" on="0"/>
        <pt x="345" y="-12" on="0"/>
        <pt x="280" y="-12" on="1"/>
      </contour>
      <contour>
        <pt x="352" y="126" on="0"/>
        <pt x="352" y="250" on="1"/>
        <pt x="352" y="374" on="0"/>
        <pt x="280" y="374" on="1"/>
        <pt x="208" y="374" on="0"/>
        <pt x="208" y="250" on="1"/>
        <pt x="208" y="126" on="0"/>
        <pt x="280" y="126" on="1"/>
      </contour>
    </TTGlyph>
    <TTGlyph name="o.sups" xMin="22" yMin="360" xMax="354" yMax="708">
      <contour>
        <pt x="144" y="360" on="0"/>
        <pt x="68" y="402" on="0"/>
        <pt x="22" y="480" on="0"/>
        <pt x="22" y="533" on="1"/>
        <pt x="22" y="586" on="0"/>
        <pt x="68" y="666" on="0"/>
        <pt x="144" y="708" on="0"/>
        <pt x="188" y="708" on="1"/>
        <pt x="232" y="708" on="0"/>
        <pt x="308" y="666" on="0"/>
        <pt x="354" y="586" on="0"/>
        <pt x="354" y="533" on="1"/>
        <pt x="354" y="480" on="0"/>
        <pt x="308" y="402" on="0"/>
        <pt x="232" y="360" on="0"/>
        <pt x="188" y="360" on="1"/>
      </contour>
      <contour>
        <pt x="212" y="454" on="0"/>
        <pt x="232" y="495" on="0"/>
        <pt x="232" y="533" on="1"/>
        <pt x="232" y="572" on="0"/>
        <pt x="212" y="614" on="0"/>
        <pt x="188" y="614" on="1"/>
        <pt x="164" y="614" on="0"/>
        <pt x="144" y="572" on="0"/>
        <pt x="144" y="533" on="1"/>
        <pt x="144" y="495" on="0"/>
        <pt x="164" y="454" on="0"/>
        <pt x="188" y="454" on="1"/>
      </contour>
    </TTGlyph>
    <TTGlyph name="oacute" xMin="32" yMin="-12" xMax="528" yMax="844">
      <component glyphName="o" x="0" y="0" flags="0x0"/>
      <component glyphName="acutecomb" x="280" y="0" flags="0x0"/>
    </TTGlyph>
    <TTGlyph name="obreve" xMin="32" yMin="-12" xMax="528" yMax="748">
      <component glyphName="o" x="0" y="0" flags="0x0"/>
      <component glyphName="uni0306" x="280" y="0" flags="0x0"/>
    </TTGlyph>
    <TTGlyph name="ocircumflex" xMin="32" yMin="-12" xMax="528" yMax="746">
      <component glyphName="o" x="0" y="0" flags="0x0"/>
      <component glyphName="uni0302" x="280" y="0" flags="0x0"/>
    </TTGlyph>
    <TTGlyph name="odieresis" xMin="32" yMin="-12" xMax="528" yMax="722">
      <component glyphName="o" x="0" y="0" flags="0x0"/>
      <component glyphName="uni0308" x="280" y="0" flags="0x0"/>
    </TTGlyph>
    <TTGlyph name="oe" xMin="32" yMin="-12" xMax="780" yMax="512">
      <contour>
        <pt x="202" y="-12" on="0"/>
        <pt x="95" y="51" on="0"/>
        <pt x="32" y="169" on="0"/>
        <pt x="32" y="250" on="1"/>
        <pt x="32" y="330" on="0"/>
        <pt x="97" y="449" on="0"/>
        <pt x="206" y="512" on="0"/>
        <pt x="272" y="512" on="1"/>
        <pt x="362" y="512" on="0"/>
        <pt x="426" y="438" on="1"/>
        <pt x="457" y="474" on="0"/>
        <pt x="536" y="512" on="0"/>
        <pt x="578" y="512" on="1"/>
        <pt x="644" y="512" on="0"/>
        <pt x="735" y="446" on="0"/>
        <pt x="780" y="335" on="0"/>
        <pt x="780" y="266" on="1"/>
        <pt x="780" y="226" on="0"/>
        <pt x="773" y="198" on="1"/>
        <pt x="498" y="198" on="1"/>
        <pt x="517" y="122" on="0"/>
        <pt x="604" y="122" on="1"/>
        <pt x="628" y="122" on="0"/>
        <pt x="673" y="139" on="0"/>
        <pt x="704" y="156" on="1"/>
        <pt x="762" y="46" on="1"/>
        <pt x="723" y="18" on="0"/>
        <pt x="624" y="-12" on="0"/>
        <pt x="580" y="-12" on="1"/>
        <pt x="539" y="-12" on="0"/>
        <pt x="459" y="26" on="0"/>
        <pt x="428" y="62" on="1"/>
        <pt x="395" y="25" on="0"/>
        <pt x="319" y="-12" on="0"/>
        <pt x="268" y="-12" on="1"/>
      </contour>
      <contour>
        <pt x="634" y="302" on="1"/>
        <pt x="634" y="338" on="0"/>
        <pt x="604" y="382" on="0"/>
        <pt x="572" y="382" on="1"/>
        <pt x="509" y="382" on="0"/>
        <pt x="498" y="302" on="1"/>
      </contour>
      <contour>
        <pt x="305" y="126" on="0"/>
        <pt x="340" y="192" on="0"/>
        <pt x="340" y="250" on="1"/>
        <pt x="340" y="308" on="0"/>
        <pt x="305" y="374" on="0"/>
        <pt x="272" y="374" on="1"/>
        <pt x="240" y="374" on="0"/>
        <pt x="206" y="308" on="0"/>
        <pt x="206" y="250" on="1"/>
        <pt x="206" y="192" on="0"/>
        <pt x="240" y="126" on="0"/>
        <pt x="272" y="126" on="1"/>
      </contour>
    </TTGlyph>
    <TTGlyph name="ograve" xMin="32" yMin="-12" xMax="528" yMax="844">
      <component glyphName="o" x="0" y="0" flags="0x0"/>
      <component glyphName="gravecomb" x="280" y="0" flags="0x0"/>
    </TTGlyph>
    <TTGlyph name="omacron" xMin="32" yMin="-12" xMax="528" yMax="696">
      <component glyphName="o" x="0" y="0" flags="0x0"/>
      <component glyphName="uni0304" x="280" y="0" flags="0x0"/>
    </TTGlyph>
    <TTGlyph name="one" xMin="66" yMin="0" xMax="488" yMax="634">
      <contour>
        <pt x="66" y="138" on="1"/>
        <pt x="202" y="138" on="1"/>
        <pt x="202" y="466" on="1"/>
        <pt x="82" y="466" on="1"/>
        <pt x="82" y="572" on="1"/>
        <pt x="135" y="582" on="0"/>
        <pt x="211" y="611" on="0"/>
        <pt x="248" y="634" on="1"/>
        <pt x="374" y="634" on="1"/>
        <pt x="374" y="138" on="1"/>
        <pt x="488" y="138" on="1"/>
        <pt x="488" y="0" on="1"/>
        <pt x="66" y="0" on="1"/>
      </contour>
    </TTGlyph>
    <TTGlyph name="one.heb" xMin="66" yMin="0" xMax="488" yMax="634">
      <contour>
        <pt x="66" y="138" on="1"/>
        <pt x="202" y="138" on="1"/>
        <pt x="202" y="466" on="1"/>
        <pt x="82" y="466" on="1"/>
        <pt x="82" y="572" on="1"/>
        <pt x="135" y="582" on="0"/>
        <pt x="211" y="611" on="0"/>
        <pt x="248" y="634" on="1"/>
        <pt x="374" y="634" on="1"/>
        <pt x="374" y="138" on="1"/>
        <pt x="488" y="138" on="1"/>
        <pt x="488" y="0" on="1"/>
        <pt x="66" y="0" on="1"/>
      </contour>
    </TTGlyph>
    <TTGlyph name="one.lat" xMin="66" yMin="0" xMax="488" yMax="634">
      <contour>
        <pt x="66" y="138" on="1"/>
        <pt x="202" y="138" on="1"/>
        <pt x="202" y="466" on="1"/>
        <pt x="82" y="466" on="1"/>
        <pt x="82" y="572" on="1"/>
        <pt x="135" y="582" on="0"/>
        <pt x="211" y="611" on="0"/>
        <pt x="248" y="634" on="1"/>
        <pt x="374" y="634" on="1"/>
        <pt x="374" y="138" on="1"/>
        <pt x="488" y="138" on="1"/>
        <pt x="488" y="0" on="1"/>
        <pt x="66" y="0" on="1"/>
      </contour>
    </TTGlyph>
    <TTGlyph name="one.pnumlat" xMin="34" yMin="0" xMax="326" yMax="634">
      <contour>
        <pt x="154" y="466" on="1"/>
        <pt x="34" y="466" on="1"/>
        <pt x="34" y="572" on="1"/>
        <pt x="87" y="582" on="0"/>
        <pt x="163" y="611" on="0"/>
        <pt x="200" y="634" on="1"/>
        <pt x="326" y="634" on="1"/>
        <pt x="326" y="0" on="1"/>
        <pt x="154" y="0" on="1"/>
      </contour>
    </TTGlyph>
</ttFont>
